<svg width="121" height="143" viewBox="0 0 121 143" fill="none" xmlns="http://www.w3.org/2000/svg">
<path d="M57.3174 71.132C55.7419 66.6879 55.7734 58.1054 56.6872 58.1054C59.3341 58.1054 59.082 68.3544 57.3174 71.132ZM56.7818 84.2418C54.3555 89.8523 51.3305 96.2684 47.8328 101.657C53.5992 99.7125 60.1219 96.8794 67.6529 95.574C63.651 92.9076 59.8068 89.0746 56.7818 84.2418ZM27.1305 118.905C27.1305 119.127 31.2898 117.405 38.1276 107.739C36.0164 109.489 28.9581 114.544 27.1305 118.905ZM78.1458 44.4401H121V135.542C121 139.236 117.628 142.208 113.438 142.208H7.5625C3.37161 142.208 0 139.236 0 135.542V6.66602C0 2.97193 3.37161 0 7.5625 0H70.5833V37.7741C70.5833 41.4404 73.9865 44.4401 78.1458 44.4401ZM75.625 92.1577C69.3229 88.7691 65.132 84.1029 62.1701 77.2147C63.588 72.0763 65.8253 64.2715 64.1237 59.3831C62.6427 51.2172 50.7633 52.0227 49.0617 57.4944C47.4862 62.5772 48.9357 69.7432 51.6141 78.8812C47.9589 86.5471 42.5706 96.8239 38.7578 102.712C38.7263 102.712 38.7263 102.74 38.6948 102.74C30.1555 106.601 15.5031 115.1 21.5216 121.627C23.2862 123.544 26.5633 124.405 28.2964 124.405C33.9367 124.405 39.5456 119.405 47.5492 107.24C55.6789 104.879 64.5964 101.935 72.4424 100.796C79.2802 104.073 87.2839 106.212 92.6091 106.212C101.81 106.212 102.44 97.3238 98.8167 94.1575C94.4367 90.3801 81.7065 91.4633 75.625 92.1577ZM118.794 29.1638L87.9141 1.94425C86.4961 0.694377 84.574 0 82.5573 0H80.6667V35.5521H121V33.8578C121 32.108 120.212 30.4137 118.794 29.1638ZM95.445 100.074C96.737 99.3236 94.6573 96.7683 81.9586 97.5738C93.649 101.962 95.445 100.074 95.445 100.074Z" fill="#111111"/>
</svg>
