<svg width="26" height="24" viewBox="0 0 26 24" fill="none" xmlns="http://www.w3.org/2000/svg">
<path d="M10.2143 16.7912H7.42856V1.16844C7.42856 0.950369 7.33072 0.741226 7.15658 0.587024C6.98243 0.432821 6.74624 0.346191 6.49996 0.346191H4.64277C4.39649 0.346191 4.1603 0.432821 3.98615 0.587024C3.81201 0.741226 3.71417 0.950369 3.71417 1.16844V16.7912H0.928383C0.104835 16.7912 -0.311293 17.6772 0.273143 18.1947L4.91612 23.1282C5.09025 23.2823 5.32635 23.3689 5.57253 23.3689C5.8187 23.3689 6.0548 23.2823 6.22893 23.1282L10.8719 18.1947C11.4534 17.6782 11.0396 16.7912 10.2143 16.7912ZM24.1433 13.5022H16.7145C16.4682 13.5022 16.232 13.5889 16.0579 13.7431C15.8838 13.8973 15.7859 14.1064 15.7859 14.3245V15.969C15.7859 16.1871 15.8838 16.3962 16.0579 16.5504C16.232 16.7046 16.4682 16.7912 16.7145 16.7912H19.9646L16.4092 20.4117C16.2132 20.566 16.0563 20.7554 15.9489 20.9672C15.8414 21.1791 15.7859 21.4087 15.7859 21.641V22.547C15.7859 22.7651 15.8838 22.9742 16.0579 23.1284C16.232 23.2826 16.4682 23.3693 16.7145 23.3693H24.1433C24.3896 23.3693 24.6258 23.2826 24.7999 23.1284C24.9741 22.9742 25.0719 22.7651 25.0719 22.547V20.9025C25.0719 20.6844 24.9741 20.4753 24.7999 20.3211C24.6258 20.1669 24.3896 20.0803 24.1433 20.0803H20.8932L24.4486 16.4598C24.6446 16.3055 24.8015 16.1161 24.9089 15.9043C25.0164 15.6924 25.0719 15.4628 25.0719 15.2305V14.3245C25.0719 14.1064 24.9741 13.8973 24.7999 13.7431C24.6258 13.5889 24.3896 13.5022 24.1433 13.5022ZM25.9459 9.11449L22.5061 0.891962C22.4417 0.732221 22.323 0.594027 22.1664 0.496319C22.0099 0.398612 21.823 0.346174 21.6314 0.346191H19.2264C19.0348 0.346174 18.8479 0.398612 18.6914 0.496319C18.5348 0.594027 18.4162 0.732221 18.3518 0.891962L14.9119 9.11449C14.8619 9.23854 14.8462 9.37142 14.8663 9.50194C14.8864 9.63246 14.9416 9.75679 15.0272 9.86448C15.1129 9.97217 15.2265 10.0601 15.3586 10.1207C15.4906 10.1814 15.6372 10.2132 15.7859 10.2132H17.227C17.4234 10.2133 17.6148 10.1582 17.7736 10.0559C17.9324 9.95357 18.0505 9.8093 18.1109 9.64381L18.3674 8.97984H22.4881L22.744 9.64381C22.8045 9.80963 22.923 9.95414 23.0823 10.0565C23.2416 10.1588 23.4334 10.2137 23.6302 10.2132H25.0719C25.2206 10.2132 25.3672 10.1814 25.4992 10.1207C25.6313 10.0601 25.7449 9.97217 25.8306 9.86448C25.9162 9.75679 25.9714 9.63246 25.9915 9.50194C26.0116 9.37142 25.996 9.23854 25.9459 9.11449ZM19.4777 6.10196L20.4289 3.6352L21.3801 6.10196H19.4777Z" fill="black"/>
</svg>
