<svg width="296" height="74" viewBox="0 0 296 74" fill="none" xmlns="http://www.w3.org/2000/svg">
<path d="M59.6441 31.6721C55.9441 31.6721 53.8721 33.4481 53.1321 34.6321C53.2801 32.8561 54.1681 31.0801 57.4241 30.4881L67.1921 28.5641L66.4521 24.7161L56.9801 26.4921C50.3201 27.6761 49.5801 33.3001 49.5801 38.4801C49.5801 45.2881 52.9841 48.9881 58.7561 48.9881C64.0841 48.9881 68.0801 44.9921 68.0801 40.1081C67.9321 35.3721 64.0841 31.6721 59.6441 31.6721ZM58.9041 44.6961C56.5361 44.6961 54.6121 42.6241 54.6121 40.2561C54.6121 37.7401 56.2401 35.6681 58.7561 35.6681C61.1241 35.6681 63.0481 37.7401 63.0481 40.2561C63.0481 42.6241 61.2721 44.6961 58.9041 44.6961ZM80.6601 30.9321C77.7001 30.9321 75.6281 31.5241 73.8521 32.2641L75.0361 36.1121C76.6641 35.5201 77.9961 35.2241 79.9201 35.2241C82.2881 35.2241 83.7681 36.4081 83.7681 38.4801V38.7761C82.5841 38.3321 81.2521 38.0361 79.4761 38.0361C75.3321 38.0361 72.3721 39.8121 72.3721 43.5121C72.3721 47.0641 75.0361 48.8401 78.4401 48.8401C80.8081 48.8401 82.5841 48.1001 83.7681 46.6201V48.5441H88.6521V38.4801C88.6521 36.2601 88.0601 34.3361 86.7281 33.0041C85.3961 31.6721 83.3241 30.9321 80.6601 30.9321ZM83.6201 42.3281C83.6201 44.1041 82.1401 45.4361 79.6241 45.2881C77.9961 45.2881 76.9601 44.5481 76.9601 43.0681C76.9601 41.4401 78.2921 40.7001 80.5121 40.7001C81.6961 40.7001 82.8801 40.9961 83.7681 41.4401V42.3281H83.6201ZM105.524 37.7401H99.3081V31.0801H94.4241V48.5441H99.3081V41.8841H105.524V48.5441H110.556V31.0801H105.524V37.7401ZM127.28 38.1841L133.644 31.0801H127.872L121.508 38.1841V31.0801H116.624V48.5441H121.508V44.4001L123.876 41.8841L128.612 48.5441H134.532L127.28 38.1841Z" fill="#1A1717"/>
<path d="M174.64 24.5681C173.16 24.5681 172.272 25.3081 171.828 26.0481C171.976 24.7161 172.568 23.9761 173.9 23.6801L177.6 22.7921L177.452 22.0521L173.604 22.9401C171.236 23.5321 171.088 25.6041 171.088 27.8241C171.088 30.1921 172.568 31.6721 174.492 31.6721C176.564 31.6721 178.044 30.0441 178.044 28.1201C178.044 26.1961 176.416 24.5681 174.64 24.5681ZM174.492 30.6361C173.16 30.6361 172.124 29.4521 172.124 28.1201C172.124 26.6401 173.16 25.6041 174.492 25.6041C175.824 25.6041 176.86 26.7881 176.86 28.1201C177.008 29.4521 175.972 30.6361 174.492 30.6361ZM182.928 24.5681C182.04 24.5681 181.3 24.7161 180.56 25.1601L180.856 25.9001C181.448 25.4561 182.04 25.3081 182.928 25.3081C184.26 25.3081 185 26.0481 185 27.2321V27.5281C184.408 27.3801 183.816 27.2321 182.928 27.2321C181.3 27.2321 180.116 27.9721 180.116 29.4521C180.116 30.7841 181.3 31.5241 182.484 31.6721C183.668 31.6721 184.556 30.9321 184.852 30.4881V31.6721H185.74V27.5281C185.74 26.6401 185.444 25.9001 185 25.4561C184.704 24.8641 183.816 24.5681 182.928 24.5681ZM185 28.8601C185 29.8961 183.964 30.6361 182.78 30.6361C181.892 30.6361 181.004 30.0441 181.004 29.3041C181.004 28.5641 181.744 27.9721 183.076 27.9721C183.816 27.9721 184.556 28.1201 185.148 28.2681V28.8601H185ZM193.584 27.5281H189.588V24.5681H188.7V31.3761H189.588V28.4161H193.584V31.3761H194.62V24.5681H193.584V27.5281ZM203.352 24.5681H202.168L198.616 28.5641V24.5681H197.432V31.3761H198.616V29.7481L199.948 28.2681L202.316 31.3761H203.5L200.54 27.5281L203.352 24.5681ZM173.752 42.0321C172.864 42.0321 172.124 42.1801 171.384 42.6241L171.68 43.3641C172.272 42.9201 172.864 42.7721 173.752 42.7721C175.084 42.7721 175.824 43.5121 175.824 44.6961V44.9921C175.232 44.8441 174.64 44.6961 173.752 44.6961C172.124 44.6961 170.94 45.4361 170.94 46.9161C170.94 48.2481 172.272 49.1361 173.308 49.1361C174.492 49.1361 175.38 48.3961 175.676 47.9521V49.1361H176.564V44.9921C176.564 44.1041 176.268 43.3641 175.824 42.9201C175.528 42.3281 174.64 42.0321 173.752 42.0321ZM175.824 46.3241C175.824 47.3601 174.936 48.1001 173.604 48.1001C172.716 48.1001 171.828 47.5081 171.828 46.7681C171.828 46.0281 172.568 45.4361 173.9 45.4361C174.64 45.4361 175.38 45.5841 175.972 45.7321V46.3241H175.824ZM180.56 42.6241C180.56 47.6561 179.82 47.9521 179.08 47.9521C178.932 47.9521 178.636 47.8041 178.488 47.8041L178.34 48.5441C178.488 48.6921 178.932 48.6921 179.08 48.8401C180.412 48.8401 181.3 48.2481 181.3 43.0681V42.9201H184.112V48.8401H185V42.0321H180.56V42.6241ZM191.068 41.8841C189.144 41.8841 187.812 43.3641 187.812 45.4361C187.812 47.6561 189.292 49.1361 191.216 49.1361C192.548 49.1361 193.436 48.6921 194.028 47.9521L193.288 47.3601C192.696 47.9521 192.104 48.2481 191.068 48.2481C189.884 48.2481 188.848 47.5081 188.7 46.0281H194.028V45.5841C194.028 43.5121 192.992 41.8841 191.068 41.8841ZM188.848 44.9921C188.996 43.6601 189.736 42.7721 191.068 42.7721C192.4 42.7721 193.14 43.8081 193.288 44.9921H188.848ZM201.28 42.0321L197.58 45.8801V42.0321H196.544V48.6921H197.58V47.0641L198.912 45.5841L201.428 48.6921H202.612L199.8 44.9921L202.612 42.0321H201.28ZM207.644 42.7721C208.384 42.7721 209.124 43.2161 209.716 43.6601L210.456 42.9201C209.716 42.1801 208.976 41.7361 207.792 41.7361C205.72 41.7361 204.24 43.3641 204.24 45.2881C204.24 47.3601 205.72 48.9881 207.792 48.9881C208.976 48.9881 209.864 48.3961 210.456 47.6561L209.716 46.9161C209.124 47.6561 208.532 47.9521 207.644 47.9521C206.312 47.9521 205.276 46.9161 205.276 45.4361C205.276 43.9561 206.312 42.7721 207.644 42.7721ZM215.192 42.0321C214.304 42.0321 213.564 42.1801 212.824 42.6241L213.12 43.3641C213.712 42.9201 214.304 42.7721 215.192 42.7721C216.524 42.7721 217.264 43.5121 217.264 44.6961V44.9921C216.672 44.8441 216.08 44.6961 215.192 44.6961C213.564 44.6961 212.38 45.4361 212.38 46.9161C212.38 48.2481 213.564 49.1361 214.748 49.1361C215.932 49.1361 216.82 48.3961 217.116 47.9521V49.1361H218.004V44.9921C218.004 44.1041 217.708 43.3641 217.264 42.9201C216.968 42.3281 216.228 42.0321 215.192 42.0321ZM217.116 46.3241C217.116 47.3601 216.228 48.1001 214.896 48.1001C214.008 48.1001 213.12 47.5081 213.12 46.7681C213.12 46.0281 213.86 45.4361 215.192 45.4361C215.932 45.4361 216.672 45.5841 217.264 45.7321V46.3241H217.116ZM225.848 44.9921H222V42.0321H220.964V48.6921H222V45.8801H225.848V48.6921H226.884V42.0321H225.848V44.9921ZM235.172 42.0321H230.288V43.2161C230.288 45.4361 229.844 47.0641 229.4 47.9521H228.956V50.3201H229.696L229.844 48.6921H235.172V50.3201H235.912L236.06 47.8041H235.024V42.0321H235.172ZM234.284 47.9521H230.584C231.176 47.0641 231.324 45.5841 231.324 43.9561V42.9201H234.136V47.9521H234.284ZM241.832 41.8841C240.648 41.8841 239.76 42.6241 239.316 43.3641V42.0321H238.28V50.7641H239.168V47.3601C239.76 48.1001 240.5 48.8401 241.684 48.8401C243.312 48.8401 244.94 47.5081 244.94 45.2881C245.088 43.0681 243.46 41.8841 241.832 41.8841ZM241.684 47.9521C240.5 47.9521 239.316 47.0641 239.316 45.4361C239.316 43.9561 240.5 42.9201 241.684 42.9201C243.016 42.9201 244.052 43.8081 244.052 45.4361C244.052 47.0641 243.016 48.1001 241.684 47.9521ZM250.712 41.8841C248.64 41.8841 247.16 43.5121 247.16 45.4361C247.16 47.5081 248.64 49.1361 250.712 48.9881C252.784 48.9881 254.264 47.3601 254.264 45.4361C254.264 43.5121 252.784 41.8841 250.712 41.8841ZM250.564 47.9521C249.232 47.9521 248.196 46.9161 248.196 45.4361C248.196 43.9561 249.084 42.7721 250.564 42.7721C252.044 42.7721 253.08 43.9561 253.08 45.4361C253.08 46.7681 252.192 48.1001 250.564 47.9521ZM260.924 45.2881C261.516 44.9921 261.96 44.5481 261.96 43.6601C261.96 42.7721 261.22 42.0321 259.74 42.0321H256.484V48.8401H259.888C261.368 48.8401 262.256 48.1001 262.256 46.9161C262.404 45.8801 261.812 45.4361 260.924 45.2881ZM257.52 42.9201H259.74C260.628 42.9201 261.072 43.3641 261.072 43.8081C261.072 44.5481 260.48 44.8441 259.74 44.8441H257.52V42.9201ZM260.036 47.9521H257.816V45.7321H260.036C261.072 45.7321 261.664 46.1761 261.664 46.7681C261.664 47.5081 260.924 47.9521 260.036 47.9521ZM268.028 42.7721C268.768 42.7721 269.508 43.2161 270.1 43.6601L270.84 42.9201C270.1 42.1801 269.36 41.7361 268.176 41.7361C266.104 41.7361 264.624 43.3641 264.624 45.2881C264.624 47.3601 266.104 48.9881 268.176 48.9881C269.36 48.9881 270.248 48.3961 270.84 47.6561L270.1 46.9161C269.508 47.6561 268.916 47.9521 268.028 47.9521C266.696 47.9521 265.66 46.9161 265.66 45.4361C265.66 43.9561 266.696 42.7721 268.028 42.7721ZM278.98 42.0321H277.796L274.096 45.8801V42.0321H273.06V48.6921H274.096V47.0641L275.576 45.5841L277.944 48.6921H279.128L276.168 44.9921L278.98 42.0321ZM282.236 47.3601V42.0321H281.2V48.6921H282.088L286.232 43.5121V48.6921H287.268V42.0321H286.232L282.236 47.3601ZM293.04 40.9961C294.076 40.9961 294.816 40.2561 294.964 39.3681L294.224 39.2201C293.928 39.8121 293.632 40.1081 293.04 40.1081C292.448 40.1081 292.004 39.6641 291.856 39.2201L291.116 39.3681C291.412 40.4041 292.152 40.9961 293.04 40.9961ZM295.112 42.0321L290.968 47.3601V42.0321H290.08V48.6921H290.968L295.112 43.3641V48.6921H296V42.0321H295.112ZM8.288 30.9321C5.328 30.9321 3.256 31.5241 1.48 32.2641L2.812 36.1121C4.44 35.5201 5.772 35.2241 7.696 35.2241C10.064 35.2241 11.544 36.4081 11.544 38.4801V38.7761C10.36 38.3321 9.028 38.0361 7.252 38.0361C2.96 37.8881 0 39.6641 0 43.5121C0 46.9161 2.664 48.8401 6.068 48.8401C8.584 48.8401 10.212 48.1001 11.396 46.6201V48.5441H16.132V38.4801C16.132 36.2601 15.54 34.3361 14.208 33.0041C13.024 31.6721 11.1 30.9321 8.288 30.9321ZM11.396 42.3281C11.396 44.1041 9.916 45.4361 7.4 45.2881C5.772 45.2881 4.736 44.5481 4.736 43.0681C4.736 41.4401 6.068 40.7001 8.288 40.7001C9.472 40.7001 10.656 40.9961 11.544 41.4401V42.3281H11.396ZM23.384 25.4561L21.164 28.7121C25.604 31.8201 27.528 34.7801 27.528 39.3681C27.528 43.9561 25.604 46.9161 21.164 50.0241L23.384 53.5761C29.452 50.1721 32.56 45.7321 32.56 39.5161C32.56 33.1521 29.452 28.7121 23.384 25.4561ZM152.884 19.6841H153.92V54.4641H152.884V19.6841Z" fill="#7A66A8"/>
</svg>
