<svg width="277" height="48" viewBox="0 0 277 48" fill="none" xmlns="http://www.w3.org/2000/svg">
<path d="M275.39 27.2001C275.068 25.7601 274.101 24.4801 272.813 23.6801C271.041 22.7201 268.948 22.2401 267.015 21.9201C264.922 21.6001 262.828 21.4401 260.734 21.2801C258.48 21.1201 256.225 21.1201 254.131 20.4801C253.165 20.1601 252.36 19.5201 252.36 18.5601C252.199 17.6001 253.165 16.8001 254.131 16.4801C256.064 15.6801 258.158 15.6801 260.251 15.6801C264.116 15.6801 267.82 16.4801 271.202 18.2401C271.847 17.4401 273.296 16.0001 274.101 14.8801C270.075 12.3201 265.244 11.3601 260.573 11.3601C257.191 11.3601 253.809 11.8401 250.911 13.2801C249.139 14.2401 247.69 15.8401 247.368 18.0801C247.045 19.3601 247.045 20.8001 247.69 21.9201C248.334 23.0401 249.461 24.0001 250.588 24.4801C252.36 25.2801 254.454 25.6001 256.547 25.7601C259.124 26.0801 261.862 26.0801 264.438 26.2401C265.888 26.4001 267.337 26.5601 268.626 27.2001C269.431 27.5201 270.236 28.3201 270.236 29.2801C270.236 30.2401 269.753 31.0401 268.948 31.6801C267.82 32.4801 266.21 32.9601 264.761 33.1201C259.285 33.7601 253.487 32.9601 248.817 29.7601C248.012 30.8801 247.045 32.0001 246.24 33.1201C250.749 36.4801 256.386 37.4401 261.862 37.4401C264.922 37.2801 268.143 36.9601 271.041 35.6801C272.491 34.8801 273.779 33.9201 274.584 32.6401C275.551 31.0401 275.712 28.9601 275.39 27.2001ZM111.766 32.8001L94.8565 12.1601H87.6094V36.9601H92.4408V16.3201L109.512 36.9601H116.598V12.1601H111.766V32.8001ZM235.289 12.0001H240.12V36.8001H235.289V12.0001ZM228.203 12.0001H222.083L212.743 21.2801L203.241 12.0001H197.121L209.522 24.3201L196.638 36.8001H202.758L212.42 27.3601L222.566 36.8001H228.686L215.802 24.1601L228.203 12.0001ZM186.331 36.8001H191.323V12.0001H186.492L186.331 36.8001ZM152.35 16.4801H164.268V36.8001H169.099V16.3201H181.016V12.0001H152.35V16.4801ZM134.635 12.0001L121.107 36.8001H126.422L129.32 31.5201H146.069L148.968 36.8001H154.283L140.755 12.0001H134.635ZM131.736 27.2001L137.695 16.3201L143.493 27.2001H131.736Z" fill="#010101"/>
<path d="M24.1568 20.1601C24.4789 20.1601 24.962 20.0001 25.4451 19.8401C25.9283 19.6801 26.5725 19.8401 27.0556 19.5201C27.2167 19.5201 27.3777 19.6801 27.5388 19.6801V20.3201H27.6998C28.0219 20.0001 28.1829 19.5201 28.344 19.2001L28.1829 19.0401L28.6661 18.0801C28.505 17.9201 28.505 17.7601 28.344 17.6001C28.505 17.4401 28.8271 17.4401 29.1492 17.4401C29.1492 16.9601 29.3103 16.3201 29.1492 15.8401C28.9882 15.3601 29.1492 14.7201 29.1492 14.2401C28.8271 13.9201 28.505 13.4401 28.1829 13.1201C28.505 12.8001 28.8271 12.6401 29.1492 12.4801C28.6661 11.8401 28.344 11.0401 28.344 10.2401C28.1829 10.2401 27.8608 10.0801 27.6998 10.0801V9.28009H24.801C23.8347 9.44009 22.8684 9.44009 21.9021 9.76009C21.419 9.76009 21.0969 10.0801 20.6138 10.0801C20.4527 10.0801 20.2917 10.2401 20.1306 10.2401L19.9696 9.92009H19.6475V10.0801H19.9696V10.4001C19.1643 10.7201 18.3591 10.8801 17.7149 11.5201C17.3928 11.8401 16.7486 12.0001 16.2655 12.1601C14.3329 13.2801 12.5614 14.5601 10.951 15.8401C10.6289 16.0001 9.98469 16.1601 9.98469 16.6401C10.951 16.3201 11.9172 15.8401 12.8835 15.3601C12.7225 15.8401 12.2393 16.1601 11.7562 16.3201C12.4004 16.9601 13.2056 17.4401 14.0108 17.1201C14.3329 17.2801 14.655 16.9601 14.9771 16.6401H15.6213C15.6213 16.4801 15.7824 16.3201 15.7824 16.1601H16.4265C16.5876 16.0001 16.7486 15.6801 16.7486 15.5201H17.3928C17.5539 15.0401 18.037 14.5601 18.1981 13.9201H18.6812V13.4401H19.0033C19.3254 13.1201 19.4864 12.8001 19.6475 12.4801H19.1643C19.0033 12.1601 18.8422 11.8401 18.6812 11.6801H19.4864C20.6138 10.7201 22.2242 10.5601 23.5126 10.0801C24.3178 9.76009 24.962 9.76009 25.7672 9.76009L25.9283 9.92009C25.4452 10.4001 26.2504 10.8801 26.5725 11.0401C26.5725 11.2001 26.4114 11.3601 26.4114 11.3601C26.5725 11.6801 26.5725 12.3201 26.5725 12.8001C26.0893 13.1201 25.6062 13.4401 25.4451 14.0801C25.7672 14.0801 26.0893 14.4001 26.2504 14.7201C25.9283 14.8801 25.7672 15.0401 25.6062 15.0401C26.0893 15.3601 26.4114 15.5201 26.7335 15.8401C26.4114 16.6401 25.4452 17.1201 25.2841 18.0801C25.1231 18.5601 24.6399 19.2001 24.3178 19.6801H23.1905C22.2242 20.0001 21.2579 20.3201 20.4527 20.8001C19.4864 20.6401 19.0033 21.4401 18.1981 21.6001C18.037 21.4401 17.876 21.1201 17.876 20.9601H17.7149V21.6001C17.5539 21.6001 17.3928 21.7601 17.2318 21.9201C17.2318 22.2401 17.0707 22.5601 17.0707 22.7201C16.9097 22.5601 16.7486 22.4001 16.5876 22.4001C16.5876 22.7201 16.4265 23.0401 16.4265 23.2001C15.6213 23.2001 14.9771 23.6801 14.1719 24.0001V24.3201C14.0108 24.1601 13.6888 24.1601 13.5277 24.1601H13.3667C13.2056 24.4801 13.2056 24.8001 13.2056 24.9601C13.0446 25.1201 12.7225 25.2801 12.4004 25.2801C12.2393 25.2801 12.2393 25.4401 12.2393 25.4401C11.7562 25.6001 11.2731 25.9201 10.951 26.2401L11.112 26.5601C11.7562 26.4001 12.2393 26.0801 12.8835 25.9201C13.6888 25.4401 14.1719 24.9601 14.8161 24.8001C15.4603 24.4801 15.9434 24.0001 16.5876 23.6801C16.9097 23.3601 17.5539 23.3601 17.876 23.0401C18.5202 22.5601 19.1643 22.4001 19.8085 22.0801L21.2579 21.1201H21.9021C21.9021 20.9601 22.0632 20.8001 22.0632 20.8001C22.8684 20.6401 23.5126 20.4801 24.1568 20.1601ZM27.6998 9.28009V8.96009C27.5388 9.12009 27.3777 9.28009 27.6998 9.28009ZM61.5196 17.9201C61.3585 17.9201 61.1975 18.0801 61.0364 18.0801L61.5196 17.9201C61.8417 17.9201 62.1637 17.4401 62.1637 17.1201H62.4859V16.8001H62.0027C61.8417 17.1201 61.6806 17.4401 61.5196 17.9201ZM8.21317 17.1201C8.05213 17.4401 7.89108 17.6001 7.73003 18.5601H7.40794C7.08585 18.8801 6.9248 19.2001 6.44166 19.2001C6.28061 19.3601 6.11957 19.5201 6.11957 19.6801C5.79747 19.6801 5.63643 20.0001 5.47538 20.0001L5.15329 20.1601L4.99224 20.4801C4.67015 20.4801 4.34806 20.6401 4.18701 20.8001C4.18701 21.2801 3.86492 21.6001 3.54283 21.9201C3.38178 22.5601 2.73759 23.0401 2.57655 23.6801C2.57655 23.8401 2.25445 24.0001 2.25445 24.0001V24.4801C1.93236 24.6401 1.77131 24.8001 1.44922 24.9601H1.93236C1.93236 25.1201 2.09341 25.4401 2.09341 25.6001H2.4155C2.4155 26.0801 2.89864 26.2401 3.22073 26.2401V26.5601C3.38178 26.4001 3.54282 26.2401 3.70387 26.2401C3.86492 26.5601 4.18701 26.8801 4.5091 27.0401V26.8801C4.83119 26.8801 5.15329 26.8801 5.47538 27.0401C5.63643 26.8801 5.79748 26.7201 5.95852 26.7201C5.63643 26.5601 5.15329 26.5601 4.8312 26.2401L4.18701 25.6001C3.54282 25.1201 2.89864 24.1601 3.22073 23.2001C3.70387 21.6001 5.15329 20.6401 6.28061 19.6801C6.9248 19.2001 7.40794 18.4001 8.21317 18.5601V17.9201H8.85736C9.01841 17.4401 9.17945 16.9601 9.50154 16.4801L9.3405 16.3201C9.0184 16.6401 8.69631 16.9601 8.21317 17.1201ZM63.4521 8.16009C62.969 8.16009 62.6469 8.48009 62.3248 8.80009C62.1638 8.80009 62.0027 8.64009 61.8417 8.64009C62.1638 8.32009 62.3248 8.00009 62.4859 7.84009C62.1638 8.00009 61.6806 8.16009 61.3585 8.32009C61.1975 8.16009 61.1975 8.00009 61.3585 8.00009C60.8754 8.32009 60.3922 8.80009 60.0702 9.28009C59.587 9.28009 59.2649 8.96009 58.9428 9.28009C58.2986 9.76009 57.8155 10.2401 57.0103 10.2401C56.5271 11.0401 55.3998 11.0401 54.5946 11.6801C54.4335 11.6801 54.2725 11.3601 54.2725 11.3601V11.8401C53.9504 12.3201 53.4672 12.6401 52.9841 12.9601C52.9841 13.1201 53.1451 13.2801 53.1451 13.4401C53.3062 13.4401 53.3062 13.7601 53.3062 13.7601H54.1114V14.4001C53.7893 14.4001 53.6283 14.5601 53.3062 14.5601C53.3062 14.7201 53.1451 14.8801 52.9841 14.8801C53.1451 15.0401 53.3062 15.2001 53.4672 15.2001V15.5201C53.6283 15.6801 53.9504 15.8401 54.1114 15.8401C54.4335 15.8401 54.4335 15.3601 54.5946 15.2001C55.0777 15.2001 55.2388 14.8801 55.3998 14.5601C55.2388 14.7201 54.9167 14.8801 54.7556 14.8801C54.9167 14.7201 54.7556 14.2401 55.0777 14.2401C55.3998 14.2401 55.8829 14.4001 56.205 14.5601C56.205 14.2401 56.044 13.9201 55.8829 13.7601H57.0103C56.5271 13.4401 56.044 13.2801 55.8829 12.8001C56.205 12.6401 56.6882 12.8001 57.0103 12.8001C57.1713 12.3201 57.0103 12.0001 56.8492 11.6801C57.4934 11.3601 58.2986 11.3601 58.9428 11.8401L59.2649 11.5201C59.426 11.5201 59.587 11.6801 59.7481 11.6801C59.9091 11.3601 59.9091 11.2001 60.0702 10.8801C60.0702 10.7201 60.3922 10.7201 60.3922 10.7201V10.4001H61.1975C61.3585 10.8801 61.3585 11.3601 61.6806 11.8401C61.8417 11.6801 61.8417 11.3601 62.0027 11.2001C62.0027 11.2001 62.1638 11.3601 62.3248 11.3601V10.8801C62.1638 10.7201 61.8417 10.5601 61.6806 10.5601C61.8417 10.0801 62.1638 9.44009 62.8079 9.44009C62.6469 9.44009 62.4859 9.12009 62.4859 9.12009H63.13C63.2911 8.80009 63.4521 8.48009 63.4521 8.16009ZM29.6324 44.4801H28.9882C28.505 44.3201 28.1829 44.3201 27.8608 44.3201C27.5388 43.8401 26.8946 43.5201 26.4114 43.0401C26.5725 42.7201 26.7335 42.5601 26.7335 42.4001C26.8946 42.5601 27.2167 42.7201 27.3777 42.8801V42.2401C27.5388 42.0801 27.6998 41.9201 27.8608 41.9201C27.5388 41.7601 27.0556 41.4401 26.7335 41.2801L26.4114 41.4401C26.4114 41.7601 26.5725 42.0801 26.7335 42.2401C26.0893 42.2401 25.7672 41.7601 25.6062 41.4401C25.1231 41.7601 24.962 42.0801 24.962 42.5601C24.6399 42.4001 24.4789 42.0801 24.3178 41.9201V41.2801C23.8347 41.4401 23.5126 41.6001 23.1905 41.7601C23.0295 41.7601 22.8684 41.7601 23.0295 41.9201C22.5463 41.9201 22.3853 42.4001 22.3853 42.7201C22.5463 42.5601 22.7074 42.4001 22.8684 42.4001C22.8684 42.5601 23.0295 42.7201 23.1905 42.8801C22.8684 43.0401 22.3853 43.2001 22.0632 43.2001C22.3853 43.3601 22.7074 43.6801 22.8684 43.8401H22.0632C22.2242 44.0001 22.3853 44.1601 22.3853 44.3201C22.7074 44.3201 22.8684 44.6401 23.0295 44.9601C23.3515 44.9601 23.5126 45.2801 23.8347 45.4401H24.3178V45.6001L24.1568 45.9201C24.6399 46.4001 25.4452 46.2401 26.0893 46.2401L26.4114 46.5601C26.5725 46.0801 27.2167 46.2401 27.5388 46.2401C27.6998 46.0801 28.0219 45.9201 28.1829 45.7601C28.1829 45.9201 28.344 46.0801 28.505 46.0801C28.6661 45.7601 28.6661 45.2801 28.6661 44.9601C28.8271 45.1201 29.1492 45.1201 29.4713 45.1201C29.3103 45.2801 29.1492 45.4401 28.9882 45.4401V46.4001C29.3103 46.2401 29.7934 46.2401 30.2765 46.2401L30.4376 46.0801C30.5986 45.7601 30.7597 45.6001 30.9207 45.4401C30.5986 45.1201 29.6324 45.1201 29.6324 44.4801ZM8.21317 26.7201C7.56899 27.0401 6.9248 26.2401 6.28061 26.4001L6.9248 27.0401C6.76375 27.2001 6.44166 27.3601 6.28061 27.3601H7.89108C8.21317 27.2001 8.69631 27.0401 9.01841 27.0401C9.01841 26.5601 8.53527 26.5601 8.21317 26.7201Z" fill="#382C3F"/>
<path d="M17.7151 10.88C17.8762 11.2 18.0372 11.52 18.1983 11.68H18.6814C18.5204 12 18.1983 12.32 18.0372 12.64H17.7151V13.12H17.232C17.0709 13.76 16.7489 14.24 16.4268 14.72C17.0709 14.4 17.7151 14.4 18.1983 14.72C18.1983 14.56 18.3593 14.4 18.5204 14.4V13.76C18.6814 13.76 18.8425 13.92 19.0035 13.92C19.1645 13.76 19.3256 13.44 19.4866 13.28C19.3256 13.12 19.1645 12.96 19.0035 12.96C19.1645 12.96 19.3256 12.8 19.3256 12.64V12.32C19.6477 12.16 19.8087 12 19.9698 11.84V11.2L20.9361 10.72L21.0971 11.04C21.0971 10.88 21.2582 10.88 21.2582 10.88C21.4192 11.04 21.7413 11.2 21.9023 11.2C21.7413 11.04 21.5802 10.88 21.5802 10.72C21.9023 10.4 22.2244 10.08 22.7076 10.4V10.08C21.4192 10.4 19.9698 10.72 18.5204 10.88H17.7151ZM22.7076 10.08C22.8686 10.08 22.8686 10.08 23.0297 9.92001H23.1907C23.0297 9.92001 22.8686 9.92001 22.7076 9.76001V10.08Z" fill="#563A69"/>
<path d="M23.8346 19.5199C24.3177 19.0399 24.6398 18.5599 24.8008 17.9199C25.1229 17.1199 25.9282 16.4799 26.2503 15.6799C25.9282 15.3599 25.445 15.0399 25.1229 14.8799C25.445 14.7199 25.6061 14.5599 25.7671 14.5599C25.6061 14.2399 25.284 14.0799 24.9619 13.9199C25.1229 13.4399 25.6061 12.9599 26.0892 12.6399C26.2503 12.1599 26.0892 11.6799 25.9282 11.1999C25.9282 11.0399 26.0892 10.8799 26.0892 10.8799C25.7671 10.7199 24.9619 10.2399 25.445 9.75991L25.284 9.59991C24.4788 9.59991 23.9956 9.59991 23.1904 9.91991C23.5125 9.91991 23.8346 9.91991 24.1567 9.75991C24.3177 9.91991 24.3177 10.0799 24.3177 10.0799C24.1567 10.2399 23.8346 10.2399 23.6735 10.2399V10.8799C23.8346 10.7199 24.1567 10.7199 24.3177 10.7199V11.0399H23.8346C23.8346 11.5199 24.3177 11.5199 24.6398 11.6799V12.6399C24.3177 12.7999 23.6735 12.7999 23.6735 13.1199C23.5125 13.4399 23.6735 13.5999 23.6735 13.7599C23.3514 14.0799 23.1904 14.5599 23.0293 14.8799C22.8683 14.8799 22.7072 15.0399 22.5462 15.0399C22.7072 15.1999 22.8683 15.1999 23.0293 15.3599L22.5462 16.7999C22.7072 16.7999 22.8683 16.6399 23.0293 16.6399C23.5125 17.2799 23.3514 18.0799 23.0293 18.7199H21.902V19.0399C21.5799 19.0399 21.2578 19.1999 21.0968 19.3599V19.1999C20.9357 19.3599 20.7747 19.3599 20.6136 19.3599C20.2915 19.1999 19.9694 18.8799 19.6474 19.1999C19.4863 19.1999 19.3253 19.0399 19.1642 19.0399V19.5199C18.8421 19.3599 18.6811 19.1999 18.359 19.0399C18.1979 19.1999 18.1979 19.3599 18.0369 19.5199C17.7148 19.1999 17.5537 18.8799 17.3927 18.5599C17.8758 18.7199 18.52 18.8799 19.0032 18.5599C19.4863 18.7199 19.8084 18.8799 20.1305 19.0399C20.2915 18.8799 20.6136 18.8799 20.7747 18.8799C20.6136 18.7199 20.6136 18.5599 20.4526 18.5599C20.4526 18.2399 20.2915 17.7599 20.1305 17.4399L19.6474 17.9199C19.3253 17.7599 19.1642 17.5999 19.0032 17.4399L18.52 17.9199C18.52 18.0799 18.6811 18.2399 18.6811 18.2399H18.0369C18.0369 18.0799 17.8758 17.9199 17.8758 17.9199L18.359 17.4399C18.0369 17.1199 17.7148 16.6399 17.3927 16.4799H17.0706V15.8399C17.2317 15.9999 17.5537 16.1599 17.7148 16.3199V15.3599H16.2654C16.1043 15.5199 15.9433 15.8399 15.9433 15.9999H15.2991C15.2991 16.1599 15.1381 16.3199 15.1381 16.4799H14.4939C14.3328 16.7999 14.0107 17.1199 13.5276 16.9599C12.5613 17.2799 11.7561 16.7999 11.2729 16.1599C11.7561 15.9999 12.2392 15.6799 12.4003 15.1999C11.434 15.5199 10.4677 16.1599 9.50142 16.4799C9.17933 16.9599 9.01828 17.4399 9.17933 17.7599H8.53514V18.3999C7.72991 18.2399 7.08573 19.0399 6.60259 19.5199C5.31421 20.4799 4.02584 21.4399 3.5427 23.0399C3.22061 23.9999 3.86479 24.7999 4.50898 25.4399C4.67003 25.2799 4.83107 24.9599 4.83107 24.7999C4.67003 24.6399 4.34794 24.6399 4.02584 24.4799C3.8648 24.3199 3.70375 23.9999 3.70375 23.8399C3.86479 23.5199 4.18689 23.0399 4.34794 22.7199C4.83108 22.8799 5.31421 22.8799 5.79735 22.5599C5.31421 22.2399 4.67003 22.2399 4.34794 21.7599C4.67003 21.5999 5.15317 21.4399 5.47526 21.1199H6.60259C6.44154 20.9599 6.28049 20.6399 6.28049 20.6399C6.44154 20.4799 6.76363 20.3199 7.08573 20.1599C6.92468 19.9999 6.76363 19.6799 6.76363 19.5199C7.08573 19.6799 7.56886 19.8399 7.89096 19.9999C7.72991 19.9999 7.40782 20.1599 7.24677 20.1599H8.53514V21.2799C8.85724 22.0799 9.82352 21.9199 10.4677 22.0799L10.1456 22.3999C10.3067 22.5599 10.3067 22.7199 10.3067 22.8799L9.98456 22.5599C9.82352 22.7199 9.66247 22.8799 9.66247 23.0399H8.21305C8.53514 23.3599 8.85724 23.5199 9.17933 23.6799C9.17933 24.1599 9.17933 24.7999 9.82352 24.9599C9.98456 25.1199 9.98456 25.4399 9.98456 25.5999C9.66247 25.7599 9.17933 25.9199 8.85724 25.9199C9.01828 25.5999 9.17933 25.2799 9.50142 25.1199C8.85724 24.7999 8.53514 24.1599 8.21305 23.5199L7.56887 24.1599C7.89096 24.4799 8.3741 24.7999 8.69619 25.1199V25.4399C8.53514 25.2799 8.3741 25.2799 8.21305 25.2799L7.72991 25.7599C7.56886 25.4399 7.40782 25.2799 7.24677 25.1199C6.76363 25.2799 6.11945 25.4399 6.11945 26.2399H4.99212C5.31421 26.5599 5.79735 26.7199 6.11945 26.7199C5.9584 26.8799 5.79735 27.0399 5.63631 27.0399C5.79735 27.1999 6.11945 27.3599 6.28049 27.3599C6.44154 27.1999 6.76363 27.0399 6.92468 27.0399C6.60258 26.8799 6.44154 26.7199 6.28049 26.5599C6.92468 26.5599 7.56887 27.1999 8.21305 26.8799C8.53514 26.7199 9.01828 26.7199 9.01828 27.1999C9.17933 27.0399 9.50142 27.0399 9.82352 27.0399C10.1456 27.0399 10.6287 26.7199 10.9508 26.5599L10.7898 26.2399C11.1119 25.7599 11.595 25.5999 12.0782 25.4399C12.2392 25.4399 12.2392 25.2799 12.2392 25.2799C12.5613 25.1199 12.8834 25.1199 13.0444 24.9599C13.2055 24.6399 13.2055 24.3199 13.2055 24.1599H13.3665C13.5276 24.3199 13.8497 24.3199 14.0107 24.3199V23.9999C14.816 23.6799 15.4601 23.1999 16.2654 23.1999C16.2654 22.8799 16.4264 22.5599 16.4264 22.3999C16.5875 22.5599 16.7485 22.7199 16.9096 22.7199C16.9096 22.3999 17.0706 22.0799 17.0706 21.9199C17.2317 21.9199 17.3927 21.7599 17.5537 21.5999V20.9599C17.7148 21.1199 17.7148 21.2799 17.7148 21.4399C18.52 21.2799 19.1642 20.4799 19.9694 20.6399C20.7747 19.9999 21.741 19.6799 22.7072 19.5199C23.1904 19.3599 23.5125 19.5199 23.8346 19.5199ZM17.8758 20.1599V20.7999H17.3927C17.3927 20.7999 17.3927 20.9599 17.5537 20.9599H17.3927C17.3927 20.6399 17.2317 20.1599 17.2317 19.8399C17.3927 19.6799 17.7148 19.6799 17.8758 19.6799C18.0369 19.6799 18.359 19.8399 18.52 19.8399C18.1979 19.9999 18.0369 20.1599 17.8758 20.1599ZM50.7293 15.5199C50.5683 15.3599 50.2462 15.0399 49.9241 15.0399C50.0851 15.1999 50.0851 15.3599 50.0851 15.5199C50.2462 15.6799 50.5683 15.5199 50.7293 15.5199ZM40.5834 27.3599C40.9055 27.6799 41.3886 27.9999 41.8718 27.9999C42.0328 27.8399 42.0328 27.3599 42.1939 27.1999C42.0328 27.0399 41.7107 26.8799 41.5497 26.7199C41.5497 27.0399 41.5497 27.1999 41.7107 27.5199C41.3886 27.5199 40.9055 27.3599 40.5834 27.3599ZM67.3171 4.15991V4.63991C67.4782 4.31991 67.6392 4.31991 67.8003 4.31991C67.6392 4.31991 67.4782 4.31991 67.3171 4.15991Z" fill="#563A69"/>
<path d="M77.6243 3.68001H76.819C76.819 3.68001 76.819 3.52001 76.658 3.52001H75.6917C75.3696 3.68001 74.8865 3.84001 74.5644 3.68001V3.04001C73.7592 2.88001 73.4371 4.00001 72.7929 4.16001C72.4708 4.32001 72.1487 4.32001 71.9876 4.32001C71.9876 4.16001 71.9876 4.00001 71.8266 3.68001V4.32001C71.1824 4.00001 70.3772 4.32001 69.894 4.64001L69.733 4.80001C69.733 4.64001 69.5719 4.48001 69.5719 4.16001C69.2498 4.32001 68.9278 4.32001 68.6057 4.48001C68.6057 4.64001 68.4446 4.96001 68.2836 5.12001V4.48001C68.1225 4.48001 68.1225 4.48001 67.9615 4.32001C67.9615 4.48001 67.8004 4.64001 67.6394 4.80001C66.8341 5.28001 66.19 5.76001 65.2237 5.60001V5.44001H66.0289V4.96001C65.8679 5.12001 65.5458 5.60001 65.2237 5.12001V4.96001L65.3847 4.80001C65.0626 4.96001 64.7405 5.12001 64.5795 5.44001H64.9016C65.2237 6.08001 64.4184 6.08001 64.0964 5.92001V6.08001C63.7743 6.24001 63.2911 6.40001 62.969 6.56001V6.08001L62.6469 6.40001C62.6469 6.40001 62.4859 6.72001 62.3248 6.72001H62.969C62.4859 6.72001 62.0028 6.72001 61.8417 7.20001H61.6807V7.52001C62.0028 7.36001 62.4859 7.20001 62.808 7.04001C62.6469 7.20001 62.4859 7.52001 62.1638 7.84001C62.3248 7.84001 62.4859 8.00001 62.6469 8.00001C62.969 7.68001 63.2911 7.36001 63.7743 7.36001C63.7743 7.68001 63.6132 8.00001 63.4522 8.32001H62.808C62.808 8.32001 62.969 8.64001 63.1301 8.64001C62.4859 8.64001 62.1638 9.28001 62.0028 9.76001C62.1638 9.76001 62.4859 9.92001 62.6469 10.08V10.56C62.6469 10.56 62.4859 10.4 62.3248 10.4C62.1638 10.56 62.1638 10.88 62.0028 11.04C61.6807 10.72 61.6807 10.08 61.5196 9.60001H60.7144V9.92001L60.3923 10.08C60.2312 10.4 60.0702 10.56 60.0702 10.88C59.9091 10.88 59.7481 10.72 59.5871 10.72L59.265 11.04C58.6208 10.56 57.8155 10.56 57.1714 10.88C57.3324 11.2 57.4935 11.52 57.3324 12C57.0103 12 56.5272 11.84 56.2051 12C56.3661 12.48 56.8493 12.64 57.3324 12.96H56.2051C56.3661 13.28 56.5272 13.44 56.5272 13.76C56.2051 13.6 55.883 13.44 55.3998 13.44C55.0778 13.44 55.2388 13.92 55.0778 14.08C55.2388 13.92 55.5609 13.92 55.7219 13.76C55.5609 14.08 55.3998 14.4 54.9167 14.4C54.7557 14.56 54.7557 15.04 54.4336 15.04C54.2725 15.04 53.9504 14.88 53.7894 14.72V14.4C53.6283 14.4 53.4673 14.24 53.3062 14.08V13.28C53.4673 13.28 53.6283 13.12 53.7894 12.96V12.64C53.7894 12.48 53.6283 12.32 53.6283 12.16C53.6283 12.32 53.4673 12.48 53.4673 12.64C53.1452 12.64 52.8231 12.64 52.501 12.96C52.501 13.12 52.6621 13.28 52.8231 13.44C52.501 13.44 52.0179 13.6 51.6958 13.76L52.0179 13.44C51.6958 13.6 51.2126 13.76 50.8905 13.92C50.8905 13.92 51.0516 14.08 51.0516 14.24C51.3737 14.24 51.6958 14.08 52.0179 14.24L52.1789 14.56V14.88C52.1789 15.04 52.0179 15.04 51.8568 15.2V16C51.8568 16 51.6958 16 51.5347 16.16C51.5347 16 51.3737 15.84 51.2126 15.52C50.4074 15.52 50.0853 16.32 49.7632 16.8C49.2801 16.96 48.958 17.28 48.6359 17.6C48.6359 17.6 48.4748 17.44 48.4748 17.28C48.3138 17.92 47.8307 18.4 47.3475 18.72C47.0254 18.72 46.7033 18.56 46.5423 18.56C46.3812 18.56 46.2202 18.72 46.0591 18.88C46.0591 18.72 45.8981 18.56 45.8981 18.4C46.0591 18.4 46.2202 18.24 46.5423 18.08C46.8644 17.92 47.0254 17.76 47.1865 17.28V16.64C46.5423 17.44 45.415 17.76 44.7708 18.56C43.8045 19.52 42.5161 20.32 41.7109 21.28H41.0667C41.0667 21.44 40.9057 21.6 40.9057 21.76H40.7446L40.4225 22.08L39.9394 22.4C39.9394 21.92 39.9394 21.28 39.6173 20.8C39.4562 20.48 39.1341 20.48 38.8121 20.32H38.1679C38.1679 20.32 38.49 20.48 38.49 20.64C38.651 20.96 38.8121 21.44 39.1341 21.76C39.1341 21.76 38.9731 21.92 38.9731 22.08C38.49 21.92 37.8458 21.76 37.5237 22.4C37.6847 22.56 37.8458 22.88 38.1679 23.04C38.0068 23.04 37.6847 23.04 37.5237 23.2C38.3289 23.2 38.651 22.72 39.2952 22.24C39.2952 22.56 39.4562 22.88 39.6173 23.04C39.4562 23.36 39.1342 23.84 39.2952 24.16C39.4562 24.64 39.4562 25.28 39.2952 25.76C39.2952 25.92 39.2952 26.08 39.1341 26.24H39.2952C39.2952 26.4 39.1341 26.4 39.1341 26.56V27.04C39.1341 27.04 38.9731 27.2 38.8121 27.2C38.8121 27.2 38.8121 27.36 38.9731 27.36C38.9731 27.52 38.8121 27.68 38.8121 27.84C39.1341 27.84 39.2952 28 39.6173 28C39.9394 27.84 40.2615 27.68 40.5836 27.68L40.7446 27.52C40.5836 27.52 40.4225 27.52 40.1004 27.68C40.2615 27.36 40.2615 26.88 40.2615 26.56H40.5836C40.5836 26.4 40.7446 26.4 40.7446 26.24L41.0667 26.08C41.2278 25.92 41.3888 25.76 41.7109 25.6C41.7109 25.92 41.5498 26.4 41.5498 26.72H42.194C42.033 26.72 41.8719 26.56 41.7109 26.4C42.3551 26.08 42.9993 25.76 43.8045 25.76C44.6097 25.76 44.9318 25.12 45.7371 24.96C45.7371 24.8 45.576 24.64 45.415 24.64C46.0592 24.64 46.5423 24.48 47.0254 24.16V23.2L46.0591 23.68V23.36C46.0591 23.36 45.7371 23.36 45.7371 23.2V22.88H46.5423C46.5423 22.88 46.3812 22.72 46.3812 22.56C47.0254 22.4 47.5086 22.56 47.9917 22.72V23.04C48.3138 23.2 48.4748 23.36 48.7969 23.52V24.32C49.2801 23.68 49.6022 23.2 49.9243 22.56H50.5685V21.92C50.2464 22.24 49.7632 22.4 49.4411 22.88C49.2801 23.2 48.958 23.2 48.6359 23.36V21.92L49.119 21.44C48.7969 21.44 48.4748 21.44 48.1528 21.28C48.4748 20.16 49.6022 20 50.4074 19.36C51.2126 19.04 51.5347 18.24 52.34 17.76C52.34 17.76 52.501 18.08 52.501 18.24C53.1452 18.4 53.6283 18.56 54.2725 18.24L53.9504 17.92C53.9504 17.76 54.1115 17.76 54.2725 17.6C54.2725 17.6 54.4336 17.92 54.5946 18.08V17.76C54.1115 17.28 54.5946 16.64 54.7557 16.16C55.0778 16.48 55.2388 16.8 55.5609 16.96C55.883 16.8 56.3661 16.64 56.6882 16.64C56.6882 16.32 56.6882 16 56.8493 15.84H56.2051C56.3661 15.68 56.6882 15.52 56.8493 15.52C56.8493 15.68 57.0103 15.84 57.0103 16C57.6545 15.36 58.7818 15.2 59.1039 14.24H60.2312C60.3923 13.6 60.7144 13.12 61.1975 12.8C61.5196 12.8 61.8417 12.96 62.0028 12.64C62.3248 12.16 62.4859 11.52 62.808 11.04C63.1301 11.04 63.4522 11.04 63.7743 10.88C63.7743 10.72 63.6132 10.4 63.6132 10.24C63.7743 10.24 63.9353 10.24 64.0964 10.08V10.4C64.0964 10.4 64.2574 10.4 64.4185 10.56V9.92001C64.9016 10.24 65.5458 10.4 66.19 10.24L66.5121 10.56C66.6731 10.56 66.8341 10.4 66.9952 10.4C67.3173 9.92001 67.8004 9.76001 68.4446 9.60001L68.9278 8.64001C69.2498 8.64001 69.5719 8.48001 69.733 8.32001H70.0551C70.0551 8.16001 70.2161 8.00001 70.3772 7.84001H71.0214C71.3434 7.84001 71.6655 7.68001 71.8266 7.68001L71.9876 7.36001C71.9876 7.20001 71.8266 6.88001 71.8266 6.72001V6.24001C71.9876 6.24001 72.1487 6.08001 72.3097 6.08001C72.4708 6.08001 72.6318 5.92001 72.7929 5.92001C72.9539 5.76001 73.115 5.60001 73.437 5.60001C74.0812 5.60001 74.2423 6.24001 74.5644 6.72001C74.7254 6.56001 74.8865 6.40001 74.8865 6.24001H75.5307V5.76001C75.5307 5.76001 75.3696 5.60001 75.3696 5.44001H75.8527C75.8527 4.32001 77.1411 4.32001 77.9464 4.32001C77.6243 4.16001 77.6243 4.00001 77.6243 3.68001ZM42.3551 22.24C42.033 22.24 42.194 21.76 42.3551 21.76C42.6772 21.6 42.6772 22.24 42.3551 22.24ZM43.1603 21.76H42.8382V21.44H43.3214C43.4824 21.28 43.6435 20.96 43.8045 20.8C43.8045 21.28 43.4824 21.44 43.1603 21.76ZM44.1266 20C43.9655 20.16 43.8045 20.32 43.6434 20.64C43.1603 20.8 42.9993 21.28 42.5161 21.28C42.6772 20.8 43.3214 20.8 43.6434 20.64V20.16C44.1266 20.16 44.2876 19.68 44.6097 19.36H45.2539C44.9318 19.84 44.4487 19.84 44.1266 20ZM67.8004 4.32001C67.8004 4.32001 67.9615 4.32001 67.8004 4.32001C67.9615 4.32001 67.9615 4.32001 67.8004 4.32001C67.9615 4.32001 67.8004 4.32001 67.8004 4.32001ZM23.6737 40.16C23.1905 40.32 23.1905 40.96 22.8685 41.28C22.5464 41.12 22.3853 40.8 22.3853 40.48C22.0632 40.8 21.7411 41.12 21.5801 41.6C21.5801 41.92 21.7411 42.4 22.0632 42.72C22.3853 42.72 22.8685 42.56 23.1905 42.4C23.0295 42.24 22.8685 42.08 22.8685 41.92C22.7074 41.92 22.5464 42.08 22.3853 42.24C22.5464 41.92 22.5464 41.44 23.0295 41.44C23.1905 41.44 23.3516 41.44 23.5126 41.6C23.8347 41.44 24.1568 41.28 24.64 41.12C24.1568 40.96 23.9958 40.48 23.6737 40.16Z" fill="#563A69"/>
<path d="M39.7781 39.52C39.617 39.52 39.456 39.52 39.2949 39.68C39.456 39.36 39.617 38.88 39.617 38.4C39.2949 38.4 39.1339 38.72 38.8118 39.04C38.8118 38.88 38.8118 38.72 38.6507 38.56C38.8118 38.56 39.1339 38.4 39.456 38.4C39.1339 37.92 38.6507 38.08 38.1676 38.08L37.6845 38.56C37.6845 38.72 37.8455 38.88 38.0066 39.04C37.3624 38.72 36.7182 38.72 36.074 39.04C35.5909 38.72 35.2688 38.88 34.7856 39.04C34.3025 39.04 33.6583 38.88 33.1752 38.72C32.8531 39.04 32.531 39.36 32.2089 39.52C32.2089 39.36 32.3699 39.04 32.3699 38.88H32.8531C32.8531 38.4 33.0141 37.76 32.692 37.28C32.531 36.64 31.7258 36.64 31.2426 36.64C31.0816 36.96 30.7595 37.28 30.5984 37.44C30.2763 37.44 29.9542 37.12 29.9542 36.64C29.9542 36.8 29.7932 36.96 29.6321 37.12H28.8269C29.3101 37.44 29.7932 37.6 30.1153 37.92C29.4711 37.92 28.8269 37.6 28.0217 37.6C27.8606 37.6 27.6996 37.6 27.5385 37.44C27.5385 37.28 27.6996 37.12 27.6996 36.96C27.6996 36.48 27.6996 35.84 27.3775 35.36C27.2164 35.52 27.0554 35.68 27.0554 35.84C26.7333 35.84 26.2502 36.16 25.9281 36.32H25.2839V35.52C24.9618 35.52 24.8008 35.68 24.4787 35.84C24.1566 35.84 23.8345 35.68 23.6734 35.52C23.8345 35.36 24.1566 35.2 24.3176 35.04C24.1566 35.04 23.9955 35.04 23.8345 34.88C24.1566 34.88 24.4787 34.72 24.8007 34.56H25.2839C25.2839 34.56 25.2839 34.24 25.4449 34.24H24.4787V33.28C23.9955 33.92 23.3513 34.56 23.3513 35.52C23.0292 35.2 22.7071 34.88 22.224 34.56C22.224 34.72 22.063 34.72 21.9019 34.88C21.7409 35.2 21.5798 36.16 22.224 36V36.32C21.9019 36.16 21.5798 36 21.2577 36C21.2577 36.32 21.2577 36.64 21.5798 36.96C21.4188 36.96 21.2577 37.12 21.0967 37.28V38.24C21.4188 38.56 21.9019 38.88 22.224 39.2C22.063 39.2 21.9019 39.36 21.7409 39.52C21.7409 39.84 21.5798 40 21.5798 40.32H21.7409C22.063 40 22.3851 39.68 22.8682 39.52V40.48L23.1903 40.16C23.3513 40.16 23.6734 40.16 23.8345 40V39.68C23.9955 39.68 24.1566 39.52 24.3176 39.36V39.84C24.3176 39.84 24.4787 40 24.6397 40V41.76C24.8007 41.92 24.9618 42.24 25.2839 42.4C25.2839 41.92 25.4449 41.6 25.9281 41.28C26.0891 41.6 26.4112 42.08 27.0554 42.08C26.8944 41.92 26.7333 41.6 26.7333 41.28L27.0554 41.12C27.3775 41.28 27.8606 41.44 28.1827 41.76C28.0217 41.76 27.8606 41.92 27.6996 42.08V42.72C27.5385 42.56 27.2164 42.4 27.0554 42.24C27.0554 42.4 26.8944 42.56 26.7333 42.88C27.2164 43.36 27.8606 43.68 28.1827 44.16C28.5048 44.16 28.8269 44.16 29.3101 44.32H29.9542C29.9542 44.96 30.9205 44.96 31.2426 45.28C31.0816 45.44 30.9205 45.6 30.7595 45.92V46.56C31.0816 46.56 31.2426 46.4 31.4037 46.24C31.8868 46.24 32.3699 46.08 32.8531 46.08L32.3699 45.6C32.3699 45.6 32.692 45.6 32.692 45.44C33.0141 45.28 33.3362 45.12 33.4973 44.96C33.1752 44.96 32.8531 44.96 32.531 44.8C32.692 44.8 32.8531 44.64 33.0141 44.48C33.3362 44.32 33.8194 44.16 34.1414 43.84C34.1414 43.68 34.1414 43.52 33.9804 43.36C34.3025 43.2 34.6246 42.88 34.9467 42.56C34.9467 42.72 35.1077 42.88 35.1077 43.04L35.5909 42.56C35.913 42.56 36.2351 42.56 36.5571 42.4C37.6845 41.92 38.1676 40.32 39.456 40.32V40C39.1339 40 39.456 39.84 39.7781 39.52ZM21.7409 37.92C21.4188 37.76 21.7409 37.12 22.063 37.28C22.224 37.44 21.9019 37.76 21.7409 37.92ZM23.1903 45.6C22.8682 45.6 22.063 45.92 22.063 45.44H21.7409C21.5798 45.28 21.5798 45.12 21.5798 44.96C21.5798 45.12 21.5798 45.44 21.7409 45.6C22.3851 45.92 23.0292 46.24 23.6734 46.24V46.08C23.6734 45.92 23.8345 45.92 23.8345 45.92L23.9955 45.6C23.6734 45.44 23.0292 45.28 22.5461 45.28C22.7071 45.44 23.0292 45.6 23.1903 45.6ZM22.8682 43.2C22.7071 43.68 22.5461 44.16 23.0292 44.16C23.3513 44 23.5124 43.68 23.5124 43.36H23.9955C23.8345 43.04 23.1903 43.2 22.8682 43.2Z" fill="#563A69"/>
<path d="M27.6997 45.92C27.6997 45.76 27.5386 45.6 27.3776 45.6C27.0555 45.76 26.8944 45.92 26.7334 46.08L27.6997 45.92V46.24H26.7334V46.88C27.3776 46.72 27.8607 46.72 28.5049 46.56V45.44C28.666 45.28 28.827 45.12 28.988 45.12C28.827 44.96 28.5049 44.96 28.1828 44.96C28.1828 45.28 28.1828 45.76 27.6997 45.92Z" fill="#563A69"/>
<path d="M72.31 6.71997C72.6321 7.03997 72.9542 7.19997 73.1153 7.35997C73.1153 7.67997 72.9542 7.83997 72.9542 8.15997C73.1153 7.83997 73.4374 7.67997 73.7594 7.51997C73.4374 7.03997 72.9542 6.71997 72.31 6.71997ZM27.7001 8.63997H25.9286C26.2507 8.63997 26.5728 8.79997 26.8949 8.79997L27.0559 8.95997C27.378 9.11997 27.7001 8.95997 27.7001 8.63997L27.8612 8.95997V9.43997C28.3443 9.43997 28.6664 9.27997 29.1496 9.27997C28.8275 8.63997 28.1833 8.63997 27.7001 8.63997ZM72.149 8.63997C71.5048 9.11997 71.0217 9.43997 70.3775 9.75997V10.08C71.1827 9.59997 72.149 9.11997 72.9542 8.47997V8.31997H71.9879C71.9879 8.47997 71.9879 8.63997 72.149 8.63997ZM73.9205 11.68C73.9205 12 73.9205 12.32 73.7594 12.8C74.0815 12.64 74.4036 12.48 74.5647 12.16L74.0815 12.32V12.16H74.4036C74.5647 11.68 75.2089 11.68 75.531 11.52C75.531 11.36 75.692 11.2 75.692 11.2C75.0478 11.36 74.5647 11.52 73.9205 11.68ZM65.8682 13.12L65.7071 13.44H66.0292C66.1903 13.28 66.3513 13.12 66.6734 12.96C66.3513 12.96 66.1903 13.12 65.8682 13.12ZM26.2507 12.96C25.9286 13.12 25.7676 13.44 25.7676 13.6C26.0897 13.76 26.5728 13.6 26.8949 13.6C26.7339 13.28 26.5728 13.12 26.2507 12.96ZM66.1903 12.64C66.1903 12.64 66.5124 12.8 66.6734 12.96L66.9955 12.64H66.1903ZM66.6734 12.96C66.6734 12.96 66.8344 12.96 66.6734 12.96C66.8344 12.96 66.6734 12.96 66.6734 12.96ZM64.2577 14.56C63.9356 14.72 64.2577 15.04 64.5798 15.04L64.7408 14.88C64.7408 14.56 64.4187 14.4 64.2577 14.56ZM66.5123 16.8V17.28C66.6734 17.28 66.9955 17.12 67.3176 17.12L67.8007 16.64V16.32C67.4786 16.64 66.9955 16.8 66.6734 17.12C66.6734 16.96 66.5123 16.8 66.5123 16.8ZM35.7525 24V23.04C35.4304 23.2 35.2693 23.2 35.1083 23.36C34.7862 23.36 34.303 23.2 33.9809 23.04C33.9809 23.36 34.142 23.68 34.303 24L34.6251 23.68L35.5914 24.16V24.48C35.7525 24.32 35.9135 24.32 35.9135 24.32C35.7525 24.32 35.7525 24 35.7525 24ZM50.5687 30.08C50.4077 30.24 50.4077 30.56 50.2467 30.88C49.9246 30.88 49.7635 30.72 49.6025 30.72V31.2C49.1193 31.36 48.7972 31.68 48.7972 32.16H49.4414C49.6025 32 49.7635 31.84 49.7635 31.68C49.7635 31.52 49.6025 31.2 49.7635 31.04C49.9246 31.04 50.0856 31.36 50.0856 31.36L51.535 29.92C51.535 29.76 51.2129 29.6 51.2129 29.6V30.08H50.5687ZM56.0443 24.32C55.8833 24 55.5612 23.84 55.2391 23.68C55.078 24 55.078 24.16 55.078 24.16C54.917 24.16 54.756 24 54.5949 24C54.756 24.32 54.756 24.48 54.756 24.8C54.5949 25.12 54.4339 25.6 54.2728 25.92C54.1118 26.08 53.7897 26.08 53.4676 26.08V26.24C53.6286 26.24 53.9507 26.4 53.7897 26.72C53.6286 26.88 53.6286 26.88 53.6286 27.04C53.4676 27.2 53.3065 27.2 53.3065 27.2V27.36C53.4676 27.52 53.4676 27.84 53.4676 28L53.3065 27.84C52.9844 28.16 52.8234 28.64 52.5013 28.96C52.5013 28.64 52.5013 28.48 52.6623 28.32C52.8234 28.16 52.8234 27.84 52.8234 27.84C53.1455 27.68 52.9844 27.36 52.9844 27.04C52.9844 26.88 53.1455 26.88 53.1455 26.88L52.8234 26.72C52.8234 27.36 52.3403 28 52.0182 28.48C51.8571 28.48 51.6961 28.32 51.535 28.32C51.374 28.8 51.2129 29.12 51.2129 29.6C51.374 29.28 51.535 29.12 51.8571 29.12V29.76C52.1792 29.12 52.8234 28.8 53.3065 28.32C53.7897 28.16 53.9507 27.68 53.9507 27.2H54.5949C54.756 26.88 54.917 26.4 54.5949 26.08C54.756 25.76 54.917 25.44 55.4001 25.44C55.2391 25.28 55.078 25.12 55.078 24.96C55.2391 24.64 55.7222 24.48 56.0443 24.32ZM26.2507 27.52C26.2507 27.68 26.4118 27.84 26.4118 28L26.0897 28.32V29.44C26.5728 29.12 27.056 28.8 27.378 28.32C27.217 28.16 27.0559 28 27.0559 27.84C27.217 27.84 27.378 27.68 27.378 27.68C27.056 27.52 26.5728 27.52 26.2507 27.52ZM28.6664 26.88C28.5054 26.88 28.3443 26.72 28.3443 26.72V27.52C28.3443 27.36 28.1833 27.2 28.0222 27.2C27.7001 27.52 27.8612 28 27.7001 28.32C27.5391 28.64 27.5391 28.8 27.7001 28.96C28.0222 28.96 28.0222 28.32 28.3443 28.16H28.8275C28.5054 27.84 28.6664 27.36 28.6664 26.88ZM47.0257 32.8C47.0257 32.96 47.0257 33.12 46.8647 33.44C46.8647 33.6 46.8647 33.92 46.7036 34.08C46.7036 34.24 46.8647 34.4 46.8647 34.56C47.6699 34.08 47.5089 33.28 47.992 32.96C47.831 32.96 47.6699 32.8 47.6699 32.8H47.0257Z" fill="#563A69"/>
<path d="M71.3431 3.84C71.1821 3.84 70.86 3.68 70.699 3.68C71.3431 3.36 71.9873 3.36 72.6315 3.36H72.7926C72.9536 3.36 73.1147 3.52 73.1147 3.52C73.4367 3.04 74.0809 2.88 74.5641 2.88V3.68C74.8862 3.84 75.3693 3.68 75.6914 3.52V3.2C75.3693 3.2 75.0472 3.04 74.8862 2.88C75.2083 2.72 75.6914 2.56 76.0135 2.56C76.1745 2.4 76.1745 2.08 76.3356 1.92C76.6577 2.08 76.9798 2.08 77.3019 2.08C77.624 2.08 77.946 1.6 77.785 1.28L78.1071 1.6V0.960001H78.2681V1.44C78.5902 1.28 79.0734 1.12 79.2344 0.639999H80.2007V0C79.0734 0.32 77.785 0.48 76.6577 1.28C76.4966 1.28 76.3356 1.28 76.0135 1.44V1.92C75.8524 1.44 75.2083 1.92 74.8862 1.92C74.7251 1.92 74.7251 2.24 74.7251 2.24C74.5641 2.08 74.403 2.08 74.242 2.08V2.4H73.5978C73.5978 2.56 73.4367 2.72 73.4367 2.88C73.1146 2.88 72.9536 3.04 72.7926 3.04L72.9536 2.56H71.9873V3.04H71.8263C71.8263 2.72 71.8263 2.4 71.6652 2.24V3.04C71.3431 2.88 70.699 3.04 70.699 3.36H70.3769C70.2158 3.52 70.2158 3.68 70.2158 3.68C69.7327 3.84 70.0548 3.2 70.0548 3.04C69.8937 3.04 69.7327 3.2 69.7327 3.2V3.68C69.7327 3.84 69.5716 4 69.5716 4C70.2158 4.16 70.699 4 71.3431 3.84ZM70.2158 15.2V15.36C70.3769 15.36 70.5379 15.2 70.5379 15.2H70.2158ZM82.9385 5.76H82.2943C82.1333 5.28 82.1333 4.8 82.1333 4.16C81.9722 4.16 81.8112 4 81.8112 4C81.9722 4.48 81.9722 4.8 81.8112 4.64C81.6501 4.48 81.328 4.48 81.167 4.48H79.8786V4.96H79.5565C79.5565 4.8 79.5565 4.64 79.3955 4.48C79.5565 4.48 79.8786 4.32 80.0396 4.32V3.68L79.7176 3.84C79.5565 4 79.2344 4 79.0734 4C79.2344 3.84 79.3955 3.68 79.5565 3.68V3.36C79.3955 3.68 79.0734 3.84 78.9123 4C78.9123 3.36 79.5565 3.2 79.8786 2.88C79.3955 2.56 79.0734 2.4 78.5902 2.24L78.1071 2.72H77.624C77.624 2.88 77.785 3.04 77.785 3.2C77.624 3.36 77.4629 3.52 77.4629 3.68L77.624 3.84V4.32C78.1071 4.48 78.4292 4.64 78.9123 4.64H79.3955C79.3955 4.8 79.2344 4.8 79.2344 4.8H78.7513C78.9123 4.96 78.9123 5.28 79.0734 5.44H78.7513V6.56C78.5902 6.56 78.2681 6.4 78.1071 6.4C77.785 6.56 77.624 6.72 77.3019 6.88C76.8187 6.88 76.4966 6.72 76.1745 6.72C76.1745 6.88 76.0135 7.04 76.0135 7.04C75.6914 7.2 75.3693 7.36 75.0472 7.36C75.3693 8 75.3693 8.48 75.0472 9.12H76.4966C75.8524 9.28 75.2083 9.76 74.5641 9.44V9.76C74.403 9.6 74.242 9.28 74.0809 9.12C74.0809 9.6 74.403 10.24 74.5641 10.72C74.8862 10.56 75.2083 10.4 75.6914 10.4H75.8524C75.3693 10.24 75.8524 9.92 76.0135 10.24C76.3356 10.4 76.4966 10.4 76.6577 10.56C76.8187 10.4 76.9798 10.4 76.9798 10.4C76.8187 10.4 76.6577 10.24 76.6577 10.24C76.9798 10.4 77.3019 10.08 77.3019 9.76C77.3019 9.92 77.624 9.92 77.624 9.92C78.1071 9.6 78.5902 9.12 79.2344 9.12C79.5565 8.96 79.8786 8.8 80.2007 8.48C79.8786 8.48 79.5565 8.48 79.2344 8.32C79.8786 8 80.3617 7.52 81.0059 7.36C81.328 7.2 81.9722 7.04 82.1333 6.72H82.6164C82.9385 6.4 83.4216 5.92 83.9048 5.76V5.44C83.7437 5.76 83.2606 5.76 82.9385 5.76ZM67.1559 5.44C66.9949 5.28 66.6728 5.12 66.5117 5.12V5.6C66.3507 5.28 66.1897 4.96 65.8676 4.96C65.7065 5.28 65.7065 5.6 65.5455 5.92V6.08H64.7402V6.24C65.7065 6.4 66.3507 5.92 67.1559 5.44Z" fill="#78578F"/>
<path d="M73.5985 10.8799V10.2399C73.4375 10.2399 73.2764 10.3999 73.2764 10.3999C73.1154 10.2399 72.9543 10.0799 72.9543 9.91992C72.7933 10.2399 72.6322 10.7199 72.4712 11.1999C72.3101 11.0399 72.1491 10.8799 72.1491 10.7199C71.666 10.7199 71.0218 11.0399 70.5386 11.3599C70.5386 11.5199 70.6997 11.8399 70.6997 11.8399C71.0218 11.8399 71.3439 11.9999 71.666 11.9999H72.1491C71.827 12.3199 71.5049 12.6399 71.1828 12.7999C71.3439 12.6399 71.5049 12.3199 71.666 11.9999C71.1828 11.9999 70.5386 12.3199 70.2165 12.6399C70.0555 12.7999 70.0555 12.9599 70.0555 12.9599C69.7334 12.9599 69.2503 12.7999 68.9282 12.7999H68.7671C68.7671 12.9599 68.6061 13.2799 68.6061 13.4399L68.1229 12.9599C67.8008 12.9599 67.4787 13.1199 67.1566 13.1199C66.8346 13.4399 66.5125 13.7599 66.1904 13.9199C66.5125 14.0799 66.6735 14.2399 66.8346 14.2399C66.8346 13.7599 67.3177 13.9199 67.3177 14.2399H67.6398V13.7599C67.8008 13.9199 68.1229 13.9199 68.284 13.9199C68.284 14.5599 67.8008 15.0399 67.3177 15.3599C67.1566 15.5199 66.9956 15.5199 66.9956 15.6799C66.9956 15.8399 66.6735 15.8399 66.6735 15.8399C66.5125 15.9999 66.3514 16.1599 66.3514 16.3199V17.1199C66.1904 17.4399 65.7072 17.1199 65.5462 17.1199C65.3851 17.2799 65.063 17.4399 64.902 17.4399V16.9599C64.2578 17.1199 64.5799 17.9199 64.2578 18.2399H64.5799C65.063 18.0799 65.3851 17.7599 65.5462 17.4399H66.5125C66.5125 17.2799 66.6735 16.9599 66.6735 16.7999C66.8346 16.7999 66.9956 16.6399 66.9956 16.6399V17.2799C67.1566 16.9599 67.8008 16.7999 68.1229 16.6399V16.3199H67.6398C67.4787 16.3199 67.1566 16.4799 66.8346 16.4799V15.9999C66.8346 16.1599 66.9956 16.3199 66.9956 16.3199C67.3177 16.1599 67.8008 15.8399 68.1229 15.5199V15.8399C68.284 15.3599 68.6061 15.0399 69.0892 15.0399C69.0892 15.3599 68.9282 15.6799 68.9282 15.9999H69.4113L69.7334 15.6799H69.4113C69.2503 15.0399 70.0555 14.7199 70.0555 14.0799H70.2165C70.2165 13.7599 70.3776 13.5999 70.5386 13.2799C70.6997 12.9599 71.0218 13.2799 71.0218 13.4399C71.3439 13.1199 71.666 12.7999 72.1491 12.4799C72.4712 12.3199 72.9543 11.9999 72.9543 11.6799H73.7596C73.5985 11.8399 73.2764 11.9999 73.2764 12.1599C73.4375 11.9999 73.5985 11.9999 73.7596 11.9999C73.9206 11.6799 73.9206 11.1999 73.9206 10.8799C74.0817 10.8799 74.4037 10.7199 74.5648 10.7199C74.2427 10.5599 74.0816 10.3999 73.7596 10.2399C73.7596 10.5599 73.5985 10.7199 73.5985 10.8799Z" fill="#78578F"/>
<path d="M69.7334 15.52C69.8945 15.52 70.0555 15.52 70.2166 15.36C70.0555 15.52 69.8945 15.52 69.7334 15.52ZM71.827 14.24C71.666 14.4 71.5049 14.56 71.5049 14.72C71.666 14.72 71.666 14.56 71.827 14.56V14.24ZM70.5387 14.24C70.6997 14.24 70.6997 14.56 70.6997 14.56V14.08H70.2166V14.4C70.3776 14.24 70.5387 14.24 70.5387 14.24ZM71.1828 14.88C71.1828 14.88 71.3439 14.72 71.5049 14.72H70.6997C70.5387 14.88 70.5387 15.2 70.5387 15.2H71.0218C71.0218 15.04 71.1828 14.88 71.1828 14.88ZM54.434 11.52C55.2392 11.04 56.2055 10.88 56.8497 10.08C57.6549 10.08 58.1381 9.59998 58.7823 9.11998C59.1043 8.79998 59.5875 9.11998 59.9096 9.11998C60.2317 8.63998 60.7148 8.15998 61.198 7.83998H61.359L61.0369 7.51998C60.7148 7.51998 60.2317 7.35998 60.2317 7.83998C60.0706 7.83998 59.7485 7.83999 59.4264 8.15999C59.5875 8.31999 59.5875 8.47998 59.7485 8.63998L59.2654 8.15999C58.4602 8.31999 57.816 9.11998 57.0107 9.43998C56.2055 9.91998 55.5613 10.56 54.7561 10.88C54.434 10.88 54.2729 11.04 54.1119 11.2C54.2729 11.2 54.434 11.52 54.434 11.52ZM20.9363 19.84C21.0974 19.68 21.2584 19.68 21.4195 19.68V19.84C21.7416 19.68 21.9026 19.52 22.2247 19.52V19.2H23.352C23.6741 18.4 23.8352 17.76 23.352 17.12C23.191 17.12 23.0299 17.28 22.8689 17.28L23.352 15.84C23.191 15.68 23.0299 15.68 22.8689 15.52C23.0299 15.52 23.191 15.36 23.352 15.36C23.5131 14.88 23.8352 14.56 23.9962 14.24V13.6C24.1572 13.12 24.6404 13.12 24.9625 13.12V12.16C24.6404 12 24.1572 12 24.1572 11.52H24.6404V11.2C24.4793 11.36 24.1572 11.36 23.9962 11.36V10.72C24.1572 10.56 24.4793 10.56 24.6404 10.56C24.4793 10.4 24.4793 10.24 24.4793 10.24H23.0299C23.0299 10.56 23.0299 10.72 23.191 11.36C22.8689 11.04 22.3857 11.52 22.0636 11.68C22.2247 11.84 22.3857 12 22.3857 12.16C22.2247 12 21.9026 11.84 21.7416 11.84C21.7416 12 21.5805 12 21.5805 12L21.4195 11.68C21.0974 11.84 20.6142 11.84 20.4532 12.16V12.8C20.1311 12.96 19.97 13.12 19.809 13.28V13.6C19.6479 13.6 19.4869 13.76 19.4869 13.92C19.6479 13.92 19.809 14.08 19.97 14.24C19.809 14.4 19.6479 14.72 19.4869 14.88C19.3259 14.88 19.1648 14.72 19.0038 14.72V15.36C19.0038 15.52 18.8427 15.68 18.6817 15.68C18.0375 15.2 17.3933 15.36 16.9102 15.68H17.7154V16.64C17.5543 16.48 17.2322 16.32 17.0712 16.16V16.8H17.3933L18.3596 17.76L17.8764 18.24C17.8764 18.4 18.0375 18.56 18.0375 18.56H18.6817C18.6817 18.4 18.5206 18.24 18.5206 18.24L19.0038 17.76C19.3259 17.92 19.4869 18.08 19.6479 18.24L20.1311 17.76C20.2921 18.08 20.4532 18.56 20.4532 18.88C20.4532 19.04 20.6142 19.2 20.7753 19.2C20.6142 19.36 20.2921 19.36 20.1311 19.36C19.6479 19.2 19.3259 19.04 19.0038 18.88C18.5206 19.2 17.8764 19.04 17.3933 18.88C17.5543 19.36 17.8764 19.68 18.1985 20C17.8764 20.16 17.5543 20.16 17.2323 20.16C17.2323 20.48 17.3933 20.96 17.3933 21.28H18.1985V20.64C18.5206 20.48 18.6817 20.32 18.8427 20.32C18.6817 20.32 18.3596 20.16 18.1985 20.16C18.3596 20 18.5206 19.68 18.6817 19.52C19.0038 19.68 19.1648 19.84 19.4869 20V19.52C19.6479 19.52 19.809 19.68 19.97 19.68C20.2921 19.36 20.6142 19.52 20.9363 19.84ZM46.7038 17.28L46.8648 17.12L46.7038 17.28ZM47.8311 18.4C47.8311 18.56 47.9921 18.72 47.9921 18.72C48.3142 18.4 48.6363 18.08 49.1195 17.92C49.4416 17.44 49.7636 16.64 50.5689 16.64C50.7299 16.64 50.891 16.48 50.891 16.48V16C50.891 15.84 51.2131 15.84 51.2131 15.84V16.16C51.3741 16 51.5352 16 51.5352 15.84V15.52H51.2131C50.891 15.52 51.2131 15.04 51.3741 15.04C51.052 14.88 50.7299 15.04 50.4078 15.04C50.4078 14.88 50.2468 14.72 50.2468 14.72C50.5689 14.56 51.052 14.4 51.3741 14.24L51.8573 13.76C52.1793 13.6 52.5014 13.44 52.8235 13.44C52.8235 13.28 52.9846 13.12 52.9846 12.96C53.3067 12.64 53.9509 12.32 54.273 11.84V11.52C53.1456 11.68 52.6625 12.8 51.5352 12.8C51.5352 12.8 51.5352 13.12 51.2131 13.92C50.891 14.08 50.5689 14.4 50.2468 14.56C50.2468 14.4 50.0857 14.4 50.0857 14.4C50.0857 14.72 49.9247 15.04 49.7636 15.2C49.6026 15.2 49.2805 15.36 49.1195 15.36C48.7974 15.84 48.1532 16 47.8311 16.48C47.8311 16.64 47.3479 16.64 47.1869 16.64C47.1869 16.8 47.0259 16.96 47.0259 17.12C47.1869 17.12 47.1869 16.96 47.348 16.96C47.509 17.44 47.0259 18.08 47.0259 18.56L47.1869 18.88C46.8648 19.04 46.7038 19.04 46.5427 19.04C46.3817 19.36 46.0596 19.52 45.8985 19.68C46.0596 19.68 46.3817 19.84 46.7038 19.84C47.1869 19.52 47.67 19.04 47.8311 18.4Z" fill="#78578F"/>
<path d="M17.393 17.7599C17.0709 17.7599 16.7488 17.5999 16.4267 17.4399V18.0799C16.7488 18.2399 17.0709 18.3999 17.393 18.3999V17.7599ZM8.53541 21.4399V20.3199H7.24704C7.40808 20.3199 7.73018 20.1599 7.89122 20.1599C7.56913 19.8399 7.24704 19.6799 6.7639 19.6799C6.92495 19.9999 6.92494 20.1599 6.92494 20.3199C6.60285 20.4799 6.4418 20.6399 6.11971 20.7999C6.28076 20.9599 6.4418 21.2799 6.4418 21.2799C6.11971 21.4399 5.63657 21.2799 5.31448 21.2799C4.99238 21.5999 4.67029 21.7599 4.18715 21.9199C4.50925 22.3999 5.15343 22.5599 5.63657 22.7199C5.31448 22.8799 4.67029 22.8799 4.18715 22.8799C4.02611 23.3599 3.86506 23.6799 3.54297 23.9999C3.70402 24.1599 3.70401 24.4799 3.86506 24.6399C4.02611 24.7999 4.3482 24.9599 4.67029 24.9599C4.50925 25.1199 4.3482 25.4399 4.3482 25.5999L4.99239 26.2399H6.11971C6.11971 25.5999 6.7639 25.2799 7.24704 25.2799C7.40808 25.5999 7.56913 25.7599 7.73018 25.9199L8.21332 25.4399C8.37436 25.5999 8.53541 25.5999 8.69646 25.5999V25.2799C8.37436 24.9599 7.89122 24.6399 7.56913 24.3199L8.21332 23.6799C8.53541 24.1599 8.8575 24.9599 9.50169 25.2799C9.17959 25.4399 9.01855 25.7599 8.8575 26.0799C9.1796 25.9199 9.66274 25.7599 9.98483 25.7599C9.82378 25.4399 9.82378 25.2799 9.82378 25.1199C9.1796 24.9599 9.1796 24.3199 9.1796 23.8399C8.8575 23.6799 8.37436 23.5199 8.21332 23.1999H9.66273C9.82378 23.0399 9.98483 22.8799 9.98483 22.7199L10.3069 23.0399C10.1459 22.8799 10.1459 22.7199 10.1459 22.5599L10.468 22.2399C9.82378 21.9199 8.8575 22.0799 8.53541 21.4399ZM12.5616 20.3199H11.9174C11.7563 20.1599 11.5953 19.9999 11.5953 19.8399C11.4342 20.3199 11.5953 20.7999 11.9174 20.7999V21.4399C12.2395 21.7599 12.5616 21.4399 12.7226 21.4399V20.9599H13.2058C12.7226 20.9599 12.4005 20.9599 12.0784 20.7999L12.5616 20.3199ZM66.1901 12.3199C66.1901 11.9999 66.029 11.9999 66.029 11.8399V11.0399H66.1901L65.868 10.7199C65.2238 10.8799 64.7406 10.7199 64.0965 10.3999V11.0399C64.0965 11.0399 63.9354 11.0399 63.7744 10.8799V10.5599C63.6133 10.5599 63.4523 10.5599 63.2912 10.7199C63.2912 10.8799 63.4523 11.1999 63.4523 11.3599C63.1302 11.3599 62.8081 11.3599 62.486 11.5199C62.1639 11.9999 61.8418 12.6399 61.6808 13.1199C61.5197 13.4399 61.0366 13.2799 60.8755 13.2799C60.3924 13.5999 60.0703 14.0799 59.9092 14.7199H58.7819C58.4598 15.6799 57.3325 15.8399 56.6883 16.4799C56.6883 16.3199 56.5273 16.1599 56.5273 15.9999C56.3662 16.1599 56.0441 16.3199 55.8831 16.3199H56.5273C56.5273 16.6399 56.5273 16.9599 56.3662 17.1199C55.8831 17.1199 55.561 17.2799 55.2389 17.4399L54.4337 16.6399C54.2726 17.1199 53.7895 17.7599 54.2726 18.2399V18.5599C54.2726 18.5599 54.1116 18.2399 53.9505 18.0799C53.9505 18.2399 53.7895 18.2399 53.6284 18.3999L53.9505 18.7199C53.4674 19.0399 52.8232 19.0399 52.179 18.7199C52.179 18.7199 52.018 18.3999 52.018 18.2399C51.2127 18.7199 50.8906 19.3599 50.0854 19.8399C49.2802 20.3199 47.9918 20.6399 47.8308 21.7599C48.1529 21.7599 48.4749 21.7599 48.797 21.9199L48.3139 22.3999V23.8399C48.636 23.8399 48.9581 23.6799 49.1191 23.3599C49.2802 22.8799 49.7633 22.5599 50.2465 22.3999V23.0399H49.6023C49.2802 23.6799 48.797 24.1599 48.4749 24.7999V23.9999C48.1529 23.8399 47.9918 23.6799 47.6697 23.5199V23.1999C47.1866 22.8799 46.5424 22.8799 46.0592 23.0399C46.0592 23.0399 46.2203 23.1999 46.2203 23.3599H45.4151V23.6799C45.4151 23.6799 45.7372 23.6799 45.7372 23.8399V24.1599L46.7034 23.6799V24.6399C46.2203 24.7999 45.5761 24.9599 45.093 25.1199C45.093 25.2799 45.254 25.4399 45.4151 25.4399C44.6098 25.4399 44.1267 26.0799 43.4825 26.2399C42.6773 26.3999 42.1941 26.7199 41.3889 26.8799C41.5499 26.8799 41.711 27.0399 41.872 27.1999H41.2279C41.2279 26.8799 41.3889 26.3999 41.3889 26.0799C41.2279 26.2399 41.0668 26.3999 40.7447 26.5599L40.4226 26.7199C40.4226 26.8799 40.2616 26.8799 40.2616 27.0399H39.9395C39.9395 27.3599 39.9395 27.8399 39.7784 28.1599C39.9395 28.1599 40.1005 28.1599 40.4226 27.9999L40.2616 28.1599C39.9395 28.1599 39.6174 28.3199 39.2953 28.4799C38.9732 28.4799 38.8122 28.3199 38.4901 28.3199C38.4901 28.1599 38.6511 27.9999 38.6511 27.8399C38.4901 27.9999 38.4901 27.9999 38.4901 27.8399C38.4901 27.8399 38.6511 27.6799 38.8122 27.6799V27.1999C38.8122 27.0399 38.9732 27.0399 38.9732 26.8799H38.8122V26.5599C38.8122 26.5599 38.8122 26.3999 38.9732 26.3999C38.9732 26.0799 38.9732 25.7599 38.8122 25.4399C38.6511 24.9599 38.9732 24.6399 39.1342 24.3199C39.1342 23.9999 38.9732 23.6799 38.8122 23.5199C38.329 23.6799 38.0069 23.9999 37.6848 24.3199C37.5238 24.1599 37.3627 23.8399 37.0406 23.6799C37.3627 23.1999 38.0069 23.1999 38.4901 23.3599C38.4901 23.3599 38.6511 23.1999 38.6511 23.0399C38.329 22.7199 38.168 22.3999 38.0069 21.9199C38.0069 21.9199 37.8459 21.7599 37.6848 21.7599C36.8796 21.7599 36.2354 22.0799 35.4302 22.2399C35.1081 22.2399 34.786 22.3999 34.4639 22.5599V22.8799C33.6587 23.0399 33.3366 23.8399 32.5313 24.1599C32.0482 24.4799 31.404 24.4799 30.9209 24.9599C31.0819 25.1199 31.243 25.2799 31.5651 25.4399L29.6325 25.9199C29.7936 25.9199 29.9546 26.0799 30.1156 26.2399V26.7199C29.7936 26.5599 29.4715 26.3999 28.9883 26.0799C28.9883 25.7599 28.8273 25.2799 28.9883 24.9599C28.6662 24.7999 28.022 24.7999 27.861 25.1199C27.5389 25.7599 26.8947 26.0799 26.2505 26.2399V25.4399C26.0895 25.7599 25.9284 25.9199 25.7674 26.2399C25.6063 27.0399 24.9622 27.8399 24.8011 28.6399C24.318 29.7599 23.6738 30.8799 23.3517 31.9999C23.0296 32.6399 23.1906 33.2799 22.7075 33.9199C22.5465 34.2399 22.8686 34.5599 22.8686 34.8799H22.3854V35.5199C22.3854 35.3599 22.5465 35.1999 22.7075 35.1999L23.6738 36.1599C23.6738 35.3599 24.318 34.7199 24.8011 33.9199V34.8799H25.7674C25.7674 34.8799 25.7674 35.1999 25.6063 35.1999H25.1232C24.8011 35.1999 24.479 35.3599 24.1569 35.5199C24.318 35.5199 24.479 35.5199 24.6401 35.6799C24.479 35.8399 24.1569 35.9999 23.9959 36.1599C24.318 36.1599 24.6401 36.3199 24.8011 36.4799C25.1232 36.4799 25.2842 36.3199 25.6063 36.1599V36.9599H26.2505C26.5726 36.7999 27.0558 36.4799 27.3779 36.4799C27.5389 36.3199 27.6999 36.1599 27.6999 35.9999C28.022 36.4799 28.022 37.1199 28.022 37.5999C28.022 37.7599 27.861 37.9199 27.861 38.0799C27.861 38.0799 28.1831 38.0799 28.3441 38.2399C28.9883 38.2399 29.6325 38.7199 30.4377 38.5599C29.9546 38.2399 29.4715 38.0799 29.1494 37.7599H29.9546C29.9546 37.5999 30.1156 37.4399 30.2767 37.2799C30.2767 37.5999 30.4377 38.0799 30.9209 38.0799C31.0819 37.7599 31.404 37.4399 31.5651 37.2799C32.0482 37.2799 32.8534 37.2799 33.0145 37.9199C33.3366 38.3999 33.1755 39.0399 33.1755 39.5199L33.6587 39.0399C34.1418 39.0399 34.786 39.3599 35.2691 39.3599C35.7523 39.1999 36.0744 39.0399 36.5575 39.3599C37.2017 39.0399 37.8459 38.8799 38.4901 39.3599C38.4901 39.1999 38.329 39.0399 38.168 38.8799L38.6511 38.3999C39.1342 38.3999 39.6174 38.3999 39.9395 38.7199C39.7784 38.7199 39.4563 38.8799 39.1342 38.8799C39.1342 39.0399 39.1343 39.1999 39.2953 39.3599C39.4563 39.1999 39.7784 38.8799 40.1005 38.7199C40.1005 39.1999 40.1005 39.6799 39.7784 39.9999C39.9395 39.9999 40.1005 39.9999 40.2616 39.8399C40.1005 39.9999 39.7784 40.1599 39.6174 40.4799V40.7999C38.329 40.7999 37.8459 42.3999 36.7185 42.8799C36.3965 42.8799 36.0744 42.8799 35.7523 43.0399L35.2691 43.5199C35.2691 43.3599 35.1081 43.1999 35.1081 43.0399C34.786 43.3599 34.4639 43.6799 34.1418 43.8399C34.1418 43.9999 34.1418 44.1599 34.3029 44.3199C35.1081 43.8399 35.7523 43.3599 36.5575 43.1999C36.5575 43.3599 36.3965 43.3599 36.2354 43.5199C35.5912 44.1599 34.4639 44.4799 33.6587 44.9599C33.4976 45.1199 33.1755 44.9599 33.0145 44.9599C32.8534 44.9599 32.6924 45.1199 32.5313 45.2799C32.8534 45.2799 33.1755 45.4399 33.4976 45.4399C33.6587 45.4399 33.8197 45.4399 34.1418 45.2799C34.4639 45.1199 34.786 44.9599 35.2691 44.7999C35.5912 44.6399 35.9133 44.6399 36.0744 44.6399C36.5575 44.1599 37.0406 43.8399 37.5238 43.5199V43.0399C38.329 42.8799 38.6511 42.2399 39.2953 41.9199C39.7784 41.4399 40.4226 41.1199 40.5837 40.3199C40.9058 40.1599 41.2279 39.9999 41.5499 39.5199C41.872 39.0399 42.6773 38.8799 42.9994 38.2399C43.4825 38.2399 43.9656 37.9199 44.1267 37.5999C44.1267 37.4399 43.9656 37.2799 43.9656 37.1199C44.2877 36.7999 44.6098 36.3199 45.093 36.1599C45.093 36.1599 45.254 36.1599 45.4151 35.9999V35.3599C45.7372 35.1999 46.2203 35.0399 46.5424 34.8799C46.8645 34.5599 47.1866 34.0799 47.5087 33.7599V33.1199H48.1529C48.1529 33.1199 48.3139 33.2799 48.4749 33.2799V32.7999C48.636 32.7999 48.797 32.6399 49.1191 32.4799H48.9581C48.9581 31.9999 49.2802 31.6799 49.7633 31.5199V31.0399C49.9244 31.0399 50.0854 31.1999 50.4075 31.1999C50.5686 30.8799 50.5686 30.5599 50.7296 30.3999H51.3738C51.3738 29.7599 51.3738 29.2799 51.6959 28.6399C51.8569 28.6399 52.018 28.7999 52.179 28.7999C52.5011 28.3199 52.9842 27.6799 52.9842 27.0399L53.3063 27.1999V27.3599C53.3063 27.3599 53.4674 27.3599 53.6284 27.1999C53.6284 27.0399 53.6284 27.0399 53.7895 26.8799C53.6284 26.8799 53.4674 26.8799 53.3063 26.7199V26.2399C53.6284 26.2399 53.9505 26.2399 54.1116 26.0799C54.2726 25.7599 54.4337 25.2799 54.5947 24.9599C54.5947 24.6399 54.5947 24.3199 54.4337 24.1599C54.5947 24.1599 54.7558 24.1599 54.9168 24.3199C54.9168 23.9999 55.0779 23.8399 55.0779 23.5199C55.3999 23.6799 55.722 23.8399 55.8831 24.1599C55.8831 24.1599 56.0441 24.4799 56.2052 24.4799V24.3199C56.2052 24.3199 56.0441 24.1599 56.0441 23.9999C56.3662 23.8399 56.6883 23.5199 57.0104 23.1999C57.1715 22.8799 56.8494 22.3999 57.1715 22.0799C57.6546 21.7599 58.2988 21.2799 58.6209 20.7999H59.104C59.2651 20.4799 59.4261 20.1599 59.9092 19.9999C59.9092 19.8399 59.2651 19.5199 59.9092 19.5199V19.0399C59.9092 18.8799 60.2313 18.8799 60.2313 18.8799L59.9092 19.1999C59.9092 19.3599 59.9093 19.8399 60.2313 19.8399C60.7145 19.8399 60.5534 19.5199 60.5534 19.1999C60.5534 19.1999 60.7145 19.5199 60.8755 19.5199C60.8755 19.3599 60.8755 19.0399 61.0366 18.8799C61.6808 19.0399 62.0029 18.3999 62.3249 18.0799C62.486 17.7599 62.9691 17.7599 63.1302 17.5999H62.8081C62.8081 17.5999 62.8081 17.2799 62.9691 17.2799C62.8081 17.2799 62.647 17.1199 62.486 17.1199V17.5999H62.0029C61.5197 17.9199 61.1976 18.3999 60.8755 19.0399C60.5534 18.8799 60.8755 18.5599 60.8755 18.2399V17.7599C61.0366 17.7599 61.1976 17.5999 61.3587 17.5999L61.8418 16.6399H62.3249L62.8081 16.1599V16.4799H63.2912C63.2912 16.1599 63.2912 15.8399 63.4523 15.5199C63.4523 15.5199 63.7744 15.5199 63.9354 15.3599C62.9691 15.0399 62.486 15.9999 61.6808 16.3199C62.0029 15.8399 62.486 15.1999 62.9691 14.8799V13.7599C63.2912 13.7599 63.6133 13.5999 64.0965 13.5999L64.2575 13.4399C64.5796 13.1199 64.9017 12.6399 65.2238 12.3199H66.1901ZM40.2616 27.8399C40.5837 27.8399 41.0668 27.8399 41.3889 27.9999C41.2279 27.6799 41.2279 27.5199 41.2279 27.1999C41.3889 27.3599 41.711 27.5199 41.872 27.6799C41.872 27.9999 41.872 28.3199 41.5499 28.4799C41.0668 28.4799 40.5837 28.1599 40.2616 27.8399ZM39.6174 34.3999C39.6174 34.3999 39.4563 34.3999 39.4563 34.2399C39.2953 34.2399 39.1342 34.2399 39.1342 34.3999L38.9732 34.2399H39.6174V34.3999ZM40.9058 34.7199C40.7447 34.2399 40.5837 34.2399 40.4226 34.2399V34.5599H39.7784L40.2616 34.0799H40.1005C40.2616 34.0799 40.5837 33.9199 40.7447 33.7599C40.7447 33.9199 40.9058 34.0799 41.0668 34.2399C41.0668 34.3999 40.9058 34.5599 40.9058 34.7199ZM43.8046 32.3199C43.8046 32.1599 43.8046 31.9999 43.6435 31.9999C43.6435 31.9999 43.4825 31.9999 43.4825 32.1599L43.1604 31.8399V32.4799C43.3215 32.6399 43.6436 32.7999 43.8046 32.9599C43.4825 32.9599 43.1604 33.1199 42.6773 33.2799C42.6773 33.4399 42.8383 33.5999 42.9994 33.7599C42.6773 34.0799 42.3552 34.3999 42.1941 34.7199C42.0331 34.5599 41.872 34.3999 41.711 34.3999C41.711 34.7199 41.711 34.8799 41.872 35.1999C41.711 35.0399 41.5499 34.8799 41.3889 34.5599C41.3889 34.5599 41.5499 34.3999 41.5499 34.2399C41.5499 34.0799 41.3889 33.9199 41.2279 33.7599H41.711V33.4399H42.3552C42.3552 33.1199 42.3552 32.6399 42.1941 32.3199C41.872 31.9999 41.3889 31.6799 41.0668 31.3599C40.9058 31.3599 40.7447 31.5199 40.7447 31.6799C40.4226 31.5199 40.2616 31.5199 39.9395 31.3599V30.8799C39.6174 31.0399 39.2953 31.1999 38.9732 31.5199V31.9999C39.4563 31.8399 40.1005 31.9999 40.5837 32.1599L40.7447 32.4799C40.9058 32.4799 41.0668 32.4799 41.2279 32.6399V33.1199C41.0668 33.1199 40.9058 33.2799 40.7447 33.2799V32.9599C40.1005 33.2799 39.4563 33.9199 38.6511 33.9199C38.4901 33.7599 38.168 33.7599 38.0069 33.9199C37.8459 34.0799 37.6848 34.5599 37.6848 34.7199H37.3627C37.2017 35.0399 36.8796 35.3599 36.5575 35.5199C36.3965 35.5199 36.0744 35.3599 35.7523 35.3599C35.7523 34.8799 35.5912 34.2399 34.947 34.2399C35.1081 33.9199 35.4302 33.5999 35.5912 33.2799C35.1081 33.4399 34.6249 33.5999 34.4639 34.0799C34.1418 34.0799 33.6587 34.2399 33.3366 34.3999C33.3366 34.0799 33.4976 33.7599 33.9808 33.7599C33.9808 33.5999 33.8197 33.4399 33.6587 33.2799H34.3029C34.4639 33.1199 34.6249 32.9599 34.947 32.7999C34.947 32.9599 34.947 33.1199 35.1081 33.2799C35.4302 32.9599 35.7523 32.7999 36.2354 32.6399C35.9133 32.3199 35.5912 32.4799 35.1081 32.4799C35.2691 32.3199 35.4302 32.1599 35.4302 31.9999V31.6799L35.2691 31.8399C35.1081 31.8399 34.947 31.6799 34.6249 31.6799V31.1999C34.947 31.1999 35.1081 31.0399 35.4302 31.0399C34.947 30.8799 34.3029 30.8799 33.8197 30.8799C33.9808 31.1999 33.9808 31.5199 34.1418 31.8399L33.6587 32.3199C33.1755 32.3199 32.5313 31.8399 32.3703 31.3599C32.5313 31.3599 32.6924 31.1999 33.0145 31.0399C32.6924 30.8799 32.5313 30.7199 32.2092 30.5599L32.5313 30.3999C32.5313 30.3999 32.6924 30.3999 32.8534 30.5599L33.3366 30.0799H32.5313C32.6924 29.5999 33.1755 29.5999 33.6587 29.5999C33.6587 30.0799 33.6587 30.7199 34.1418 30.8799C34.6249 30.8799 34.4639 30.2399 34.6249 29.9199C34.6249 30.0799 34.786 30.2399 34.786 30.3999C34.947 30.2399 35.2691 30.0799 35.4302 29.9199L34.3029 28.7999V28.4799C34.4639 28.4799 34.4639 28.6399 34.6249 28.6399V28.3199C34.947 28.3199 35.2691 28.1599 35.2691 27.8399C34.947 27.6799 34.6249 27.6799 34.4639 27.6799C34.947 27.6799 35.4302 27.6799 35.5912 27.3599C35.4302 27.3599 35.1081 27.3599 34.947 27.1999H35.1081C35.4302 27.3599 35.9133 27.3599 36.2354 27.5199C36.5575 27.5199 36.8796 27.3599 37.2017 27.1999V27.8399C37.5238 27.8399 37.8459 27.6799 38.0069 27.6799L37.6848 27.3599H38.168V26.7199C38.329 26.7199 38.329 26.8799 38.4901 26.8799C38.329 27.3599 38.168 27.6799 37.6848 28.1599C37.8459 28.4799 38.168 28.7999 38.329 29.1199C38.9732 29.4399 39.6174 29.9199 40.2616 30.3999V30.8799C40.9058 30.5599 41.3889 29.9199 42.1941 29.7599L42.5162 30.0799C42.5162 30.0799 42.6773 30.0799 42.6773 29.9199C42.9994 30.2399 43.3215 30.3999 43.6435 30.7199C43.6435 30.7199 43.6436 30.8799 43.4825 30.8799C43.6436 31.0399 43.9656 31.1999 44.1267 31.5199C44.2877 31.8399 43.9656 31.9999 43.8046 32.3199Z" fill="#78578F"/>
<path d="M32.6924 39.84C32.8534 39.84 33.0145 39.68 33.1755 39.52H32.6924V39.84ZM28.9883 19.68V19.2C29.1494 18.88 29.4715 18.72 29.7936 18.56C29.6325 18.24 29.3104 18.08 29.1494 17.76C29.4715 17.28 29.6325 16.8 29.6325 16.16C29.9546 16 30.1157 16 30.2767 16C30.2767 15.84 30.4378 15.68 30.4378 15.68C30.1157 15.52 29.9546 15.52 29.7936 15.52C29.6325 14.88 29.3104 14.4 29.3104 13.76C29.1494 13.76 28.9883 13.6 28.9883 13.44C29.1494 12.96 29.4715 12.48 29.6325 12C29.4715 12 29.3104 11.84 29.3104 11.84C29.4715 11.36 28.8273 10.88 28.6662 10.4C28.6662 10.08 28.6662 9.60003 29.1494 9.60003C29.4715 9.60003 29.4715 10.24 29.6325 10.4V9.76003L30.5988 10.24L30.1157 10.72C30.2767 10.56 30.5988 10.4 30.9209 10.4C30.7598 10.72 30.7598 11.04 30.7598 11.2C31.0819 11.36 31.5651 11.36 31.8872 11.36C31.5651 11.2 31.243 11.04 30.9209 11.04C31.243 11.04 31.7261 10.88 32.0482 10.72C31.7261 10.4 31.5651 10.08 31.243 10.08C30.4378 9.76003 29.7936 9.28003 28.9883 9.28003C28.5052 9.28003 28.1831 9.44003 27.5389 9.60003V10.08C27.7 10.08 28.0221 10.24 28.1831 10.24C28.1831 11.04 28.5052 11.84 28.9883 12.48C28.6662 12.8 28.3441 12.96 28.0221 13.12C28.3441 13.44 28.6662 13.76 28.9883 14.24C28.8273 14.72 28.8273 15.36 28.9883 15.84C29.3104 16.32 29.1494 16.96 28.9883 17.44C28.8273 17.6 28.5052 17.6 28.1831 17.6C28.3441 17.76 28.3441 17.92 28.5052 18.08L28.0221 19.04L28.1831 19.2C27.861 19.52 27.7 20 27.5389 20.32H27.2168V20.96C27.5389 20.64 28.0221 20.48 28.3441 20.48C28.5052 20.16 28.8273 19.84 28.9883 19.68ZM54.9168 13.44C54.4337 13.28 54.1116 13.92 54.1116 14.24C54.4337 14.24 55.2389 13.92 54.9168 13.44ZM53.6284 13.76C53.4674 13.92 53.4674 14.24 53.3064 14.56C53.6284 14.56 53.7895 14.4 54.1116 14.4V13.76H53.6284ZM20.6139 40.16C20.6139 40 20.4529 39.84 20.4529 39.68C19.9697 40.48 20.2918 41.44 19.9697 42.08L20.4529 43.52C20.775 42.72 20.1308 42.08 20.4529 41.28C20.4529 40.8 20.775 40.48 20.6139 40.16ZM24.1569 39.52C23.9959 39.68 23.8348 39.84 23.6738 39.84C23.6738 39.84 23.6738 40 23.5128 40C23.3517 40.16 23.0296 40.16 22.8686 40.16L22.5465 40.48V39.52C22.0633 39.68 21.7412 40 21.4191 40.32H21.2581C21.2581 40.64 21.0971 40.96 21.4191 41.12H20.936C21.0971 41.92 21.4191 42.56 21.7412 43.36C21.5802 43.36 21.4191 43.2 21.2581 43.2C21.2581 43.68 21.7412 44 22.2244 44C22.0633 43.84 21.9023 43.68 21.9023 43.52H22.7075C22.3854 43.36 22.0633 43.04 21.9023 42.88C21.5802 42.56 21.4191 42.08 21.4191 41.76C21.4191 41.28 21.9023 40.96 22.2244 40.64C22.3854 40.96 22.3854 41.28 22.7075 41.44C23.0296 41.12 23.0296 40.48 23.5128 40.32C23.8348 40.64 23.9959 41.12 24.479 41.28V40.16C24.318 40.16 24.1569 40 24.1569 40V39.52ZM24.8011 38.24C24.6401 38.08 24.479 37.92 24.318 37.92C24.6401 37.76 24.9622 37.6 25.1232 37.28C25.1232 37.12 24.9622 36.8 24.9622 36.64H24.479C24.479 36.96 24.6401 37.12 24.9622 37.44C24.6401 37.44 24.1569 37.44 23.8348 37.6C23.9959 37.76 24.318 37.76 24.318 37.76C24.318 37.92 24.1569 38.08 24.1569 38.24C24.479 38.4 24.9622 38.56 25.2843 38.56C25.1232 38.56 24.9622 38.72 24.8011 38.72H25.2843C25.4453 38.72 25.4453 38.24 25.4453 38.08C25.2843 37.92 25.1232 37.92 25.1232 37.92C24.9622 38.08 24.9622 38.24 24.8011 38.24Z" fill="#78578F"/>
<path d="M76.0142 3.51992H76.6584C76.6584 3.19992 76.8195 2.87992 76.9805 2.71992H76.1753C76.6584 2.55992 76.9805 2.39992 77.3026 2.07992C76.9805 1.91992 76.6584 1.91992 76.3363 1.91992C76.1753 2.23992 76.0142 2.39992 76.0142 2.71992C75.6921 2.87992 75.209 2.87992 74.8869 3.03992C75.209 3.19992 75.3701 3.35992 75.6921 3.35992L76.0142 3.51992ZM69.5724 4.79992C70.0555 4.47992 70.8608 4.15992 71.5049 4.47992V3.83992C71.666 4.15992 71.666 4.31992 71.666 4.47992C71.827 4.31992 72.1491 4.31992 72.4712 4.15992C72.4712 3.99992 72.3102 3.83992 72.1491 3.67992L72.4712 3.35992C71.666 3.35992 71.1828 3.35992 70.5387 3.67992C70.6997 3.83992 70.8607 3.83992 71.0218 3.83992C70.5387 3.99992 70.0555 3.99992 69.5724 3.99992H68.9282V3.51992C68.7671 3.67992 68.4451 3.83992 68.284 3.99992V4.63992C68.6061 4.47992 69.0892 4.31992 69.5724 4.15992V4.79992ZM79.5573 5.91992H79.8794V5.75992H79.5573V5.91992ZM65.2241 14.2399C65.2241 14.3999 65.0631 14.3999 65.2241 14.2399C64.741 14.8799 64.4189 15.3599 63.9357 15.5199V15.8399C63.4526 16.1599 62.9695 16.7999 62.6474 17.2799C62.8084 17.2799 62.8084 17.1199 62.9695 17.1199V17.2799H62.4863C62.6474 17.2799 62.8084 17.4399 62.9695 17.4399C63.1305 17.4399 63.2916 17.7599 63.2916 17.7599C63.6137 17.7599 63.9358 17.4399 64.2578 17.4399C64.5799 17.1199 64.741 16.7999 65.0631 16.4799H65.7073C66.0294 16.1599 66.3514 15.5199 66.9956 15.6799V16.1599C67.4788 15.8399 67.9619 15.3599 67.9619 14.7199C67.8009 14.5599 67.4788 14.5599 67.3177 14.5599V15.0399H66.5125C66.1904 14.8799 66.1904 14.8799 66.0294 14.7199L66.6735 14.0799H66.3514L66.6735 13.7599H66.5125C66.6735 13.4399 66.6735 13.2799 66.8346 13.1199H66.1904C65.8683 13.4399 65.5462 13.9199 65.2241 14.2399ZM63.4526 17.4399V16.9599H63.1305C63.6137 16.6399 64.0968 16.1599 64.5799 16.3199C64.4189 16.4799 64.2578 16.7999 64.0968 16.9599C64.0968 17.4399 63.7747 17.4399 63.4526 17.4399ZM65.7073 15.3599C65.5462 15.5199 65.3852 15.5199 65.2241 15.6799C64.902 15.6799 64.741 15.3599 64.902 15.1999C65.0631 15.0399 65.3852 15.3599 65.3852 15.5199C65.5462 15.3599 65.5462 15.1999 65.7073 15.0399V15.3599ZM75.3701 7.67992C75.3701 7.67992 75.5311 7.51992 75.3701 7.67992C75.5311 7.51992 75.3701 7.51992 75.3701 7.67992ZM66.8346 13.1199H66.9956C66.9956 13.1199 66.8346 13.1199 66.8346 12.9599V13.1199Z" fill="#9783A6"/>
<path d="M76.659 6.55994C77.1421 6.55994 77.4642 6.07994 77.7863 6.07994C77.4642 6.39994 76.9811 6.71994 76.3369 6.71994V7.19994H75.6927C75.6927 7.35994 75.5316 7.35994 75.5316 7.51994C75.5316 7.99994 75.2095 8.15994 74.8875 8.31994V8.79994C74.7264 8.63994 74.5654 8.63994 74.4043 8.63994C74.0822 8.79994 73.9212 8.95994 73.7601 9.11994C73.5991 9.11994 73.438 9.27994 73.438 9.27994V9.59994C72.7938 10.2399 71.9886 10.5599 71.3444 11.1999L71.1834 10.8799V11.8399H70.3782C70.3782 11.6799 70.5392 11.3599 70.5392 11.0399C70.0561 11.6799 69.4119 11.9999 68.7677 12.6399C68.2846 13.1199 67.6404 13.5999 67.1572 14.0799C67.4793 14.0799 67.8014 13.9199 68.1235 13.9199L68.6066 14.3999C68.6066 14.2399 68.7677 13.9199 68.7677 13.7599H68.2846C68.7677 13.1199 69.0898 12.4799 69.734 11.9999C70.0561 12.1599 70.2171 12.3199 70.3782 12.3199C70.0561 12.9599 69.4119 13.2799 68.9287 13.7599C69.2508 13.7599 69.734 13.9199 70.0561 13.9199C70.2171 13.9199 70.2171 13.5999 70.2171 13.5999C70.5392 13.1199 71.0223 12.9599 71.6665 12.9599C71.3444 12.9599 71.0223 12.7999 70.7002 12.7999C70.7002 12.6399 70.5392 12.3199 70.5392 12.3199C71.0223 11.9999 71.5055 11.6799 72.1497 11.6799C72.3107 11.8399 72.4718 11.9999 72.4718 12.1599C72.6328 11.8399 72.7938 11.3599 72.9549 10.8799C73.1159 11.0399 73.1159 11.1999 73.277 11.3599C73.438 11.3599 73.5991 11.1999 73.5991 11.1999V11.8399C73.5991 11.5199 73.7601 11.3599 73.7601 11.1999C74.0822 11.3599 74.2433 11.5199 74.5654 11.6799C74.2433 11.1999 74.0822 10.7199 74.0822 10.0799C74.2433 10.2399 74.4043 10.5599 74.5654 10.7199V10.3999C75.2095 10.7199 75.8537 10.2399 76.4979 10.0799C76.0148 9.91994 75.5316 10.0799 75.0485 10.0799C75.3706 9.43994 75.3706 8.95994 75.0485 8.31994C75.3706 8.15994 75.6927 7.99994 76.0148 7.99994C76.0148 7.83994 76.1758 7.67994 76.1758 7.67994C76.659 7.67994 76.9811 7.83994 77.3032 7.83994C77.6252 7.67994 77.7863 7.51994 78.1084 7.35994C78.2694 7.35994 78.5915 7.51994 78.7526 7.51994V6.39994H79.0747C78.9136 6.23994 78.9136 5.91994 78.7526 5.75994H79.2357V5.59994C79.0747 5.59994 78.9136 5.43994 78.7526 5.43994C77.9473 5.43994 76.659 5.43994 76.659 6.55994Z" fill="#9783A6"/>
<path d="M79.2355 5.60002H79.3966C79.3966 5.44002 79.2355 5.28002 79.2355 5.28002C79.3966 5.28002 79.2355 5.44002 79.2355 5.60002ZM79.8797 5.44002V5.76002H80.0408C80.5239 5.76002 80.846 5.60002 81.1681 5.44002C80.685 5.44002 80.3629 5.60002 79.8797 5.44002ZM84.7111 4.80002C84.389 4.64002 83.9059 4.48002 83.4228 4.32002L82.9396 4.80002C82.9396 4.64002 82.7786 4.32002 82.7786 4.32002C82.6175 4.48002 82.4565 4.48002 82.2954 4.48002V3.68002C81.9733 3.68002 81.6512 3.84002 81.3291 3.68002C81.1681 4.00002 80.846 4.16002 80.5239 4.16002H80.3629V3.52002H79.8797C79.8797 3.52002 79.8797 3.84002 80.846 4.96002L81.1681 4.80002V5.44002C81.3291 5.60002 81.6512 5.60002 81.8123 5.60002V4.48002C81.9733 4.48002 82.1344 4.64002 82.1344 4.64002C82.1344 5.12002 82.1344 5.60002 82.2954 6.24002H82.9396C82.7786 6.08002 82.7786 5.76002 82.7786 5.60002C83.4228 5.28002 84.0669 4.96002 84.7111 4.80002ZM72.6326 8.48002L72.4716 8.80002C72.3105 8.80002 71.9884 8.96002 71.6664 8.96002V9.60002L72.6326 9.12002V8.64002H73.5989V8.80002C73.5989 8.64002 73.76 8.64002 73.76 8.64002C73.921 8.32002 73.921 8.16002 73.921 7.84002C73.76 7.68002 73.4379 7.52002 73.2768 7.36002C72.9547 7.52002 72.6326 7.68002 72.4716 7.84002C72.4716 8.00002 72.6326 8.32002 72.6326 8.48002ZM71.5053 9.12002H71.0222V9.60002C70.7001 9.76002 70.539 10.08 70.539 10.24C70.378 10.24 70.2169 10.4 70.0559 10.4C70.0559 10.24 70.2169 9.92002 70.378 9.76002C70.2169 9.92002 69.8948 10.08 69.5728 10.08C69.7338 10.24 69.7338 10.56 69.7338 10.72C69.5728 10.88 69.2507 11.04 68.9286 11.2C68.4454 11.52 68.2844 12.16 67.6402 12.48V11.84C67.4791 11.84 67.3181 12 67.1571 12H66.996C67.1571 12.16 67.3181 12.48 67.4791 12.64C67.1571 12.8 66.996 12.8 66.835 12.8C66.996 12.8 67.1571 12.96 67.1571 13.12H66.996C67.3181 13.28 67.6402 13.12 67.8012 12.8H68.4454C68.7675 12.32 69.2507 12 69.5728 11.68C69.8948 11.36 70.539 11.04 70.8611 10.56V10.24C71.1832 10.08 71.3443 9.92002 71.6664 9.76002C71.6664 9.76002 71.5053 9.60002 71.3443 9.60002C71.3443 9.44002 71.5053 9.28002 71.5053 9.12002ZM74.2431 6.56002C73.921 6.56002 73.76 6.72002 73.5989 6.88002C73.4379 6.88002 73.2768 7.04002 73.1158 7.04002V7.20002C73.5989 7.20002 74.0821 7.52002 74.4041 8.00002C74.7262 7.84002 75.0483 7.68002 75.3704 7.68002C75.0483 7.20002 74.8873 6.56002 74.2431 6.56002Z" fill="#9783A6"/>
<path d="M73.2766 7.35995V7.19995H73.1155C73.1155 7.19995 73.1155 7.35995 73.2766 7.35995ZM31.5655 25.28C31.2434 25.1199 31.0824 24.96 30.9213 24.8C31.4045 24.32 32.0487 24.32 32.5318 24C33.337 23.68 33.6591 22.88 34.4644 22.72V22.4C34.7864 22.24 35.1085 22.08 35.4306 22.08C36.2359 21.92 36.88 21.6 37.6853 21.6L37.8463 21.44H38.3295C38.6516 21.6 38.9736 21.76 39.1347 21.92C39.1347 21.44 38.9736 21.12 38.8126 20.8C38.3295 20.96 37.8463 20.96 37.3632 20.96C37.5242 20.8 37.6853 20.6399 37.6853 20.4799C37.3632 20.32 37.0411 19.84 37.0411 19.52H36.558C36.719 19.2 36.88 18.88 36.88 18.56C36.558 18.4 36.2359 18.24 36.0748 18.24V17.76H35.5917V17.44H35.9138C35.9138 17.28 36.0748 17.12 36.0748 16.96C36.2359 16.96 36.719 16.8 36.88 16.64H36.2359V16.32C36.3969 16.32 36.558 16.16 36.719 16.16C36.558 16 36.2359 16 36.2359 16V15.52C36.0748 15.2 35.7527 14.88 35.7527 14.56H36.2359C36.2359 14.24 36.0748 13.76 35.7527 13.6C35.9138 13.44 35.7527 13.12 35.7527 12.8C35.4306 12.64 35.2696 12.32 35.1085 12.16C35.2696 12.64 35.4306 12.9599 35.5917 13.28V15.2C35.1085 14.56 34.4643 13.92 34.3033 13.12H33.8202C33.6591 12.96 33.4981 12.8 33.4981 12.64V12.96C33.176 12.64 32.8539 12.32 33.0149 12C32.6928 11.36 32.0486 11.04 31.5655 10.56C31.2434 10.56 30.7603 10.7199 30.4382 10.88C30.7603 10.88 31.0824 11.04 31.4045 11.2C30.9213 11.36 30.5992 11.2 30.2771 11.04C30.4382 10.72 30.4382 10.4 30.4382 10.24C30.2771 10.4 29.955 10.56 29.633 10.56L30.1161 10.08L29.1498 9.59995V10.24C28.9888 9.91995 28.9888 9.43995 28.6667 9.43995C28.1835 9.27995 28.1835 9.91995 28.1835 10.24C28.3446 10.72 28.9888 11.2 29.955 12.32C30.1161 12.32 30.2771 12.4799 30.2771 12.4799C30.1161 12.9599 29.794 13.44 29.633 13.92C29.794 13.92 29.955 14.08 29.955 14.24C30.1161 14.88 30.2771 15.36 30.4382 16C30.7603 16.16 30.9213 16.16 31.0824 16.16C31.0824 16.32 30.9213 16.4799 30.9213 16.4799C30.5992 16.6399 30.4382 16.64 30.2771 16.64C30.2771 17.28 30.1161 17.76 29.794 18.24C29.955 18.56 30.2771 18.72 30.4382 19.04C30.2771 19.36 29.955 19.5199 29.633 19.6799V20.16C29.4719 20.48 29.1498 20.8 28.9888 20.96C28.5056 21.12 28.1835 21.12 27.8614 21.44C27.5393 21.92 27.3783 22.4 27.2173 22.88C26.8952 23.52 26.412 24.32 26.412 25.12L26.251 25.28V26.08C26.8952 25.92 27.5393 25.6 27.8614 24.96C28.0225 24.48 28.6667 24.64 28.9888 24.8C28.8277 25.12 28.9888 25.6 28.9888 25.92C29.3109 26.24 29.794 26.4 30.1161 26.56V26.08C29.955 25.92 29.794 25.76 29.633 25.76L31.5655 25.28ZM65.8684 17.92V17.12C65.8684 17.28 65.7074 17.44 65.7074 17.44C65.7074 17.44 65.5463 17.44 65.2242 17.6L65.0632 17.92C65.3853 17.92 65.7074 18.24 65.8684 17.92ZM45.0934 17.92C44.4492 17.76 44.4492 18.72 43.805 19.04C43.3219 19.36 42.6777 19.52 42.3556 20.16C41.7114 20.64 41.2283 21.28 40.5841 21.76C40.4231 21.92 40.262 21.92 40.262 21.92C39.7789 22.08 39.2957 22.4 39.4568 23.04L39.7789 22.72H39.9399C40.101 22.56 40.101 22.4 40.101 22.24H40.7452C41.5504 21.28 42.8388 20.48 43.805 19.52C44.4492 18.72 45.5766 18.4 46.2207 17.6V17.92C46.3818 17.6 46.3818 17.28 46.3818 17.12V16.96C45.7376 16.8 45.4155 17.44 45.0934 17.92Z" fill="#9783A6"/>
<path d="M37.0415 17.7599C37.3636 17.7599 37.0415 17.1199 36.7194 17.1199C36.5584 17.4399 36.7194 17.5999 37.0415 17.7599ZM66.1909 18.2399C65.8688 18.2399 65.5468 18.2399 65.2247 18.3999C64.9026 18.7199 64.5805 19.0399 64.2584 19.1999H63.9363C63.7752 19.0399 63.7752 18.7199 63.7752 18.7199C63.7752 18.8799 63.6142 18.8799 63.6142 18.8799C63.9363 19.6799 62.97 20.1599 62.4869 20.4799C62.3258 20.3199 62.3258 19.9999 62.1648 19.9999C62.0037 20.3199 62.0037 20.4799 62.0037 20.6399C61.3595 20.9599 60.5543 21.2799 60.5543 22.0799C60.2322 22.0799 59.9101 22.2399 59.588 22.3999C59.7491 22.8799 59.1049 23.1999 58.9438 23.6799C60.3933 22.8799 61.5206 21.4399 62.97 20.6399C64.0973 19.8399 65.0636 18.7199 66.352 18.3999C66.352 18.0799 66.513 17.9199 66.352 17.5999C66.352 17.7599 66.1909 18.0799 66.1909 18.2399ZM37.6857 27.8399L37.5247 27.9999H37.8468L37.6857 27.8399ZM37.5247 27.6799C37.6857 27.8399 37.8468 27.6799 37.8468 27.6799H37.5247Z" fill="#9783A6"/>
<path d="M43.3221 30.7199L43.4831 30.5599C43.161 30.2399 42.8389 30.0799 42.5169 29.7599C42.5169 29.9199 42.3558 29.9199 42.3558 29.9199L42.0337 29.5999C41.2285 29.7599 40.9064 30.3999 40.1012 30.7199V30.2399C39.457 29.7599 38.8128 29.2799 38.1686 28.9599C38.0075 28.6399 37.6855 28.3199 37.5244 27.9999C37.3634 27.9999 37.2023 28.1599 37.0413 28.1599V27.5199C36.7192 27.6799 36.3971 27.8399 36.075 27.8399C35.7529 27.6799 35.2698 27.5199 34.9477 27.5199H34.7866C34.9477 27.6799 35.2698 27.6799 35.4308 27.6799C35.2698 27.9999 34.6256 27.9999 34.3035 27.9999C34.3035 28.3199 34.1424 28.7999 34.1424 29.1199C34.6256 29.4399 34.9477 29.9199 35.2698 30.2399C35.1087 30.3999 34.7866 30.5599 34.6256 30.7199C34.6256 30.5599 34.4645 30.3999 34.4645 30.2399C34.3035 30.5599 34.4645 31.1999 33.9814 31.1999C33.4982 31.0399 33.4982 30.3999 33.4982 29.9199C33.0151 29.9199 32.532 29.9199 32.3709 30.3999H33.1761L32.693 30.8799C32.532 30.7199 32.3709 30.7199 32.3709 30.7199C32.3709 30.8799 32.0488 30.8799 32.0488 30.8799C32.3709 31.0399 32.532 31.1999 32.8541 31.3599C32.532 31.5199 32.3709 31.6799 32.2099 31.6799C32.3709 32.1599 32.8541 32.6399 33.4982 32.6399L33.9814 32.1599C33.8203 31.8399 33.6593 31.5199 33.6593 31.1999C34.1424 31.1999 34.7866 31.1999 35.2698 31.3599C34.9477 31.3599 34.7866 31.5199 34.4645 31.5199V31.9999C34.7866 31.9999 34.9477 31.9999 35.1087 32.1599L35.2698 31.9999V32.3199C35.2698 32.4799 35.1087 32.6399 34.9477 32.7999C35.4308 32.7999 35.7529 32.6399 36.075 32.9599C35.5919 33.1199 35.2698 33.2799 34.9477 33.5999C34.9477 33.4399 34.7866 33.2799 34.7866 33.1199C34.4645 33.2799 34.3035 33.4399 34.1424 33.5999H33.4982C33.6593 33.7599 33.8203 33.9199 33.8203 34.0799C33.3372 34.0799 33.1761 34.3999 33.1761 34.7199C33.4982 34.5599 33.9814 34.3999 34.3035 34.3999C34.4645 33.9199 34.9477 33.7599 35.4308 33.5999C35.2698 33.9199 35.1087 34.2399 34.7866 34.5599C35.4308 34.5599 35.5918 35.1999 35.5918 35.6799C35.9139 35.6799 36.236 35.8399 36.3971 35.8399C36.7192 35.6799 37.0413 35.3599 37.2023 35.0399H37.5244C37.5244 34.8799 37.6855 34.3999 37.8465 34.2399C38.1686 33.9199 38.6517 34.3999 38.9738 34.7199C38.9738 34.5599 39.1349 34.5599 39.2959 34.5599C39.2959 34.7199 39.457 34.7199 39.457 34.7199V34.2399C39.618 34.3999 39.9401 34.3999 40.1012 34.3999L39.618 34.8799H40.2622V34.5599H40.7453C40.7453 34.3999 40.9064 34.2399 40.9064 34.0799C40.9064 33.9199 40.7453 33.7599 40.5843 33.5999C39.9401 34.0799 39.1349 34.0799 38.3296 34.0799C38.3296 33.9199 38.4907 33.7599 38.4907 33.7599C39.457 33.7599 39.9401 33.1199 40.5843 32.7999V33.1199C40.7453 33.1199 40.9064 32.9599 41.0674 32.9599V32.4799C40.9064 32.4799 40.5843 32.3199 40.5843 32.3199C40.5843 32.1599 40.4232 31.9999 40.4232 31.9999C39.9401 31.8399 39.457 31.6799 38.8128 31.8399V31.3599C39.1349 31.0399 39.457 30.8799 39.7791 30.7199V31.1999C40.1012 31.3599 40.4232 31.3599 40.5843 31.5199C40.5843 31.3599 40.7453 31.1999 40.9064 31.1999C41.2285 31.5199 41.7116 31.8399 42.0337 32.1599C42.1948 32.4799 42.1948 32.9599 42.1948 33.2799H41.5506V33.5999H41.0674C41.2285 33.7599 41.3895 33.9199 41.3895 34.0799C41.3895 34.2399 41.2285 34.3999 41.2285 34.3999C41.3895 34.7199 41.5506 34.8799 41.7116 35.0399C41.5506 34.7199 41.5506 34.5599 41.5506 34.2399C41.7116 34.3999 41.8727 34.3999 42.0337 34.5599C42.1948 34.2399 42.5168 33.9199 42.8389 33.5999C42.6779 33.4399 42.5169 33.2799 42.5169 33.1199C43 32.9599 43.3221 32.7999 43.6442 32.7999C43.4831 32.6399 43.161 32.4799 43 32.3199V31.6799C43.161 31.6799 43.3221 31.9999 43.3221 31.9999L43.4831 31.8399C43.6442 31.8399 43.6442 31.9999 43.6442 32.1599C43.8052 31.8399 44.1273 31.6799 43.9663 31.3599C43.8052 31.0399 43.4831 30.8799 43.3221 30.7199ZM38.0075 27.3599C38.0075 27.5199 37.8465 27.5199 37.8465 27.6799H38.0075V27.3599ZM38.8128 26.2399V25.9199C38.8128 26.0799 38.6517 26.2399 38.4907 26.2399C38.4907 26.0799 38.3296 25.9199 38.1686 25.9199C38.1686 26.0799 38.1686 26.3999 38.0075 27.3599C38.1686 27.0399 38.3296 26.7199 38.3296 26.3999C38.4907 26.3999 38.8128 26.2399 38.8128 26.2399Z" fill="#9783A6"/>
</svg>
