<svg width="284" height="71" viewBox="0 0 284 71" fill="none" xmlns="http://www.w3.org/2000/svg">
<path d="M60.2908 17.5323C61.1192 19.2054 59.4696 20.8597 57.7964 20.0266C57.5029 19.8788 57.2662 19.6421 57.1184 19.3486C56.2899 17.6754 57.9395 16.0211 59.6127 16.8542C59.9062 17.002 60.143 17.2387 60.2908 17.5323ZM67.5873 17.5323C68.4156 19.2054 66.7673 20.8597 65.0928 20.0266C64.8006 19.8799 64.5627 19.6421 64.4159 19.3486C63.5816 17.6754 65.2359 16.0211 66.9093 16.8542C67.2026 17.002 67.4393 17.2387 67.5873 17.5323Z" fill="#A54181"/>
<path d="M70.0533 22.4514C68.7883 23.4134 66.288 24.2986 63.042 24.2986C59.7962 24.2986 57.2946 23.4134 56.0308 22.4514H53.2666C53.9635 24.9293 58.0673 26.8356 63.0409 26.8356C68.0144 26.8356 72.1171 24.9293 72.814 22.4514H70.0533ZM104.939 48.5037C103.429 48.5037 102.234 48.3712 101.352 48.1049C100.491 47.8493 99.6875 47.428 98.9859 46.8671C98.2628 46.2861 97.6949 45.537 97.3292 44.685C96.9518 43.8177 96.7623 42.671 96.7623 41.2451V30.0425H93.6951V26.27H96.7576V19.1345H101.666V26.27H107.876V30.0461H101.666V40.2333C101.666 40.6558 101.702 41.0759 101.771 41.4924C101.844 41.9196 101.97 42.3362 102.149 42.7302C102.331 43.1361 102.613 43.4899 102.968 43.7573C103.53 44.2377 104.226 44.5324 104.962 44.6011C105.566 44.6756 106.176 44.7182 106.785 44.73H108.002V48.5061L104.939 48.5037ZM123.358 26.27C124.259 26.2618 125.155 26.418 126 26.7315C126.744 26.9966 127.419 27.4273 127.973 27.9906C128.446 28.4639 128.838 29.142 129.148 30.0259C129.458 30.9099 129.612 31.9796 129.609 33.2351V44.7726C129.6 45.2519 129.551 45.7287 129.463 46.1997C129.277 47.3073 128.409 48.1747 127.302 48.3605C126.763 48.4551 126.217 48.5037 125.67 48.5037H115.055C114.389 48.5001 113.723 48.4575 113.062 48.377C112.352 48.2942 111.673 47.9723 111.027 47.4127C110.588 47.0304 110.227 46.5678 109.962 46.0495C109.697 45.5383 109.499 44.9951 109.371 44.4342C109.245 43.8958 109.166 43.3491 109.134 42.7977C109.106 42.2663 109.091 41.7906 109.093 41.3706C109.091 40.3966 109.197 39.4263 109.407 38.4761C109.617 37.5295 110.141 36.6904 110.98 35.9591C111.679 35.3438 112.386 34.9735 113.099 34.8468C113.743 34.7285 114.396 34.6646 115.051 34.6587H124.7V33.1062C124.697 32.7535 124.663 32.402 124.595 32.0565C124.512 31.6684 124.332 31.3075 124.07 31.0081C123.785 30.6223 123.379 30.3419 122.916 30.2105C122.513 30.1029 122.096 30.0461 121.679 30.0425H110.729V26.27H123.358ZM116.518 38.437C116.244 38.4501 115.97 38.4856 115.7 38.5424C115.302 38.6264 114.949 38.8595 114.715 39.1932C114.579 39.4039 114.466 39.6287 114.379 39.8641C114.239 40.2002 114.169 40.7742 114.169 41.5847C114.176 42.0036 114.211 42.4225 114.274 42.8367C114.322 43.2947 114.521 43.723 114.84 44.0544C115.044 44.2461 115.278 44.4023 115.532 44.5159C115.815 44.6555 116.125 44.7289 116.44 44.73H123.28C123.419 44.73 123.594 44.7229 123.804 44.7087C124.013 44.6957 124.212 44.614 124.371 44.478C124.517 44.3703 124.622 44.2141 124.664 44.0378C124.693 43.878 124.706 43.7171 124.706 43.555V38.4335L116.518 38.437ZM132.965 19.1345H137.874V48.5037H132.965V19.1345ZM141.23 48.5037V19.1345H146.142V48.5037H141.23ZM156.795 48.5037L149.118 40.3647C148.749 39.947 148.42 39.4985 148.132 39.0216C147.769 38.4146 147.586 37.7164 147.606 37.0099C147.606 36.171 147.789 35.4918 148.153 34.9746C148.515 34.4575 148.851 34.0173 149.16 33.654L155.872 26.27H161.579L153.229 35.2491C153.04 35.4634 152.872 35.6953 152.725 35.9414C152.576 36.2183 152.505 36.5295 152.517 36.8431C152.521 37.2206 152.63 37.5886 152.832 37.9081C153.042 38.2608 153.288 38.5909 153.564 38.8938L162.67 48.5025L156.795 48.5037ZM168.669 19.1345V26.27H175.177C175.871 26.2712 176.566 26.3138 177.254 26.3967C177.971 26.4806 178.674 26.6499 179.352 26.8995C180.055 27.1611 180.712 27.5291 181.303 27.9906C181.967 28.5231 182.523 29.1786 182.94 29.9206C183.568 30.9975 183.975 32.1879 184.134 33.4244C184.32 34.7794 184.411 36.1461 184.408 37.514C184.408 39.3329 184.283 40.8226 184.031 41.9823C183.779 43.142 183.427 44.097 182.976 44.8483C182.575 45.5785 182.034 46.2222 181.381 46.7417C180.789 47.2044 180.131 47.5795 179.43 47.8529C178.755 48.1167 178.051 48.2931 177.332 48.377C176.658 48.4587 175.978 48.5013 175.298 48.5037H168.291C167.666 48.5048 167.043 48.4622 166.424 48.377C165.796 48.2812 165.216 47.9878 164.767 47.5381C164.355 47.1795 164.063 46.7038 163.928 46.1749C163.821 45.7145 163.764 45.2424 163.761 44.7691V19.1345H168.669ZM168.669 42.8816C168.669 43.1053 168.675 43.355 168.69 43.6153C168.706 43.8898 168.818 44.149 169.004 44.3502C169.169 44.517 169.382 44.6271 169.613 44.665C169.856 44.7076 170.1 44.7276 170.346 44.7276H173.913C174.248 44.7276 174.626 44.7134 175.046 44.685C175.476 44.6555 175.9 44.5632 176.304 44.4129C176.746 44.2472 177.162 44.0212 177.543 43.742C177.983 43.4047 178.335 42.9645 178.569 42.4616C178.767 41.9776 178.93 41.4806 179.052 40.973C179.235 40.2878 179.326 39.2038 179.326 37.7212C179.326 35.9591 179.221 34.6871 179.011 33.9025C178.802 33.118 178.653 32.6434 178.565 32.4766C178.146 31.5915 177.425 30.885 176.532 30.4839C176.131 30.304 175.707 30.1845 175.272 30.1289C174.876 30.0756 174.475 30.0472 174.075 30.0448H168.663L168.669 42.8816ZM200.848 26.27C201.749 26.2618 202.645 26.418 203.492 26.7315C204.236 26.9966 204.909 27.4273 205.463 27.9906C205.937 28.4639 206.329 29.142 206.638 30.0259C206.948 30.9099 207.103 31.9796 207.1 33.2351V44.7726C207.091 45.2519 207.042 45.7287 206.954 46.1997C206.769 47.3073 205.9 48.1759 204.792 48.3605C204.251 48.4564 203.705 48.5061 203.155 48.5072H192.541C191.875 48.5037 191.21 48.4611 190.548 48.3806C189.838 48.2978 189.161 47.9759 188.513 47.4162C188.075 47.034 187.713 46.5713 187.448 46.053C187.183 45.5418 186.984 44.9998 186.856 44.4378C186.731 43.9005 186.652 43.3526 186.619 42.8012C186.591 42.2699 186.577 41.7942 186.577 41.3741C186.577 40.4002 186.683 39.4299 186.892 38.4796C187.102 37.533 187.627 36.694 188.465 35.9627C189.165 35.3474 189.871 34.977 190.584 34.8504C191.227 34.7321 191.88 34.6682 192.535 34.6622H202.185V33.1062C202.182 32.7535 202.148 32.402 202.08 32.0565C201.998 31.6684 201.817 31.3075 201.556 31.0081C201.269 30.6223 200.863 30.3419 200.402 30.2105C199.998 30.1029 199.582 30.0461 199.165 30.0425H188.214V26.27H200.848ZM194.01 38.437C193.735 38.4501 193.462 38.4856 193.192 38.5424C192.792 38.6264 192.44 38.8583 192.206 39.1932C192.071 39.4039 191.958 39.6287 191.87 39.8641C191.73 40.2002 191.659 40.7742 191.66 41.5847C191.667 42.006 191.703 42.4261 191.765 42.8426C191.812 43.3005 192.012 43.7289 192.332 44.0602C192.535 44.2519 192.769 44.4081 193.023 44.5217C193.305 44.659 193.613 44.73 193.925 44.7312H200.764C200.904 44.7312 201.079 44.7241 201.289 44.7099C201.498 44.6969 201.697 44.6153 201.856 44.4791C202.002 44.3726 202.106 44.2164 202.148 44.0389C202.177 43.8792 202.191 43.7183 202.191 43.5561V38.4335L194.01 38.437ZM210.455 29.665C210.461 29.2709 210.497 28.8781 210.562 28.4899C210.637 28.032 210.849 27.6084 211.17 27.2735C211.6 26.767 212.209 26.444 212.869 26.3718C213.433 26.3079 214 26.2724 214.568 26.2665H222.413C223.525 26.2605 224.634 26.3599 225.727 26.5611C226.761 26.7564 227.727 27.2593 228.623 28.071C229.209 28.6024 229.719 29.3159 230.154 30.2105C230.588 31.1051 230.804 32.3216 230.804 33.8611V48.5037H225.898V35.3296C225.899 34.6196 225.842 33.9108 225.73 33.2103C225.628 32.55 225.37 31.924 224.975 31.3856C224.627 30.9217 224.154 30.5655 223.612 30.3572C223.066 30.1478 222.346 30.0437 221.452 30.0425H216.458C216.319 30.0425 216.178 30.0496 216.039 30.0638C215.877 30.0898 215.728 30.1715 215.618 30.2946C215.489 30.4153 215.407 30.5797 215.388 30.7561C215.374 30.9241 215.369 31.0779 215.369 31.2176V48.5037H210.455V29.665ZM234.161 48.5037V19.1345H239.07V48.5037H234.161ZM249.725 48.5037L242.049 40.3647C241.68 39.947 241.35 39.4985 241.062 39.0216C240.7 38.4146 240.517 37.7164 240.537 37.0099C240.537 36.171 240.72 35.4918 241.083 34.9746C241.445 34.4575 241.782 34.0173 242.09 33.654L248.802 26.27H254.509L246.16 35.2491C245.971 35.4634 245.802 35.6953 245.656 35.9414C245.507 36.2183 245.436 36.5295 245.447 36.8431C245.451 37.2206 245.561 37.5886 245.762 37.9081C245.972 38.2608 246.218 38.5909 246.495 38.8938L255.6 48.5025L249.725 48.5037Z" fill="#A54181"/>
<path d="M81.2375 34.4587V8.95429C81.2375 6.36161 79.137 4.26119 76.5444 4.26001H48.1621C45.5694 4.26001 43.4678 6.36161 43.4678 8.95429V34.4587C43.4678 37.0514 45.5694 39.153 48.1621 39.153H68.8822C70.9046 43.8152 81.2375 43.342 81.2375 43.342C81.2375 43.342 78.4341 42.0083 77.6567 39.0192C79.7583 38.5057 81.2375 36.6218 81.2375 34.4587ZM49.9809 31.0401V12.3729C49.9785 11.489 50.6944 10.7707 51.5784 10.7683H73.1304C74.0144 10.7683 74.7304 11.4843 74.7304 12.3682V31.0401C74.7315 31.924 74.0155 32.6398 73.1316 32.6411H51.5819C50.698 32.6411 49.9809 31.924 49.9809 31.0401Z" fill="#A54181"/>
<path d="M57.2228 42.1268V47.7334C57.2193 48.6174 56.5011 49.3309 55.6171 49.3285H36.5133C35.6293 49.3309 34.9111 48.6149 34.9087 47.731V30.9656C34.9087 30.0817 35.6246 29.3657 36.5086 29.3657H40.5474V22.8574H33.0924C30.502 22.8586 28.4028 24.9577 28.4004 27.5481V51.1474C28.4004 53.3105 29.8796 55.1944 31.9812 55.7078C31.2038 58.6934 28.4004 60.0295 28.4004 60.0295C28.4004 60.0295 38.7333 60.5028 40.7568 55.8405H59.0404C61.6331 55.8405 63.7335 53.74 63.7347 51.1474V42.1268H57.2228Z" fill="#1D9A9E"/>
<path d="M39.0254 35.1274C39.0243 36.1261 39.8348 36.9368 40.8336 36.9379C41.8323 36.9391 42.6428 36.1285 42.6441 35.1298C42.6453 34.131 41.8347 33.3205 40.8359 33.3193H40.8348C39.8361 33.3181 39.0267 34.1275 39.0254 35.1263V35.1274ZM49.1795 43.464H44.1505V46.6933H49.1795V43.464Z" fill="#1D9A9E"/>
</svg>
