<svg width="360" height="90" viewBox="0 0 360 90" fill="none" xmlns="http://www.w3.org/2000/svg">
<path d="M81.36 35.6401H78.3V25.3801H88.38V35.6401H85.32V27.5401H81.36V35.6401ZM101.16 32.7601C100.44 35.6401 97.74 36.1801 95.76 36.1801C94.5 36.1801 90.18 35.8201 90.18 30.6001C90.18 27.0001 92.52 25.2001 95.94 25.2001C100.98 25.2001 101.16 29.7001 101.16 30.9601V31.5001H93.6C93.6 32.4001 94.14 34.2001 96.12 34.2001C96.48 34.2001 97.02 34.2001 97.38 33.8401C97.74 33.6601 98.1 33.3001 98.28 32.7601C98.1 32.7601 101.16 32.7601 101.16 32.7601ZM98.28 29.5201C98.28 27.3601 96.84 27.0001 96.12 27.0001C95.76 27.0001 93.96 27.0001 93.6 29.5201H98.28ZM106.38 25.3801V26.6401C106.74 26.1001 107.28 25.7401 107.82 25.3801C108.36 25.0201 109.08 25.0201 109.62 25.0201C112.5 25.0201 114.3 27.1801 114.3 30.6001C114.3 33.8401 112.5 36.0001 109.62 36.0001C109.08 36.0001 108.36 35.8201 107.82 35.6401C107.28 35.4601 106.74 35.1001 106.38 34.5601V39.4201H103.32V25.3801C103.5 25.3801 106.38 25.3801 106.38 25.3801ZM108.9 34.0201C110.7 34.0201 111.24 32.4001 111.24 30.6001C111.24 27.7201 109.8 27.1801 108.9 27.1801C108 27.1801 106.56 27.7201 106.56 30.6001C106.38 32.4001 107.1 34.0201 108.9 34.0201ZM122.58 25.3801C123.48 25.3801 126 25.3801 126 27.9001C126 28.4401 125.82 28.9801 125.46 29.5201C125.1 29.8801 124.56 30.2401 124.02 30.2401C125.64 30.6001 126.54 31.3201 126.54 32.9401C126.54 35.1001 124.92 35.6401 122.76 35.6401H116.64V25.3801C116.28 25.3801 122.58 25.3801 122.58 25.3801ZM119.52 29.5201H121.14C121.68 29.5201 122.76 29.5201 122.76 28.6201C122.76 27.7201 122.04 27.5401 121.14 27.5401H119.52V29.5201ZM119.52 33.6601H121.5C122.94 33.6601 123.3 33.1201 123.3 32.5801C123.3 31.8601 122.94 31.3201 121.5 31.3201H119.7V33.6601H119.52ZM131.22 25.3801V28.9801H133.2C134.1 28.9801 137.7 28.8001 137.7 32.4001C137.7 35.2801 135.36 35.4601 133.92 35.4601H128.16V25.3801H131.22ZM131.22 33.6601H132.66C133.38 33.6601 134.46 33.4801 134.46 32.4001C134.46 31.1401 133.2 31.1401 132.66 31.1401H131.4C131.22 31.1401 131.22 33.6601 131.22 33.6601ZM141.84 25.3801V35.6401H138.78V25.3801H141.84ZM151.56 25.3801H154.8V35.6401H151.74V28.9801L147.6 35.6401H144.36V25.3801H147.42V32.0401L151.56 25.3801ZM147.78 21.6001C147.78 22.8601 149.22 22.8601 149.58 22.8601C150.3 22.8601 151.38 22.5001 151.38 21.6001H153.72C153.54 22.8601 152.64 24.3001 149.76 24.3001C146.7 24.3001 145.8 22.6801 145.8 21.6001H147.78ZM42.48 45.5401H45.9L41.58 50.4001L46.08 55.8001H42.48L39.06 51.3001V55.8001H36V45.5401H39.06V49.6801L42.48 45.5401ZM46.08 53.8201C46.26 53.8201 46.44 53.8201 46.62 53.8201C47.88 53.8201 48.42 53.2801 48.42 50.0401L48.6 45.5401H57.42V55.8001H54.36V47.5201H51.48V49.8601C51.3 55.2601 49.86 55.9801 47.34 55.9801C46.98 55.9801 46.62 55.9801 46.08 55.8001C46.08 55.9801 46.08 53.8201 46.08 53.8201ZM67.14 45.5401H70.38V55.8001H67.32V49.1401L63 55.8001H59.76V45.5401H62.82V52.2001L67.14 45.5401ZM83.16 52.9201C82.44 55.8001 79.74 56.3401 77.76 56.3401C76.5 56.3401 72.18 55.9801 72.18 50.7601C72.18 47.1601 74.52 45.3601 77.94 45.3601C82.98 45.3601 83.16 49.8601 83.16 51.1201V51.6601H75.6C75.6 52.5601 76.14 54.3601 78.12 54.3601C78.48 54.3601 79.02 54.3601 79.38 54.0001C79.74 53.8201 80.1 53.4601 80.28 53.1001C80.1 52.9201 83.16 52.9201 83.16 52.9201ZM80.28 49.6801C80.28 47.5201 78.84 47.1601 78.12 47.1601C77.76 47.1601 75.96 47.1601 75.6 49.6801H80.28ZM88.56 55.8001H85.5V45.5401H88.56V49.3201H92.34V45.5401H95.4V55.8001H92.34V51.4801H88.56V55.8001ZM96.84 47.7001V45.7201H106.74V47.7001H103.32V55.8001H100.26V47.5201H96.84V47.7001ZM118.26 52.0201C118.08 53.6401 117.18 56.3401 113.22 56.3401C109.8 56.3401 107.82 54.3601 107.82 50.9401C107.82 48.4201 108.9 45.3601 113.4 45.3601C117 45.3601 118.08 47.5201 118.26 49.3201H115.2C115.02 47.7001 114.12 47.3401 113.22 47.3401C112.5 47.3401 110.88 47.5201 110.88 50.5801C110.88 54.0001 112.5 54.1801 113.22 54.1801C114.84 54.1801 115.2 52.7401 115.2 52.0201H118.26ZM126.72 45.5401H130.14L125.82 50.4001L130.32 55.8001H126.72L123.3 51.3001V55.8001H120.24V45.5401H123.3V49.6801L126.72 45.5401ZM138.6 45.5401H141.84V55.8001H138.78V49.1401L134.64 55.8001H131.4V45.5401H134.46V52.2001C134.28 52.3801 138.6 45.5401 138.6 45.5401ZM151.56 45.5401H154.8V55.8001H151.74V49.1401L147.6 55.8001H144.36V45.5401H147.42V52.2001C147.42 52.3801 151.56 45.5401 151.56 45.5401ZM147.78 41.7601C147.78 43.0201 149.22 43.0201 149.58 43.0201C150.3 43.0201 151.38 42.6601 151.38 41.7601H153.72C153.54 43.0201 152.64 44.4601 149.76 44.4601C146.7 44.4601 145.8 42.8401 145.8 41.7601H147.78Z" fill="#9A9DA5"/>
<path d="M246.6 43.02H251.64C253.44 43.02 259.74 43.2 259.74 49.86C259.74 54.18 256.68 56.16 251.64 56.16H241.56V35.28H257.94V39.42H246.6V43.02ZM246.6 52.2H250.56C252.54 52.2 254.34 51.84 254.34 49.86C254.34 47.34 252 47.16 250.74 47.16H246.6C246.42 47.16 246.6 52.2 246.6 52.2ZM273.42 35.28L281.34 56.34H276.12L274.86 52.38H267.12L265.86 56.34H260.64L268.56 35.28H273.42ZM273.6 48.78L270.9 40.68L268.2 48.78H273.6ZM288.18 56.16H283.14V35.28H288.18V43.2H295.74V35.28H300.78V56.34H295.74V47.34H288.18V56.16ZM317.7 35.28H323.46L315 44.82L324 56.16H317.88L310.5 45.9V56.16H305.64V35.28H310.68V44.1L317.7 35.28Z" fill="#201600"/>
<path d="M193.68 33.6599H179.46V25.0199H207V14.3999H169.92V58.1399H193.68V33.6599Z" fill="url(#paint0_linear_2_3701)"/>
<path d="M204.48 33.6599V58.1399H218.7V66.7799H191.16V77.3999H228.06V33.6599H204.48Z" fill="url(#paint1_linear_2_3701)"/>
<defs>
<linearGradient id="paint0_linear_2_3701" x1="166.334" y1="19.0151" x2="202.247" y2="47.0791" gradientUnits="userSpaceOnUse">
<stop stop-color="#5997D4"/>
<stop offset="1" stop-color="#363C6E"/>
</linearGradient>
<linearGradient id="paint1_linear_2_3701" x1="7248.13" y1="4699.79" x2="9473.3" y2="6168.05" gradientUnits="userSpaceOnUse">
<stop stop-color="#5997D4"/>
<stop offset="1" stop-color="#363C6E"/>
</linearGradient>
</defs>
</svg>
