<svg width="304" height="76" viewBox="0 0 304 76" fill="none" xmlns="http://www.w3.org/2000/svg">
<path d="M59.5075 62.3048H62.8416C63.9751 62.3048 68.0759 62.4048 68.0759 66.839C68.0759 69.6729 66.0088 71.0398 62.8416 71.0398H56.2402V57.1704H66.9757V59.871H59.5075V62.3048ZM59.5075 68.3392H62.1415C63.4083 68.3392 64.5752 68.0726 64.5752 66.7723C64.5752 65.1053 63.0082 65.0053 62.2081 65.0053H59.5075V68.3392ZM77.1778 57.1704L82.3788 71.0398H78.9115L78.0112 68.4394H73.0102L72.1434 71.0398H68.7427L73.9104 57.1704H77.1778ZM77.3111 66.0721L75.5441 60.7711L73.7438 66.0721H77.3111ZM83.3117 68.3392C85.679 68.6394 85.7123 67.2391 85.7123 65.4388V57.1704H95.9142V71.0398H92.647V59.8376H88.7462L88.6462 64.6719C88.5794 67.3391 89.0462 71.8399 83.2452 71.0065V68.3392H83.3117ZM97.7815 59.871V57.1704H109.384V59.871H105.216V71.0398H101.949V59.871H97.7815ZM119.886 57.1704H123.153V71.0398H119.886V61.9713L114.385 71.0398H111.151V57.1704H114.385V66.1389L119.886 57.1704ZM129.455 71.0398H126.187V57.1704H129.455V62.3714H134.456V57.1704H137.723V71.0398H134.456V65.072H129.455V71.0398ZM147.658 57.1704C151.259 57.1704 151.926 59.2042 151.926 60.7044C151.926 62.3048 150.992 63.1717 149.659 63.605V63.6383C150.726 63.8384 152.593 64.6386 152.593 67.1725C152.593 70.5397 149.759 71.0731 147.292 71.0731H140.724V57.2037H147.658V57.1704ZM143.991 62.6382H146.992C148.292 62.6382 148.592 61.738 148.592 61.2045C148.592 60.6378 148.292 59.871 146.825 59.871H143.958V62.6382H143.991ZM143.991 68.3392H147.358C147.925 68.3392 149.159 68.0392 149.159 66.7723C149.159 65.4721 148.125 65.172 146.958 65.172H143.991V68.3392ZM165.097 62.6715V65.2387H158.328V68.3392H166.196V71.0398H155.093V57.1704H165.996V59.871H158.328V62.6715H165.097ZM180.532 66.139C180.332 68.2395 179.166 71.4402 174.264 71.4402C170.73 71.4402 167.497 69.8065 167.497 64.372C167.497 57.0373 172.83 56.7705 174.13 56.7705C179.032 56.7705 180.265 59.8379 180.365 61.8716H177.164C176.864 59.5378 175.031 59.4378 174.297 59.4378C173.564 59.4378 170.997 59.5711 170.997 64.2054C170.997 66.8393 172.163 68.7063 174.397 68.7063C176.532 68.7063 177.164 67.1393 177.298 66.1057H180.532V66.139ZM181.332 59.871V57.1704H192.934V59.871H188.766V71.0398H185.531V59.871H181.332ZM197.935 62.3048H201.27C202.403 62.3048 206.503 62.4048 206.503 66.839C206.503 69.6729 204.437 71.0398 201.27 71.0398H194.668V57.1704H205.404V59.871H197.935V62.3048ZM197.935 68.3392H200.569C201.87 68.3392 203.002 68.0726 203.002 66.7723C203.002 65.1053 201.435 65.0053 200.636 65.0053H197.935V68.3392ZM215.638 57.1704L220.84 71.0398H217.372L216.473 68.4394H211.472L210.604 71.0398H207.17L212.338 57.1704H215.638ZM215.772 66.0721L214.006 60.7711L212.204 66.0721H215.772ZM225.374 71.0398H222.107V57.1704H225.374V62.3714H230.374V57.1704H233.642V71.0398H230.374V65.072H225.374V71.0398ZM244.676 57.1704H248.511L242.977 63.505L248.844 71.0398H244.843L239.943 64.2719H239.909V71.0398H236.675V57.1704H239.909V63.0049H239.943L244.676 57.1704Z" fill="#102D69"/>
<path d="M192.6 46.4686L202.436 40.8008C169.23 19.93 126.654 22.6639 96.4814 46.4686C111.218 39.2006 127.821 35.1998 145.391 35.3331C162.328 35.4331 178.365 39.4673 192.6 46.4686ZM158.528 12.2949L166.263 4.56006L192.468 30.7653C185.266 27.5646 177.798 25.3309 170.23 23.9972L158.528 12.2949ZM109.918 32.999C117.52 29.1316 125.588 26.331 133.823 24.6307L146.125 12.3283L138.357 4.56006L109.918 32.999Z" fill="#102D69"/>
</svg>
