<svg width="284" height="71" viewBox="0 0 284 71" fill="none" xmlns="http://www.w3.org/2000/svg">
<path d="M20.3056 39.476H14.0576V58.362H20.3056C27.5476 58.362 30.3876 54.954 30.3876 48.848C30.3876 42.742 26.8376 39.476 20.3056 39.476ZM19.8796 55.38H17.8916V42.316H19.8796C24.2816 42.316 26.6956 44.304 26.6956 48.848C26.6956 52.966 24.9916 55.522 19.8796 55.38ZM39.0496 44.872C34.0796 44.872 32.3756 48.422 32.3756 51.688C32.3756 55.664 34.3636 58.504 38.6236 58.646C42.0316 58.646 45.0136 57.652 45.1556 53.96H41.7476C41.7476 55.38 40.6116 56.374 39.1916 56.374C36.7776 56.374 36.0676 54.67 36.0676 52.54H45.5816C45.7236 48.564 44.0196 44.872 39.0496 44.872ZM41.6056 50.41H36.0676C36.2096 48.706 37.0616 47.144 38.9076 47.144C40.7536 47.144 41.7476 48.564 41.6056 50.41ZM57.0836 52.824C57.0836 55.38 55.8056 56.232 54.2436 56.232C52.5396 56.232 51.8296 55.096 51.8296 53.25V45.298H48.2796V53.818C48.2796 57.368 50.5516 58.788 52.9656 58.788C54.9536 58.788 56.6576 57.936 57.2256 56.232V58.362H60.6336V45.298H57.0836V52.824ZM68.7276 41.322L65.3196 43.168V45.298H62.3376V47.712H65.1776V54.386C65.1776 56.232 65.4616 57.368 66.7396 58.078C68.3016 58.93 70.2896 58.504 71.9936 58.22V55.948C71.4256 56.09 70.8576 56.09 70.4316 56.09C69.1536 55.948 68.7276 55.238 68.7276 53.96V47.712H71.9936V45.156H68.7276V41.322ZM81.9336 50.41C79.3776 49.7 76.8216 49.558 77.6736 47.712C78.3836 46.718 80.6556 46.718 81.3656 47.428C81.6496 47.712 81.7916 48.28 81.7916 48.706H85.1996C85.3416 45.582 82.6436 44.73 80.2296 44.73C79.0936 44.73 77.8156 44.872 76.8216 45.298C75.2596 45.866 74.1236 47.002 74.1236 48.564C74.1236 50.41 75.4016 51.404 76.5376 51.972C78.0996 52.54 79.0936 52.682 80.3716 52.966C81.6496 53.25 82.5016 53.676 82.5016 54.67C82.5016 55.948 81.2236 56.374 79.9456 56.374C78.5256 56.374 77.6736 55.806 77.6736 54.244H74.1236C73.9816 57.652 76.5376 58.504 79.5196 58.646C81.6496 58.788 84.2056 58.22 85.4836 56.374C86.1936 55.38 86.1936 53.818 85.6256 52.682C85.0576 51.688 83.9216 50.978 81.9336 50.41ZM92.8676 47.428C93.2936 47.144 93.7196 47.002 94.1456 47.002C95.9916 46.86 96.8436 47.854 96.8436 49.558H100.394C100.394 46.008 97.4116 44.73 94.5716 44.73C90.3116 44.73 87.8976 47.57 87.7556 51.83C87.7556 55.806 89.7436 58.646 94.0036 58.788C97.2696 58.788 100.252 57.368 100.252 53.676H96.8436C96.8436 54.812 96.4176 56.09 94.9976 56.374C94.2876 56.516 93.2936 56.374 92.7256 55.806C91.8736 55.238 91.4476 53.392 91.4476 51.546C91.4476 49.842 91.7316 47.996 92.8676 47.428ZM110.902 44.872C109.056 44.872 107.636 45.582 106.642 47.286V39.476H103.092V58.22H106.642V50.694C106.642 48.28 108.062 47.286 109.624 47.286C111.328 47.286 112.038 48.564 112.038 50.268V58.22H115.588V49.274C115.588 46.718 113.316 44.872 110.902 44.872ZM125.102 44.872C120.132 44.872 118.428 48.422 118.428 51.688C118.428 55.664 120.416 58.504 124.676 58.646C128.084 58.646 131.066 57.652 131.208 53.96H127.8C127.8 55.38 126.664 56.374 125.244 56.374C122.83 56.374 122.12 54.67 122.12 52.54H131.634C131.776 48.564 130.072 44.872 125.102 44.872ZM127.658 50.41H122.12C122.262 48.706 123.114 47.144 124.96 47.144C126.806 47.144 127.8 48.564 127.658 50.41ZM152.934 48.706C154.922 47.996 156.484 46.576 156.342 44.304C156.2 40.612 152.792 39.618 149.526 39.618H142.284V58.362H149.1C150.804 58.362 152.366 58.22 153.644 57.794C155.064 57.226 156.058 56.374 156.626 55.238C157.336 53.96 157.194 52.256 156.484 50.978C155.632 49.558 154.496 49.132 152.934 48.706ZM145.834 42.316H149.526C151.514 42.316 152.65 43.31 152.508 44.73C152.508 46.292 151.514 47.144 149.526 47.144H145.834V42.316ZM149.81 55.522H145.834V49.984H149.952C152.366 49.984 153.218 51.404 153.218 52.682C153.218 54.244 152.366 55.522 149.81 55.522ZM165.288 44.872C162.164 44.872 159.892 46.008 159.75 48.99H163.158C163.016 47.57 164.01 46.86 165.288 46.86C167.276 46.86 168.128 47.712 167.844 49.984C165.998 50.126 163.442 49.984 161.454 50.836C160.034 51.546 159.04 52.682 159.04 54.67C159.04 57.226 160.744 58.646 163.3 58.788C165.146 58.93 167.276 58.22 167.986 56.516L168.128 58.362H171.252C171.536 55.096 171.536 51.972 171.536 48.848C171.536 46.15 168.696 44.872 165.288 44.872ZM165.004 56.374C163.726 56.232 162.874 55.664 162.874 54.386C162.874 51.688 166.424 51.972 168.128 51.972C168.27 54.102 168.128 56.374 165.004 56.374ZM183.18 45.014C181.334 45.014 179.63 45.724 178.636 47.428V45.298H175.086V58.362H178.636V50.836C178.636 48.422 180.056 47.428 181.618 47.428C183.18 47.428 184.032 48.706 184.032 50.41V58.362H187.582V49.416C187.582 46.292 185.31 45.014 183.18 45.014ZM191.132 39.476V58.362H194.682V39.476H191.132ZM203.912 45.298H199.652L194.682 50.836L200.22 58.362V58.22H204.906L198.8 50.694L203.912 45.298ZM223.934 12.354V58.362H269.8V12.354H223.934ZM263.41 51.972H230.324V18.744H263.41V51.972Z" fill="#003F8A"/>
<path d="M259.86 23.146H251.766L233.874 47.144H241.968L259.86 23.146Z" fill="#003F8A"/>
</svg>
