<svg width="54" height="54" viewBox="0 0 54 54" fill="none" xmlns="http://www.w3.org/2000/svg">
<path d="M20.25 38.2163V15.669L40.5 27.2723L20.25 38.2163ZM29.25 4.51125C40.6035 5.64525 49.5 15.2708 49.5 26.9438C49.5 30.2445 48.771 33.3697 47.493 36.198L51.4035 38.4615C53.0505 34.9627 54 31.0703 54 26.9438C54 12.762 43.1055 1.14975 29.25 0V4.51125ZM6.50475 36.1958C5.22675 33.3675 4.5 30.2423 4.5 26.9438C4.5 15.2708 13.3965 5.64525 24.75 4.51125V0C10.8945 1.14975 0 12.762 0 26.9438C0 31.068 0.94725 34.9605 2.59425 38.4593L6.50475 36.1958ZM45.234 40.0972C41.1458 45.774 34.5037 49.491 27 49.491C19.4963 49.491 12.852 45.7762 8.76375 40.095L4.83525 42.3697C9.711 49.3942 17.8132 54 27 54C36.1845 54 44.2868 49.3943 49.1647 42.372L45.234 40.0972Z" fill="#0F2857"/>
</svg>
