<svg width="61" height="61" viewBox="0 0 61 61" fill="none" xmlns="http://www.w3.org/2000/svg">
<path d="M33.0417 61H48.2917C55.3118 61 61 55.3092 61 48.2917V33.0417H33.0417V61ZM40.6667 43.2083H53.375V45.75H40.6667V43.2083ZM40.6667 48.2917H53.375V50.8333H40.6667V48.2917ZM0 48.2917C0 55.3092 5.69079 61 12.7083 61H27.9583V33.0417H0V48.2917ZM7.625 45.75H12.7083V40.6667H15.25V45.75H20.3333V48.2917H15.25V53.375H12.7083V48.2917H7.625V45.75ZM48.2917 0H33.0417V27.9583H61V12.7083C61 5.69079 55.3118 0 48.2917 0ZM47.0208 7.625C47.7223 7.625 48.2917 8.19433 48.2917 8.89583C48.2917 9.59733 47.7223 10.1667 47.0208 10.1667C46.3193 10.1667 45.75 9.59733 45.75 8.89583C45.75 8.19433 46.3193 7.625 47.0208 7.625ZM47.0208 20.3333C46.3193 20.3333 45.75 19.764 45.75 19.0625C45.75 18.361 46.3193 17.7917 47.0208 17.7917C47.7223 17.7917 48.2917 18.361 48.2917 19.0625C48.2917 19.764 47.7223 20.3333 47.0208 20.3333ZM53.375 15.25H40.6667V12.7083H53.375V15.25ZM0 12.7083V27.9583H27.9583V0H12.7083C5.69079 0 0 5.69079 0 12.7083ZM17.5731 8.58575L19.3726 10.3853L15.7761 13.9792L19.37 17.5731L17.5731 19.37L13.9792 15.7761L10.3853 19.37L8.58575 17.5731L12.1797 13.9792L8.58575 10.3853L10.3827 8.58829L13.9792 12.1822L17.5731 8.58575Z" fill="#0F2857"/>
</svg>
