<svg width="20" height="19" viewBox="0 0 20 19" fill="none" xmlns="http://www.w3.org/2000/svg">
<path d="M20 9.5C20 14.748 15.5242 19 10 19C4.47581 19 0 14.748 0 9.5C0 4.25202 4.47581 0 10 0C15.5242 0 20 4.25202 20 9.5ZM8.22581 5.05645V9.5H5.36694C4.93548 9.5 4.71774 9.99798 5.02419 10.2853L9.65726 14.6637C9.84677 14.8438 10.1492 14.8438 10.3387 14.6637L14.9718 10.2853C15.2782 9.99415 15.0605 9.5 14.629 9.5H11.7742V5.05645C11.7742 4.80363 11.5565 4.59677 11.2903 4.59677H8.70968C8.44355 4.59677 8.22581 4.80363 8.22581 5.05645Z" fill="#111111"/>
</svg>
