<svg width="122" height="25" viewBox="0 0 122 25" fill="none" xmlns="http://www.w3.org/2000/svg">
<rect width="122" height="25" rx="3" fill="#892123"/>
<path d="M23 14.4999V16.9999H13V14.4999H11.3333V16.9999C11.3333 17.9166 12.0833 18.6666 13 18.6666H23C23.9166 18.6666 24.6666 17.9166 24.6666 16.9999V14.4999H23ZM22.1666 11.1666L20.9916 9.99158L18.8333 12.1416V5.33325H17.1666V12.1416L15.0083 9.99158L13.8333 11.1666L18 15.3333L22.1666 11.1666Z" fill="#FAFAFA"/>
<path d="M42.704 13.176C42.704 15.1067 42.176 16.5627 41.12 17.544C40.0747 18.5147 38.6133 19 36.736 19H33.552V7.576H37.072C38.224 7.576 39.2213 7.78933 40.064 8.216C40.9067 8.64267 41.5573 9.272 42.016 10.104C42.4747 10.9253 42.704 11.9493 42.704 13.176ZM41.184 13.224C41.184 11.6987 40.8053 10.584 40.048 9.88C39.3013 9.16533 38.24 8.808 36.864 8.808H34.992V17.768H36.544C39.6373 17.768 41.184 16.2533 41.184 13.224ZM52.5035 14.696C52.5035 16.1147 52.1408 17.2133 51.4155 17.992C50.7008 18.7707 49.7302 19.16 48.5035 19.16C47.7462 19.16 47.0688 18.9893 46.4715 18.648C45.8848 18.296 45.4208 17.7893 45.0795 17.128C44.7382 16.456 44.5675 15.6453 44.5675 14.696C44.5675 13.2773 44.9248 12.184 45.6395 11.416C46.3542 10.648 47.3248 10.264 48.5515 10.264C49.3302 10.264 50.0128 10.44 50.5995 10.792C51.1968 11.1333 51.6608 11.6347 51.9915 12.296C52.3328 12.9467 52.5035 13.7467 52.5035 14.696ZM46.0235 14.696C46.0235 15.7093 46.2208 16.5147 46.6155 17.112C47.0208 17.6987 47.6608 17.992 48.5355 17.992C49.3995 17.992 50.0342 17.6987 50.4395 17.112C50.8448 16.5147 51.0475 15.7093 51.0475 14.696C51.0475 13.6827 50.8448 12.888 50.4395 12.312C50.0342 11.736 49.3942 11.448 48.5195 11.448C47.6448 11.448 47.0102 11.736 46.6155 12.312C46.2208 12.888 46.0235 13.6827 46.0235 14.696ZM59.9585 14.152C59.8198 13.7147 59.6972 13.288 59.5905 12.872C59.4945 12.4453 59.4198 12.1147 59.3665 11.88H59.3025C59.2598 12.1147 59.1905 12.4453 59.0945 12.872C58.9985 13.288 58.8758 13.72 58.7265 14.168L57.1905 18.984H55.5905L53.2385 10.408H54.6945L55.8785 14.984C55.9958 15.4427 56.1078 15.9067 56.2145 16.376C56.3212 16.8453 56.3958 17.2347 56.4385 17.544H56.5025C56.5452 17.3627 56.5932 17.1387 56.6465 16.872C56.7105 16.6053 56.7798 16.328 56.8545 16.04C56.9292 15.7413 57.0038 15.4747 57.0785 15.24L58.5985 10.408H60.1345L61.6065 15.24C61.7238 15.6027 61.8358 15.9973 61.9425 16.424C62.0598 16.8507 62.1398 17.2187 62.1825 17.528H62.2465C62.2785 17.2613 62.3478 16.8933 62.4545 16.424C62.5718 15.9547 62.6945 15.4747 62.8225 14.984L64.0225 10.408H65.4625L63.0785 18.984H61.4305L59.9585 14.152ZM71.1286 10.264C72.1526 10.264 72.926 10.5147 73.4486 11.016C73.9713 11.5067 74.2326 12.3067 74.2326 13.416V19H72.8406V13.512C72.8406 12.136 72.2006 11.448 70.9206 11.448C69.9713 11.448 69.3153 11.7147 68.9526 12.248C68.59 12.7813 68.4086 13.5493 68.4086 14.552V19H67.0006V10.424H68.1366L68.3446 11.592H68.4246C68.702 11.144 69.086 10.8133 69.5766 10.6C70.0673 10.376 70.5846 10.264 71.1286 10.264ZM78.2993 19H76.8913V6.84H78.2993V19ZM88.4722 14.696C88.4722 16.1147 88.1096 17.2133 87.3843 17.992C86.6696 18.7707 85.6989 19.16 84.4723 19.16C83.7149 19.16 83.0376 18.9893 82.4403 18.648C81.8536 18.296 81.3896 17.7893 81.0483 17.128C80.7069 16.456 80.5363 15.6453 80.5363 14.696C80.5363 13.2773 80.8936 12.184 81.6083 11.416C82.3229 10.648 83.2936 10.264 84.5203 10.264C85.2989 10.264 85.9816 10.44 86.5683 10.792C87.1656 11.1333 87.6296 11.6347 87.9603 12.296C88.3016 12.9467 88.4722 13.7467 88.4722 14.696ZM81.9923 14.696C81.9923 15.7093 82.1896 16.5147 82.5843 17.112C82.9896 17.6987 83.6296 17.992 84.5043 17.992C85.3683 17.992 86.0029 17.6987 86.4083 17.112C86.8136 16.5147 87.0163 15.7093 87.0163 14.696C87.0163 13.6827 86.8136 12.888 86.4083 12.312C86.0029 11.736 85.3629 11.448 84.4883 11.448C83.6136 11.448 82.9789 11.736 82.5843 12.312C82.1896 12.888 81.9923 13.6827 81.9923 14.696ZM93.9518 10.28C94.9971 10.28 95.7704 10.5093 96.2718 10.968C96.7731 11.4267 97.0238 12.1573 97.0238 13.16V19H95.9998L95.7278 17.784H95.6638C95.2904 18.2533 94.8958 18.6 94.4798 18.824C94.0744 19.048 93.5091 19.16 92.7838 19.16C92.0051 19.16 91.3598 18.9573 90.8478 18.552C90.3358 18.136 90.0798 17.4907 90.0798 16.616C90.0798 15.7627 90.4158 15.1067 91.0878 14.648C91.7598 14.1787 92.7944 13.9227 94.1918 13.88L95.6478 13.832V13.32C95.6478 12.6053 95.4931 12.1093 95.1838 11.832C94.8744 11.5547 94.4371 11.416 93.8718 11.416C93.4238 11.416 92.9971 11.4853 92.5918 11.624C92.1864 11.752 91.8078 11.9013 91.4557 12.072L91.0238 11.016C91.3971 10.8133 91.8398 10.6427 92.3518 10.504C92.8638 10.3547 93.3971 10.28 93.9518 10.28ZM94.3678 14.856C93.3011 14.8987 92.5598 15.0693 92.1438 15.368C91.7384 15.6667 91.5358 16.088 91.5358 16.632C91.5358 17.112 91.6798 17.464 91.9678 17.688C92.2664 17.912 92.6451 18.024 93.1038 18.024C93.8291 18.024 94.4318 17.8267 94.9118 17.432C95.3918 17.0267 95.6318 16.408 95.6318 15.576V14.808L94.3678 14.856ZM102.713 19.16C101.646 19.16 100.793 18.792 100.153 18.056C99.5125 17.3093 99.1925 16.2 99.1925 14.728C99.1925 13.256 99.5125 12.1467 100.153 11.4C100.803 10.6427 101.662 10.264 102.729 10.264C103.39 10.264 103.929 10.3867 104.345 10.632C104.771 10.8773 105.118 11.176 105.385 11.528H105.481C105.47 11.3893 105.449 11.1867 105.417 10.92C105.395 10.6427 105.385 10.424 105.385 10.264V6.84H106.793V19H105.657L105.449 17.848H105.385C105.129 18.2107 104.787 18.52 104.361 18.776C103.934 19.032 103.385 19.16 102.713 19.16ZM102.937 17.992C103.843 17.992 104.478 17.7467 104.841 17.256C105.214 16.7547 105.401 16.0027 105.401 15V14.744C105.401 13.6773 105.225 12.8613 104.873 12.296C104.521 11.72 103.87 11.432 102.921 11.432C102.163 11.432 101.593 11.736 101.209 12.344C100.835 12.9413 100.649 13.7467 100.649 14.76C100.649 15.784 100.835 16.5787 101.209 17.144C101.593 17.7093 102.169 17.992 102.937 17.992Z" fill="white"/>
</svg>
