<svg width="36" height="23" viewBox="0 0 36 23" fill="none" xmlns="http://www.w3.org/2000/svg">
<path d="M7.71429 13.5321H2.57143C1.15152 13.5321 0 14.5163 0 15.7298V20.1251C0 21.3386 1.15152 22.3228 2.57143 22.3228H7.71429C9.1342 22.3228 10.2857 21.3386 10.2857 20.1251V15.7298C10.2857 14.5163 9.1342 13.5321 7.71429 13.5321ZM20.5714 13.5321H15.4286C14.0087 13.5321 12.8571 14.5163 12.8571 15.7298V20.1251C12.8571 21.3386 14.0087 22.3228 15.4286 22.3228H20.5714C21.9913 22.3228 23.1429 21.3386 23.1429 20.1251V15.7298C23.1429 14.5163 21.9913 13.5321 20.5714 13.5321ZM33.4286 13.5321H28.2857C26.8658 13.5321 25.7143 14.5163 25.7143 15.7298V20.1251C25.7143 21.3386 26.8658 22.3228 28.2857 22.3228H33.4286C34.8485 22.3228 36 21.3386 36 20.1251V15.7298C36 14.5163 34.8485 13.5321 33.4286 13.5321ZM7.71429 0.346191H2.57143C1.15152 0.346191 0 1.33033 0 2.54385V6.93916C0 8.15268 1.15152 9.13682 2.57143 9.13682H7.71429C9.1342 9.13682 10.2857 8.15268 10.2857 6.93916V2.54385C10.2857 1.33033 9.1342 0.346191 7.71429 0.346191ZM20.5714 0.346191H15.4286C14.0087 0.346191 12.8571 1.33033 12.8571 2.54385V6.93916C12.8571 8.15268 14.0087 9.13682 15.4286 9.13682H20.5714C21.9913 9.13682 23.1429 8.15268 23.1429 6.93916V2.54385C23.1429 1.33033 21.9913 0.346191 20.5714 0.346191ZM33.4286 0.346191H28.2857C26.8658 0.346191 25.7143 1.33033 25.7143 2.54385V6.93916C25.7143 8.15268 26.8658 9.13682 28.2857 9.13682H33.4286C34.8485 9.13682 36 8.15268 36 6.93916V2.54385C36 1.33033 34.8485 0.346191 33.4286 0.346191Z" fill="#892123"/>
</svg>
