<svg width="64" height="48" viewBox="0 0 64 48" fill="none" xmlns="http://www.w3.org/2000/svg">
<path d="M61.3333 5.33333V42.3547L58.6667 42.6667V0C48.28 0.317333 38.6533 2.032 31.9947 6.176C25.3387 2.032 15.7227 0.317333 5.33333 0V42.6667L2.66667 42.3547V5.33333H0V45.3333H24.152C28.096 45.3333 28.528 48 31.9947 48C35.472 48 35.8907 45.3333 39.84 45.3333H64V5.33333H61.3333ZM29.3333 41.72C24.144 39.6613 18.3013 38.336 10.6667 37.7627V5.62667C16.9387 6.152 23.9893 7.42667 29.3333 10.752V41.72ZM53.3333 37.7627C45.6987 38.336 39.856 39.6613 34.6667 41.72V10.752C40.0107 7.42667 47.0613 6.152 53.3333 5.62667V37.7627Z" fill="#0F2857"/>
</svg>
