<svg width="79" height="71" viewBox="0 0 79 71" fill="none" xmlns="http://www.w3.org/2000/svg">
<path d="M55.8239 54.5538L69.8178 45.4753L68.2551 43.586C67.9724 43.2633 67.5825 43.0518 67.1562 42.9898C66.7299 42.9278 66.2953 43.0193 65.9312 43.2479L52.8087 51.8193C54.0858 52.3822 55.144 53.3419 55.8239 54.5538ZM56.1945 42.1442L45.7867 48.9257L49.0222 50.2482L59.3499 43.4965L58.5185 42.5021C58.2374 42.1777 57.849 41.9634 57.423 41.8978C56.997 41.8322 56.5614 41.9195 56.1945 42.1442ZM78.1922 47.3646C77.7014 46.7815 77.012 46.3975 76.2549 46.2857C75.4978 46.1739 74.7256 46.342 74.0851 46.758L56.8456 57.9246C56.7844 57.9648 56.7209 58.0013 56.6553 58.034C56.6041 59.0684 56.3058 60.0758 55.7848 60.973C55.2639 61.8703 54.5354 62.6316 53.6595 63.1941C52.7835 63.7566 51.7853 64.1042 50.7473 64.208C49.7093 64.3119 48.6614 64.169 47.69 63.7914L31.2017 57.338C30.9869 57.2614 30.7898 57.1428 30.6221 56.9892C30.4544 56.8355 30.3195 56.65 30.2254 56.4436C30.1314 56.2371 30.0801 56.0141 30.0746 55.7876C30.0691 55.5611 30.1095 55.3358 30.1935 55.1251C30.2774 54.9145 30.4032 54.7227 30.5633 54.5612C30.7234 54.3998 30.9145 54.2719 31.1254 54.1852C31.3362 54.0985 31.5625 54.0548 31.7907 54.0566C32.0189 54.0584 32.2445 54.1058 32.4539 54.1958L48.9421 60.6392C49.7145 60.9327 50.5721 60.9132 51.3301 60.5849C52.0882 60.2567 52.686 59.6459 52.9947 58.8843C53.3034 58.1227 53.2984 57.2712 52.9807 56.5133C52.663 55.7553 52.058 55.1516 51.2961 54.8322L26.8543 44.8588C25.2702 44.2106 23.5403 43.9951 21.844 44.2347C20.1477 44.4742 18.5469 45.1601 17.2078 46.2211L0.919922 59.1179L9.81514 69.9763L13.812 66.7247C15.2478 65.5602 16.9451 64.7561 18.7602 64.3805C20.5753 64.0049 22.4549 64.0689 24.2398 64.567L43.9035 70.0757C45.645 70.5649 47.4747 70.6607 49.2584 70.3561C51.0421 70.0516 52.7344 69.3544 54.2111 68.3157L77.6012 51.8889C77.9533 51.641 78.2499 51.3235 78.4724 50.9562C78.6949 50.589 78.8384 50.1801 78.894 49.7551C78.9495 49.3301 78.9158 48.8984 78.795 48.4869C78.6742 48.0755 78.469 47.6934 78.1922 47.3646ZM43.5729 40.6328C47.5676 40.6318 51.4723 39.4551 54.7933 37.2514C58.1143 35.0478 60.7026 31.9162 62.2308 28.2525C63.7591 24.5888 64.1587 20.5576 63.3791 16.6685C62.5995 12.7794 60.6758 9.20707 57.8512 6.40315C55.0265 3.59924 51.4277 1.68964 47.5099 0.915804C43.592 0.141964 39.531 0.538627 35.8402 2.05564C32.1494 3.57266 28.9946 6.1419 26.7747 9.43855C24.5547 12.7352 23.3693 16.6112 23.3683 20.5765C23.3728 25.8944 25.503 30.9932 29.2911 34.7535C33.0792 38.5138 38.2157 40.6283 43.5729 40.6328ZM36.4808 24.9716C36.7637 24.6222 37.1749 24.3987 37.6239 24.3502C38.0729 24.3017 38.5229 24.4322 38.8749 24.7131C39.5576 25.2406 40.2888 25.7033 41.0586 26.0952C41.8155 26.5207 42.6561 26.7785 43.5228 26.8509C43.6059 26.8398 43.6895 26.8331 43.7733 26.8311C43.8037 26.8294 43.8341 26.8328 43.8634 26.841C45.947 26.7515 47.0188 25.9461 47.0188 24.4148C47.0188 22.8835 46.0471 22.3465 43.8434 21.4814C43.633 21.3919 43.4126 21.3024 43.2023 21.2229L42.7916 21.0538C40.6078 20.1589 36.9616 18.6773 36.9616 15.1672C36.9616 13.7552 37.5025 10.6628 42.0703 10.0463V7.72944C42.0703 7.28111 42.2498 6.85115 42.5691 6.53414C42.8885 6.21712 43.3216 6.03903 43.7733 6.03903C44.2249 6.03903 44.658 6.21712 44.9774 6.53414C45.2968 6.85115 45.4762 7.28111 45.4762 7.72944V10.1358C47.1031 10.56 48.6264 11.3076 49.9538 12.3333C50.1288 12.4717 50.2746 12.643 50.3828 12.8373C50.4911 13.0317 50.5598 13.2453 50.5849 13.466C50.61 13.6866 50.5911 13.9101 50.5292 14.1235C50.4674 14.3369 50.3637 14.5362 50.2243 14.7098C50.0849 14.8835 49.9123 15.0282 49.7165 15.1357C49.5208 15.2432 49.3056 15.3113 49.0833 15.3363C48.8609 15.3612 48.6359 15.3424 48.4209 15.281C48.2059 15.2196 48.0052 15.1167 47.8302 14.9783C46.6634 14.0549 45.2566 13.4791 43.7733 13.3177C40.3674 13.3177 40.3674 14.5706 40.3674 15.1672C40.3674 16.4102 42.5111 17.2852 44.0838 17.9216L45.1055 18.3392C47.0989 19.1248 50.4246 20.4373 50.4246 24.4148C50.4246 27.4078 48.5715 29.4562 45.4762 30.0528V32.4094C45.4762 32.8577 45.2968 33.2877 44.9774 33.6047C44.658 33.9217 44.2249 34.0998 43.7733 34.0998C43.3216 34.0998 42.8885 33.9217 42.5691 33.6047C42.2498 33.2877 42.0703 32.8577 42.0703 32.4094V30.0528C40.1325 29.5145 38.3236 28.5947 36.7512 27.3481C36.5762 27.2098 36.4303 27.0385 36.322 26.8442C36.2137 26.6498 36.145 26.4362 36.1199 26.2155C36.0947 25.9948 36.1137 25.7713 36.1756 25.5579C36.2376 25.3445 36.3412 25.1452 36.4808 24.9716Z" fill="#BC2E31"/>
</svg>
