<svg width="91" height="59" viewBox="0 0 91 59" fill="none" xmlns="http://www.w3.org/2000/svg">
<path d="M33.7293 23.8886C32.7907 20.2767 33.6714 19.5647 34.5235 19.5713C34.7202 19.5732 34.7515 19.5694 34.9225 19.6208L34.9244 19.5418C34.9244 19.5418 32.4003 11.1014 38.4717 7.38952C38.4717 7.38952 37.4049 6.5232 37.4875 5.27513C37.4875 5.27513 40.271 5.59215 42.9386 5.59786C44.1508 5.60071 45.3393 5.53883 46.2313 5.35415C46.5885 5.27989 46.9486 5.25038 47.3058 5.2599C49.8109 5.32368 52.2116 7.28004 52.6334 9.16881C52.6334 9.16881 52.6704 9.16595 52.7379 9.16595C53.5292 9.16405 58.5044 9.5458 56.117 19.5761C56.117 19.5761 56.1151 19.5894 56.1113 19.6142C56.2263 19.5894 56.3479 19.5732 56.4695 19.5723C57.3235 19.5618 58.2118 20.2682 57.2713 23.8896C56.5198 26.7827 55.8225 27.5281 55.3057 27.5272C55.1338 27.5262 54.9808 27.4434 54.8535 27.3282C54.4916 29.6035 53.5397 32.3738 51.1827 34.3416C45.363 38.8198 39.8388 34.4301 39.8388 34.4301C37.4258 32.4757 36.4473 29.6873 36.072 27.3901C35.958 27.4739 35.8269 27.5291 35.6825 27.5262C35.1657 27.5148 34.4751 26.758 33.7293 23.8886ZM67.3593 49.0252C67.5246 46.6833 67.3289 41.9443 63.2344 40.9009C57.7434 39.5024 53.2822 36.3541 53.2822 36.3541L49.1478 49.4575L48.5816 51.2348L46.7291 45.976C51.3699 39.4872 45.4998 39.7394 45.4998 39.7394C45.4998 39.7394 39.6298 39.4872 44.2705 45.976L42.4351 51.193L41.8632 49.4337L41.8528 49.4622L41.1973 47.3859L37.7165 36.3551C37.7165 36.3551 33.2553 39.5024 27.7643 40.9018C23.6717 41.9443 23.4741 46.6786 23.6384 49.0214C23.6384 49.0214 23.5909 52.2773 24.1144 53.5987C24.1144 53.5987 32.1086 58.8061 45.4989 58.8061L45.5245 58.5034L45.5169 58.8061C58.9072 58.8061 66.9014 53.5987 66.9014 53.5987C67.4239 52.2773 67.3774 49.0214 67.3774 49.0214L67.3593 49.0252ZM26.3279 38.7246C23.1036 39.5462 21.8173 42.2032 21.3584 44.7869C19.5895 44.9773 18.3897 45.0297 18.3099 45.0335C18.307 45.0335 18.3023 45.0335 18.3023 45.0335C18.3013 45.0335 4.47502 44.4785 0.228516 39.6014V35.4745C0.228516 35.4745 0.359616 32.926 2.84672 31.7541C5.33382 30.5822 6.59922 30.347 6.68662 30.3004C6.77402 30.2537 10.27 29.5026 11.4338 28.3459L8.19902 35.8505L11.6903 35.3345L18.3032 45.0345L11.6893 35.3336L17.3361 41.6691L13.5684 28.5487V25.627C7.09132 25.6841 5.18277 22.9024 5.18277 22.9024C5.18277 22.9024 8.88397 22.8452 8.65501 13.0549C8.42607 3.2645 12.93 1.64801 14.6087 1.00826C19.4974 -0.8548 21.9541 2.10783 21.9541 2.10783C27.6208 1.58232 29.1845 7.78651 28.4891 14.8523C27.7928 21.918 31.6659 23.0176 31.6659 23.0176C29.005 25.7422 23.3952 25.5699 23.3952 25.5699V28.5487L19.3758 41.5559L24.8886 35.3698L24.9133 35.3336L24.92 35.3345L24.9209 35.3336L24.92 35.3345L28.4036 35.8496L25.3931 28.3307C25.433 28.3707 25.4767 28.4106 25.5223 28.4497C25.5375 28.462 25.5527 28.4754 25.5679 28.4878C25.5992 28.5144 25.6315 28.5401 25.6657 28.5658C25.6847 28.5801 25.7037 28.5944 25.7237 28.6087C25.756 28.6325 25.7892 28.6563 25.8234 28.6801C25.8434 28.6943 25.8643 28.7086 25.8852 28.7219C25.9222 28.7467 25.9602 28.7705 25.9982 28.7952C26.0172 28.8076 26.0362 28.819 26.0552 28.8314C26.1084 28.8638 26.1626 28.8962 26.2177 28.9276C26.2234 28.9304 26.2291 28.9342 26.2348 28.9371C26.2956 28.9714 26.3583 29.0056 26.4219 29.039C26.4428 29.0504 26.4647 29.0609 26.4856 29.0713C26.5293 29.0942 26.573 29.1161 26.6176 29.138C26.6423 29.1503 26.667 29.1618 26.6927 29.1741C26.7354 29.1951 26.7791 29.2151 26.8219 29.2351C26.8466 29.2465 26.8713 29.2579 26.8969 29.2693C26.9435 29.2903 26.99 29.3112 27.0375 29.3322C27.0594 29.3417 27.0803 29.3512 27.1021 29.3607C27.1677 29.3883 27.2332 29.4159 27.2988 29.4436C27.3016 29.4445 27.3054 29.4464 27.3083 29.4474C27.3795 29.4759 27.4508 29.5045 27.5211 29.5321C27.5372 29.5388 27.5543 29.5445 27.5705 29.5511C27.6246 29.5721 27.6788 29.593 27.7329 29.613C27.7538 29.6206 27.7747 29.6282 27.7947 29.6359C27.845 29.6549 27.8954 29.673 27.9457 29.6911C27.9657 29.6977 27.9856 29.7054 28.0046 29.712C28.0588 29.7311 28.1129 29.7501 28.1671 29.7682C28.1804 29.7729 28.1946 29.7777 28.2079 29.7825C28.3466 29.8301 28.4825 29.8748 28.6126 29.9158C29.3327 30.1452 29.8818 30.2804 29.917 30.2994C30.0044 30.3461 31.2698 30.5812 33.7569 31.7531C34.0181 31.8759 34.2509 32.0149 34.4618 32.1634C34.4675 32.1672 34.4732 32.171 34.4779 32.1748C34.5368 32.2167 34.5938 32.2596 34.6489 32.3034C34.6603 32.3119 34.6717 32.3215 34.6831 32.33C34.7354 32.3719 34.7867 32.4147 34.8361 32.4576C34.8484 32.4681 34.8598 32.4785 34.8722 32.489C34.9206 32.5328 34.9672 32.5756 35.0128 32.6204C35.0232 32.6309 35.0337 32.6404 35.0432 32.6508C35.0888 32.6965 35.1334 32.7422 35.1762 32.7889C35.1828 32.7956 35.1885 32.8032 35.1952 32.8098C35.3776 33.0107 35.5315 33.2173 35.6626 33.4239C35.6721 33.4391 35.6825 33.4553 35.693 33.4705C35.7158 33.5067 35.7367 33.5438 35.7576 33.58C35.7718 33.6048 35.7861 33.6295 35.8003 33.6533C35.8174 33.6847 35.8345 33.7161 35.8507 33.7466C35.8668 33.7771 35.882 33.8066 35.8972 33.837C35.9105 33.8637 35.9238 33.8904 35.9362 33.9161C35.9533 33.9522 35.9694 33.9875 35.9856 34.0227C35.9951 34.0427 36.0036 34.0636 36.0131 34.0836C36.0321 34.1283 36.0502 34.1721 36.0673 34.2159C36.0711 34.2264 36.0758 34.2369 36.0796 34.2474C36.1224 34.3578 36.1594 34.4644 36.1917 34.5663C36.1917 34.5663 36.1917 34.5663 36.1908 34.5663C36.1917 34.5691 36.1927 34.572 36.1936 34.5748L35.6825 34.8452H35.6806C35.6578 34.8576 35.636 34.869 35.6132 34.8814C33.0871 36.2466 29.6367 37.8821 26.3279 38.7246ZM18.3127 45.0183L18.3213 44.9726L18.3023 45.0335L18.3127 45.0183ZM55.3865 34.8823C55.3637 34.87 55.3418 34.8585 55.319 34.8462H55.3171L54.806 34.5758C54.807 34.5729 54.8079 34.5701 54.8089 34.5672C54.8089 34.5672 54.8089 34.5672 54.8079 34.5672C54.8393 34.4663 54.8763 34.3597 54.92 34.2483C54.9238 34.2378 54.9286 34.2274 54.9324 34.2169C54.9495 34.1731 54.9675 34.1293 54.9865 34.0846C54.9951 34.0646 55.0046 34.0436 55.0141 34.0236C55.0302 33.9884 55.0464 33.9532 55.0635 33.917C55.0758 33.8904 55.0891 33.8646 55.1024 33.838C55.1176 33.8085 55.1328 33.778 55.149 33.7476C55.1651 33.7161 55.1822 33.6857 55.1993 33.6543C55.2126 33.6295 55.2278 33.6048 55.2421 33.581C55.263 33.5448 55.2839 33.5086 55.3067 33.4715C55.3162 33.4562 55.3266 33.4401 55.3371 33.4248C55.4672 33.2192 55.6221 33.0117 55.8045 32.8108C55.8111 32.8041 55.8168 32.7965 55.8235 32.7898C55.8662 32.7432 55.9109 32.6975 55.9565 32.6518C55.9669 32.6413 55.9764 32.6318 55.9869 32.6213C56.0325 32.5766 56.079 32.5337 56.1275 32.49C56.1389 32.4795 56.1512 32.469 56.1636 32.4585C56.213 32.4157 56.2633 32.3729 56.3165 32.331C56.3279 32.3224 56.3393 32.3129 56.3507 32.3043C56.4058 32.2605 56.4628 32.2177 56.5217 32.1758C56.5274 32.172 56.5331 32.1682 56.5379 32.1644C56.7497 32.0159 56.9825 31.8769 57.2428 31.7541C59.7299 30.5812 60.9953 30.347 61.0827 30.3004C61.1178 30.2813 61.6669 30.1461 62.387 29.9167C62.5172 29.8748 62.6521 29.831 62.7917 29.7834C62.805 29.7787 62.8193 29.7739 62.8326 29.7691C62.8858 29.7511 62.9399 29.732 62.995 29.713C63.015 29.7063 63.0349 29.6987 63.0539 29.692C63.1043 29.6739 63.1546 29.6559 63.205 29.6368C63.2259 29.6292 63.2458 29.6216 63.2667 29.614C63.3209 29.594 63.375 29.573 63.4292 29.5521C63.4453 29.5454 63.4624 29.5397 63.4786 29.533C63.5498 29.5054 63.6211 29.4769 63.6914 29.4483C63.6942 29.4474 63.698 29.4455 63.7009 29.4445C63.7664 29.4179 63.832 29.3902 63.8975 29.3617C63.9194 29.3522 63.9412 29.3426 63.9621 29.3331C64.0096 29.3122 64.0562 29.2922 64.1027 29.2703C64.1274 29.2589 64.1521 29.2474 64.1778 29.236C64.2215 29.216 64.2642 29.1951 64.307 29.1751C64.3317 29.1627 64.3573 29.1513 64.382 29.1389C64.4267 29.117 64.4704 29.0942 64.5141 29.0723C64.535 29.0618 64.5568 29.0504 64.5777 29.0399C64.6414 29.0066 64.7041 28.9723 64.7649 28.938C64.7706 28.9352 64.7763 28.9314 64.782 28.9285C64.8371 28.8971 64.8912 28.8647 64.9444 28.8324C64.9644 28.821 64.9824 28.8086 65.0014 28.7962C65.0394 28.7724 65.0774 28.7476 65.1145 28.7229C65.1354 28.7086 65.1553 28.6953 65.1762 28.681C65.2104 28.6572 65.2437 28.6334 65.276 28.6096C65.295 28.5953 65.3149 28.581 65.3339 28.5668C65.3672 28.5411 65.3995 28.5144 65.4318 28.4887C65.447 28.4763 65.4631 28.463 65.4774 28.4506C65.523 28.4116 65.5657 28.3716 65.6066 28.3316L62.596 35.8505L66.0797 35.3355L66.0787 35.3345L66.0797 35.3355L66.0863 35.3345L66.111 35.3707L71.6239 41.5568L67.6044 28.5496V25.5708C67.6044 25.5708 61.9947 25.7431 59.3337 23.0185C59.3337 23.0185 63.2069 21.9189 62.5105 14.8532C61.8142 7.78746 63.3788 1.58422 69.0456 2.10878C69.0456 2.10878 71.5023 -0.853846 76.391 1.00922C78.0696 1.64896 82.5736 3.26546 82.3446 13.0558C82.1157 22.8462 85.8169 22.9033 85.8169 22.9033C85.8169 22.9033 83.9093 25.6851 77.4312 25.6279V28.5496L73.6635 41.6701L79.3103 35.3345L72.6983 45.0335L79.3113 35.3336L82.8025 35.8496L79.5678 28.3449C80.7315 29.5016 84.2275 30.2528 84.3149 30.2994C84.4023 30.3461 85.6677 30.5812 88.1548 31.7531C90.6419 32.925 90.773 35.4735 90.773 35.4735V39.6004C86.5256 44.4775 72.6993 45.0326 72.6993 45.0326C72.6993 45.0326 72.6945 45.0326 72.6917 45.0326C72.6109 45.0288 71.412 44.9773 69.6431 44.786C69.1843 42.2023 67.897 39.5452 64.6737 38.7237C61.3629 37.8821 57.9125 36.2466 55.3865 34.8823ZM72.6974 45.0335L72.6784 44.9726L72.6869 45.0183L72.6974 45.0335Z" fill="#BC2E31"/>
</svg>
