<svg width="80" height="85" viewBox="0 0 80 85" fill="none" xmlns="http://www.w3.org/2000/svg">
<path d="M59.2698 4.11914C54.5322 4.11914 50.1706 5.72394 46.6832 8.41434C41.861 7.44202 37.537 4.76106 34.435 0.739616C33.73 -0.185504 32.179 -0.185504 31.4646 0.739616C27.5072 5.88442 21.5382 8.83914 15.0898 8.83914H5.6898C2.5784 8.83914 0.0498047 11.3785 0.0498047 14.5031V46.7691C0.0498047 65.7246 14.084 81.867 32.696 84.3402C32.7806 84.3497 32.8652 84.3497 32.9498 84.3497C33.025 84.3497 33.1096 84.3497 33.1942 84.3402C51.8062 81.867 65.8498 65.7246 65.8498 46.7691C65.8498 46.7124 65.831 46.6558 65.831 46.5897H65.8498V44.5695C74.0278 41.7942 79.9498 34.0251 79.9498 24.8871C79.9498 13.427 70.672 4.11914 59.2698 4.11914ZM62.0898 46.7691C62.0898 63.7516 49.5784 78.2326 32.9498 80.5642C16.3118 78.2326 3.8098 63.7516 3.8098 46.7691V14.5031C3.8098 13.4553 4.6464 12.6151 5.6898 12.6151H15.0898C21.9424 12.6151 28.3344 9.79258 32.9498 4.80826C35.8638 7.95178 39.4828 10.2363 43.4778 11.4918C42.237 12.9644 41.1936 14.6164 40.3946 16.4006C38.1574 15.5699 36.0048 14.4843 34.0026 13.1249C33.3634 12.6907 32.5268 12.6907 31.897 13.1249C26.9244 16.495 21.1058 18.2791 15.0898 18.2791H11.3298C10.2864 18.2791 9.4498 19.1193 9.4498 20.1671V46.8446C9.4498 60.6459 19.1882 72.4364 32.6114 74.8814C32.7242 74.9003 32.837 74.9097 32.9498 74.9097C33.0532 74.9097 33.166 74.9003 33.2788 74.8814C46.702 72.4364 56.4498 60.6459 56.4498 46.8446V45.4475C57.371 45.5796 58.311 45.6457 59.2698 45.6457C60.2192 45.6457 61.1592 45.5796 62.0898 45.4475V46.5897H62.0992C62.0992 46.6558 62.0898 46.7124 62.0898 46.7691ZM52.6898 44.5695V46.8446C52.6898 58.7012 44.4084 68.8492 32.9498 71.1054C21.4818 68.8492 13.2098 58.7012 13.2098 46.8446V22.0551H15.0898C21.4442 22.0551 27.5918 20.2899 32.9498 16.9387C34.9238 18.1753 37.0106 19.1854 39.1726 19.9878C38.7872 21.5548 38.5898 23.1974 38.5898 24.8871C38.5898 34.0251 44.5024 41.7942 52.6898 44.5695ZM59.2698 41.8697C49.9356 41.8697 42.3498 34.2516 42.3498 24.8871C42.3498 15.5132 49.9356 7.89514 59.2698 7.89514C68.5946 7.89514 76.1898 15.5132 76.1898 24.8871C76.1898 34.2516 68.5946 41.8697 59.2698 41.8697Z" fill="#BC2E31"/>
</svg>
