<svg width="38" height="25" viewBox="0 0 38 25" fill="none" xmlns="http://www.w3.org/2000/svg">
<path d="M5.9375 18.7682H1.1875C0.872555 18.7682 0.57051 18.8658 0.347811 19.0394C0.125111 19.213 0 19.4485 0 19.694L0 23.397C0 23.6425 0.125111 23.878 0.347811 24.0516C0.57051 24.2252 0.872555 24.3228 1.1875 24.3228H5.9375C6.25244 24.3228 6.55449 24.2252 6.77719 24.0516C6.99989 23.878 7.125 23.6425 7.125 23.397V19.694C7.125 19.4485 6.99989 19.213 6.77719 19.0394C6.55449 18.8658 6.25244 18.7682 5.9375 18.7682ZM5.9375 0.253174H1.1875C0.872555 0.253174 0.57051 0.350708 0.347811 0.524321C0.125111 0.697933 0 0.933402 0 1.17893L0 4.88194C0 5.12746 0.125111 5.36293 0.347811 5.53655C0.57051 5.71016 0.872555 5.80769 1.1875 5.80769H5.9375C6.25244 5.80769 6.55449 5.71016 6.77719 5.53655C6.99989 5.36293 7.125 5.12746 7.125 4.88194V1.17893C7.125 0.933402 6.99989 0.697933 6.77719 0.524321C6.55449 0.350708 6.25244 0.253174 5.9375 0.253174ZM5.9375 9.5107H1.1875C0.872555 9.5107 0.57051 9.60824 0.347811 9.78185C0.125111 9.95546 0 10.1909 0 10.4365L0 14.1395C0 14.385 0.125111 14.6205 0.347811 14.7941C0.57051 14.9677 0.872555 15.0652 1.1875 15.0652H5.9375C6.25244 15.0652 6.55449 14.9677 6.77719 14.7941C6.99989 14.6205 7.125 14.385 7.125 14.1395V10.4365C7.125 10.1909 6.99989 9.95546 6.77719 9.78185C6.55449 9.60824 6.25244 9.5107 5.9375 9.5107ZM36.8125 19.694H13.0625C12.7476 19.694 12.4455 19.7915 12.2228 19.9651C12.0001 20.1387 11.875 20.3742 11.875 20.6197V22.4712C11.875 22.7168 12.0001 22.9522 12.2228 23.1259C12.4455 23.2995 12.7476 23.397 13.0625 23.397H36.8125C37.1274 23.397 37.4295 23.2995 37.6522 23.1259C37.8749 22.9522 38 22.7168 38 22.4712V20.6197C38 20.3742 37.8749 20.1387 37.6522 19.9651C37.4295 19.7915 37.1274 19.694 36.8125 19.694ZM36.8125 1.17893H13.0625C12.7476 1.17893 12.4455 1.27646 12.2228 1.45007C12.0001 1.62369 11.875 1.85915 11.875 2.10468V3.95619C11.875 4.20171 12.0001 4.43718 12.2228 4.61079C12.4455 4.7844 12.7476 4.88194 13.0625 4.88194H36.8125C37.1274 4.88194 37.4295 4.7844 37.6522 4.61079C37.8749 4.43718 38 4.20171 38 3.95619V2.10468C38 1.85915 37.8749 1.62369 37.6522 1.45007C37.4295 1.27646 37.1274 1.17893 36.8125 1.17893ZM36.8125 10.4365H13.0625C12.7476 10.4365 12.4455 10.534 12.2228 10.7076C12.0001 10.8812 11.875 11.1167 11.875 11.3622V13.2137C11.875 13.4592 12.0001 13.6947 12.2228 13.8683C12.4455 14.0419 12.7476 14.1395 13.0625 14.1395H36.8125C37.1274 14.1395 37.4295 14.0419 37.6522 13.8683C37.8749 13.6947 38 13.4592 38 13.2137V11.3622C38 11.1167 37.8749 10.8812 37.6522 10.7076C37.4295 10.534 37.1274 10.4365 36.8125 10.4365Z" fill="#892123"/>
</svg>
