<svg width="20" height="20" viewBox="0 0 20 20" fill="none" xmlns="http://www.w3.org/2000/svg">
<path d="M15.7143 11.9661C14.705 11.9661 13.7774 12.2585 13.0451 12.7474L8.46985 10.3522C8.60534 9.83882 8.60534 9.30686 8.46985 8.7935L13.0451 6.39826C13.7774 6.88726 14.705 7.17965 15.7143 7.17965C18.0813 7.17965 20.0001 5.57241 20.0001 3.58982C20.0001 1.60723 18.0813 0 15.7143 0C13.3474 0 11.4286 1.60723 11.4286 3.58982C11.4286 3.85749 11.4639 4.1182 11.5302 4.36915L6.95493 6.76439C6.22265 6.27542 5.29502 5.98304 4.28573 5.98304C1.9188 5.98304 0 7.59027 0 9.57286C0 11.5555 1.9188 13.1627 4.28573 13.1627C5.29502 13.1627 6.22265 12.8703 6.95493 12.3813L11.5302 14.7766C11.4626 15.0325 11.4285 15.2938 11.4286 15.5559C11.4286 17.5385 13.3474 19.1457 15.7143 19.1457C18.0813 19.1457 20.0001 17.5385 20.0001 15.5559C20.0001 13.5733 18.0813 11.9661 15.7143 11.9661Z" fill="#111111"/>
</svg>
