<svg width="76" height="67" viewBox="0 0 76 67" fill="none" xmlns="http://www.w3.org/2000/svg">
<path d="M75.1199 63.0463V65.6683C75.1199 66.0301 74.8332 66.3238 74.4799 66.3238H1.51988C1.1666 66.3238 0.879883 66.0301 0.879883 65.6683V63.0463C0.879883 62.6845 1.1666 62.3908 1.51988 62.3908H5.99988V15.1955C5.99988 14.4718 6.57332 13.8845 7.27988 13.8845H12.3999C13.1064 13.8845 13.6799 14.4718 13.6799 15.1955V62.3908H20.0799V25.6833C20.0799 24.9597 20.6533 24.3723 21.3599 24.3723H26.4799C27.1864 24.3723 27.7599 24.9597 27.7599 25.6833V62.3908H34.1599V8.64055C34.1599 7.91689 34.7333 7.32957 35.4399 7.32957H40.5599C41.2664 7.32957 41.8399 7.91689 41.8399 8.64055V62.3908H48.2399V15.1955C48.2399 14.4718 48.8133 13.8845 49.5199 13.8845H54.6399C55.3464 13.8845 55.9199 14.4718 55.9199 15.1955V62.3908H62.3199V2.08564C62.3199 1.36198 62.8933 0.774658 63.5999 0.774658H68.7199C69.4264 0.774658 69.9999 1.36198 69.9999 2.08564V62.3908H74.4799C74.8332 62.3908 75.1199 62.6845 75.1199 63.0463Z" fill="#BC2E31"/>
</svg>
